M48
; DRILL file {KiCad 5.1.2-f72e74a~84~ubuntu18.04.1} date Fri 05 Jul 2019 19:20:46 BST
; FORMAT={-:-/ absolute / inch / decimal}
; #@! TF.CreationDate,2019-07-05T19:20:46+01:00
; #@! TF.GenerationSoftware,Kicad,Pcbnew,5.1.2-f72e74a~84~ubuntu18.04.1
; #@! TF.FileFunction,Plated,1,2,PTH
FMAT,2
INCH
T1C0.0118
T2C0.0157
T3C0.0236
T4C0.0315
T5C0.0394
T6C0.0472
T7C0.0512
%
G90
G05
T1
X1.5334Y-2.2911
X1.5334Y-2.3344
X1.5334Y-2.3856
X1.5334Y-2.4329
X1.5806Y-2.2911
X1.5806Y-2.3344
X1.5806Y-2.3856
X1.5806Y-2.4329
T2
X0.48Y-3.89
X0.994Y-1.8657
X1.05Y-0.65
X1.075Y-2.895
X1.075Y-2.935
X1.075Y-2.975
X1.13Y-0.836
X1.15Y-2.1
X1.1555Y-1.9272
X1.1742Y-1.8905
X1.2293Y-1.9784
X1.23Y-1.83
X1.2305Y-2.0195
X1.2309Y-1.939
X1.3Y-2.13
X1.36Y-2.1
X1.365Y-2.025
X1.375Y-2.895
X1.375Y-2.935
X1.375Y-2.975
X1.4Y-1.61
X1.434Y-1.668
X1.4605Y-2.0605
X1.4998Y-2.0617
X1.51Y-1.945
X1.5206Y-1.8896
X1.54Y-1.852
X1.55Y-1.59
X1.5551Y-1.5459
X1.58Y-2.2375
X1.582Y-0.392
X1.6042Y-0.434
X1.624Y-0.378
X1.657Y-0.461
X1.675Y-2.895
X1.675Y-2.935
X1.675Y-2.975
X1.7501Y-0.8349
X1.7778Y-0.8859
X1.785Y-0.79
X1.7982Y-0.8271
X1.8029Y-1.0839
X1.8148Y-2.0541
X1.8169Y-0.8816
X1.82Y-1.5486
X1.8385Y-1.0518
X1.858Y-1.088
X1.87Y-2.535
X1.8997Y-0.9219
X1.92Y-2.67
X1.97Y-1.07
X1.9776Y-0.8373
X1.9926Y-1.1791
X1.9937Y-1.5152
X2.0Y-0.26
X2.0Y-0.3
X2.0Y-0.34
X2.0Y-0.38
X2.0Y-0.42
X2.0Y-0.46
X2.0315Y-1.1852
X2.04Y-0.26
X2.04Y-0.3
X2.04Y-0.34
X2.04Y-0.38
X2.04Y-0.42
X2.04Y-0.46
X2.054Y-1.378
X2.0615Y-1.0922
X2.08Y-0.26
X2.08Y-0.3
X2.08Y-0.34
X2.08Y-0.38
X2.08Y-0.42
X2.08Y-0.46
X2.0806Y-1.9606
X2.0935Y-1.1184
X2.1Y-1.205
X2.12Y-0.26
X2.12Y-0.3
X2.12Y-0.34
X2.12Y-0.38
X2.12Y-0.42
X2.12Y-0.46
X2.136Y-1.4176
X2.138Y-1.474
X2.15Y-1.092
X2.16Y-0.26
X2.16Y-0.3
X2.16Y-0.34
X2.16Y-0.38
X2.16Y-0.42
X2.16Y-0.46
X2.166Y-1.2121
X2.1663Y-2.0978
X2.2Y-0.26
X2.2Y-0.3
X2.2Y-0.34
X2.2Y-0.38
X2.2Y-0.42
X2.2Y-0.46
X2.202Y-1.2319
X2.2411Y-1.2151
X2.25Y-1.1158
X2.2565Y-2.3945
X2.27Y-0.68
X2.27Y-1.845
X2.2708Y-2.2707
X2.2799Y-2.3272
X2.2812Y-2.0126
X2.2886Y-1.1077
X2.2928Y-2.0504
X2.296Y-1.418
X2.298Y-1.476
X2.3161Y-0.6871
X2.33Y-3.28
X2.34Y-0.37
X2.3485Y-1.151
X2.3622Y-0.4921
X2.3622Y-0.4528
X2.3622Y-0.5315
X2.3707Y-0.8249
X2.45Y-1.19
X2.4862Y-0.9196
X2.49Y-1.335
X2.52Y-0.805
X2.55Y-0.212
X2.5547Y-0.364
X2.5591Y-3.0347
X2.56Y-0.86
X2.5614Y-0.4644
X2.6134Y-3.0684
X2.706Y-0.3
T4
X0.35Y-0.05
X0.35Y-0.15
X0.35Y-0.25
X0.35Y-0.35
X0.35Y-0.45
X0.35Y-0.55
X0.35Y-0.65
X0.35Y-0.75
X0.85Y-0.05
X0.85Y-0.15
X0.85Y-0.25
X0.85Y-0.35
X0.85Y-0.45
X0.85Y-0.55
X0.85Y-0.65
X0.85Y-0.75
X0.35Y-3.25
X0.35Y-3.35
X0.35Y-3.45
X0.35Y-3.55
X0.35Y-3.65
X0.35Y-3.75
X0.35Y-3.85
X0.35Y-3.95
X0.85Y-3.25
X0.85Y-3.35
X0.85Y-3.45
X0.85Y-3.55
X0.85Y-3.65
X0.85Y-3.75
X0.85Y-3.85
X0.85Y-3.95
X0.35Y-0.85
X0.35Y-0.95
X0.35Y-1.05
X0.35Y-1.15
X0.35Y-1.25
X0.35Y-1.35
X0.35Y-1.45
X0.35Y-1.55
X0.85Y-0.85
X0.85Y-0.95
X0.85Y-1.05
X0.85Y-1.15
X0.85Y-1.25
X0.85Y-1.35
X0.85Y-1.45
X0.85Y-1.55
X0.35Y-1.65
X0.35Y-1.75
X0.35Y-1.85
X0.35Y-1.95
X0.35Y-2.05
X0.35Y-2.15
X0.35Y-2.25
X0.35Y-2.35
X0.85Y-1.65
X0.85Y-1.75
X0.85Y-1.85
X0.85Y-1.95
X0.85Y-2.05
X0.85Y-2.15
X0.85Y-2.25
X0.85Y-2.35
X0.35Y-2.45
X0.35Y-2.55
X0.35Y-2.65
X0.35Y-2.75
X0.35Y-2.85
X0.35Y-2.95
X0.35Y-3.05
X0.35Y-3.15
X0.85Y-2.45
X0.85Y-2.55
X0.85Y-2.65
X0.85Y-2.75
X0.85Y-2.85
X0.85Y-2.95
X0.85Y-3.05
X0.85Y-3.15
T5
X0.05Y-3.3
X0.05Y-3.4
X0.05Y-3.5
X0.05Y-3.6
X0.15Y-3.3
X0.15Y-3.4
X0.15Y-3.5
X0.15Y-3.6
X0.05Y-1.85
X0.05Y-1.95
X0.05Y-2.05
X0.05Y-2.15
X0.15Y-1.85
X0.15Y-1.95
X0.15Y-2.05
X0.15Y-2.15
X1.6Y-2.8
X0.05Y-0.4
X0.05Y-0.5
X0.05Y-0.6
X0.05Y-0.7
X0.15Y-0.4
X0.15Y-0.5
X0.15Y-0.6
X0.15Y-0.7
X2.55Y-1.65
X2.65Y-1.65
X2.75Y-1.65
X0.55Y-2.05
X0.55Y-2.15
X0.55Y-2.25
X0.65Y-2.05
X0.65Y-2.15
X0.65Y-2.25
X1.0Y-2.8
X0.55Y-0.45
X0.55Y-0.55
X0.55Y-0.65
X0.65Y-0.45
X0.65Y-0.55
X0.65Y-0.65
X2.65Y-0.35
X2.65Y-0.45
X2.65Y-0.55
X2.65Y-0.65
X2.65Y-0.75
X2.65Y-0.85
X2.65Y-0.95
X2.65Y-1.05
X2.65Y-1.15
X2.65Y-1.25
X2.65Y-1.35
X2.75Y-0.35
X2.75Y-0.45
X2.75Y-0.55
X2.75Y-0.65
X2.75Y-0.75
X2.75Y-0.85
X2.75Y-0.95
X2.75Y-1.05
X2.75Y-1.15
X2.75Y-1.25
X2.75Y-1.35
X1.35Y-0.95
X1.35Y-1.05
X1.45Y-0.95
X1.45Y-1.05
X1.55Y-0.95
X1.55Y-1.05
X1.3Y-2.8
X2.65Y-1.95
X2.65Y-2.05
X2.65Y-2.15
X2.65Y-2.25
X2.65Y-2.35
X2.65Y-2.45
X2.65Y-2.55
X2.65Y-2.65
X2.65Y-2.75
X2.75Y-1.95
X2.75Y-2.05
X2.75Y-2.15
X2.75Y-2.25
X2.75Y-2.35
X2.75Y-2.45
X2.75Y-2.55
X2.75Y-2.65
X2.75Y-2.75
X0.05Y-2.65
X0.05Y-2.75
X0.05Y-2.85
X0.05Y-2.95
X0.15Y-2.65
X0.15Y-2.75
X0.15Y-2.85
X0.15Y-2.95
X0.55Y-3.65
X0.55Y-3.75
X0.55Y-3.85
X0.65Y-3.65
X0.65Y-3.75
X0.65Y-3.85
X0.05Y-1.05
X0.05Y-1.15
X0.05Y-1.25
X0.05Y-1.35
X0.15Y-1.05
X0.15Y-1.15
X0.15Y-1.25
X0.15Y-1.35
X2.55Y-1.55
X2.65Y-1.55
X2.75Y-1.55
X0.55Y-1.25
X0.55Y-1.35
X0.55Y-1.45
X0.65Y-1.25
X0.65Y-1.35
X0.65Y-1.45
X2.55Y-1.75
X2.65Y-1.75
X2.75Y-1.75
X0.55Y-2.85
X0.55Y-2.95
X0.55Y-3.05
X0.65Y-2.85
X0.65Y-2.95
X0.65Y-3.05
T6
X1.0469Y-3.85
X1.1847Y-3.85
X1.3225Y-3.85
X1.4603Y-3.85
T7
X1.6975Y-3.684
X1.9475Y-3.684
X2.1975Y-3.684
X2.4475Y-3.684
T3
G00X2.5138Y-2.9299
M15
G01X2.5571Y-2.9299
M16
G05
G00X2.5138Y-3.2701
M15
G01X2.5571Y-3.2701
M16
G05
G00X2.6882Y-2.9299
M15
G01X2.7118Y-2.9299
M16
G05
G00X2.6882Y-3.2701
M15
G01X2.7118Y-3.2701
M16
G05
T0
M30
