G04 #@! TF.GenerationSoftware,KiCad,Pcbnew,5.1.2-f72e74a~84~ubuntu18.04.1*
G04 #@! TF.CreationDate,2019-07-05T19:17:41+01:00*
G04 #@! TF.ProjectId,esp32controller,65737033-3263-46f6-9e74-726f6c6c6572,rev?*
G04 #@! TF.SameCoordinates,Original*
G04 #@! TF.FileFunction,Legend,Top*
G04 #@! TF.FilePolarity,Positive*
%FSLAX46Y46*%
G04 Gerber Fmt 4.6, Leading zero omitted, Abs format (unit mm)*
G04 Created by KiCad (PCBNEW 5.1.2-f72e74a~84~ubuntu18.04.1) date 2019-07-05 19:17:41*
%MOMM*%
%LPD*%
G04 APERTURE LIST*
%ADD10C,0.200000*%
%ADD11C,0.150000*%
%ADD12C,0.300000*%
%ADD13C,0.010000*%
%ADD14C,0.120000*%
%ADD15C,0.500000*%
%ADD16C,0.127000*%
%ADD17C,0.099060*%
G04 APERTURE END LIST*
D10*
X30788000Y-39613619D02*
X30388000Y-39089809D01*
X30102285Y-39613619D02*
X30102285Y-38513619D01*
X30559428Y-38513619D01*
X30673714Y-38566000D01*
X30730857Y-38618380D01*
X30788000Y-38723142D01*
X30788000Y-38880285D01*
X30730857Y-38985047D01*
X30673714Y-39037428D01*
X30559428Y-39089809D01*
X30102285Y-39089809D01*
X31245142Y-38618380D02*
X31302285Y-38566000D01*
X31416571Y-38513619D01*
X31702285Y-38513619D01*
X31816571Y-38566000D01*
X31873714Y-38618380D01*
X31930857Y-38723142D01*
X31930857Y-38827904D01*
X31873714Y-38985047D01*
X31188000Y-39613619D01*
X31930857Y-39613619D01*
D11*
X23655976Y-1586666D02*
X23655976Y-886666D01*
X23846452Y-886666D01*
X23960738Y-920000D01*
X24036928Y-986666D01*
X24075023Y-1053333D01*
X24113119Y-1186666D01*
X24113119Y-1286666D01*
X24075023Y-1420000D01*
X24036928Y-1486666D01*
X23960738Y-1553333D01*
X23846452Y-1586666D01*
X23655976Y-1586666D01*
X24455976Y-1586666D02*
X24455976Y-886666D01*
X25294071Y-1586666D02*
X25027404Y-1253333D01*
X24836928Y-1586666D02*
X24836928Y-886666D01*
X25141690Y-886666D01*
X25217880Y-920000D01*
X25255976Y-953333D01*
X25294071Y-1020000D01*
X25294071Y-1120000D01*
X25255976Y-1186666D01*
X25217880Y-1220000D01*
X25141690Y-1253333D01*
X24836928Y-1253333D01*
X5439928Y-82200000D02*
X5363738Y-82166666D01*
X5249452Y-82166666D01*
X5135166Y-82200000D01*
X5058976Y-82266666D01*
X5020880Y-82333333D01*
X4982785Y-82466666D01*
X4982785Y-82566666D01*
X5020880Y-82700000D01*
X5058976Y-82766666D01*
X5135166Y-82833333D01*
X5249452Y-82866666D01*
X5325642Y-82866666D01*
X5439928Y-82833333D01*
X5478023Y-82800000D01*
X5478023Y-82566666D01*
X5325642Y-82566666D01*
X5820880Y-82866666D02*
X5820880Y-82166666D01*
X6278023Y-82866666D01*
X6278023Y-82166666D01*
X6658976Y-82866666D02*
X6658976Y-82166666D01*
X6849452Y-82166666D01*
X6963738Y-82200000D01*
X7039928Y-82266666D01*
X7078023Y-82333333D01*
X7116119Y-82466666D01*
X7116119Y-82566666D01*
X7078023Y-82700000D01*
X7039928Y-82766666D01*
X6963738Y-82833333D01*
X6849452Y-82866666D01*
X6658976Y-82866666D01*
X23401976Y-82866666D02*
X23401976Y-82166666D01*
X23592452Y-82166666D01*
X23706738Y-82200000D01*
X23782928Y-82266666D01*
X23821023Y-82333333D01*
X23859119Y-82466666D01*
X23859119Y-82566666D01*
X23821023Y-82700000D01*
X23782928Y-82766666D01*
X23706738Y-82833333D01*
X23592452Y-82866666D01*
X23401976Y-82866666D01*
X24201976Y-82866666D02*
X24201976Y-82166666D01*
X25040071Y-82866666D02*
X24773404Y-82533333D01*
X24582928Y-82866666D02*
X24582928Y-82166666D01*
X24887690Y-82166666D01*
X24963880Y-82200000D01*
X25001976Y-82233333D01*
X25040071Y-82300000D01*
X25040071Y-82400000D01*
X25001976Y-82466666D01*
X24963880Y-82500000D01*
X24887690Y-82533333D01*
X24582928Y-82533333D01*
X5439928Y-99946666D02*
X5706595Y-100646666D01*
X5973261Y-99946666D01*
X6239928Y-100646666D02*
X6239928Y-99946666D01*
X6620880Y-100646666D02*
X6620880Y-99946666D01*
X7078023Y-100646666D01*
X7078023Y-99946666D01*
X23401976Y-100280000D02*
X23668642Y-100280000D01*
X23782928Y-100646666D02*
X23401976Y-100646666D01*
X23401976Y-99946666D01*
X23782928Y-99946666D01*
X24125785Y-100646666D02*
X24125785Y-99946666D01*
X24582928Y-100646666D01*
X24582928Y-99946666D01*
X5439928Y-61880000D02*
X5363738Y-61846666D01*
X5249452Y-61846666D01*
X5135166Y-61880000D01*
X5058976Y-61946666D01*
X5020880Y-62013333D01*
X4982785Y-62146666D01*
X4982785Y-62246666D01*
X5020880Y-62380000D01*
X5058976Y-62446666D01*
X5135166Y-62513333D01*
X5249452Y-62546666D01*
X5325642Y-62546666D01*
X5439928Y-62513333D01*
X5478023Y-62480000D01*
X5478023Y-62246666D01*
X5325642Y-62246666D01*
X5820880Y-62546666D02*
X5820880Y-61846666D01*
X6278023Y-62546666D01*
X6278023Y-61846666D01*
X6658976Y-62546666D02*
X6658976Y-61846666D01*
X6849452Y-61846666D01*
X6963738Y-61880000D01*
X7039928Y-61946666D01*
X7078023Y-62013333D01*
X7116119Y-62146666D01*
X7116119Y-62246666D01*
X7078023Y-62380000D01*
X7039928Y-62446666D01*
X6963738Y-62513333D01*
X6849452Y-62546666D01*
X6658976Y-62546666D01*
X5439928Y-79626666D02*
X5706595Y-80326666D01*
X5973261Y-79626666D01*
X6239928Y-80326666D02*
X6239928Y-79626666D01*
X6620880Y-80326666D02*
X6620880Y-79626666D01*
X7078023Y-80326666D01*
X7078023Y-79626666D01*
X23401976Y-79960000D02*
X23668642Y-79960000D01*
X23782928Y-80326666D02*
X23401976Y-80326666D01*
X23401976Y-79626666D01*
X23782928Y-79626666D01*
X24125785Y-80326666D02*
X24125785Y-79626666D01*
X24582928Y-80326666D01*
X24582928Y-79626666D01*
X23401976Y-62546666D02*
X23401976Y-61846666D01*
X23592452Y-61846666D01*
X23706738Y-61880000D01*
X23782928Y-61946666D01*
X23821023Y-62013333D01*
X23859119Y-62146666D01*
X23859119Y-62246666D01*
X23821023Y-62380000D01*
X23782928Y-62446666D01*
X23706738Y-62513333D01*
X23592452Y-62546666D01*
X23401976Y-62546666D01*
X24201976Y-62546666D02*
X24201976Y-61846666D01*
X25040071Y-62546666D02*
X24773404Y-62213333D01*
X24582928Y-62546666D02*
X24582928Y-61846666D01*
X24887690Y-61846666D01*
X24963880Y-61880000D01*
X25001976Y-61913333D01*
X25040071Y-61980000D01*
X25040071Y-62080000D01*
X25001976Y-62146666D01*
X24963880Y-62180000D01*
X24887690Y-62213333D01*
X24582928Y-62213333D01*
X5439928Y-41560000D02*
X5363738Y-41526666D01*
X5249452Y-41526666D01*
X5135166Y-41560000D01*
X5058976Y-41626666D01*
X5020880Y-41693333D01*
X4982785Y-41826666D01*
X4982785Y-41926666D01*
X5020880Y-42060000D01*
X5058976Y-42126666D01*
X5135166Y-42193333D01*
X5249452Y-42226666D01*
X5325642Y-42226666D01*
X5439928Y-42193333D01*
X5478023Y-42160000D01*
X5478023Y-41926666D01*
X5325642Y-41926666D01*
X5820880Y-42226666D02*
X5820880Y-41526666D01*
X6278023Y-42226666D01*
X6278023Y-41526666D01*
X6658976Y-42226666D02*
X6658976Y-41526666D01*
X6849452Y-41526666D01*
X6963738Y-41560000D01*
X7039928Y-41626666D01*
X7078023Y-41693333D01*
X7116119Y-41826666D01*
X7116119Y-41926666D01*
X7078023Y-42060000D01*
X7039928Y-42126666D01*
X6963738Y-42193333D01*
X6849452Y-42226666D01*
X6658976Y-42226666D01*
X23401976Y-59640000D02*
X23668642Y-59640000D01*
X23782928Y-60006666D02*
X23401976Y-60006666D01*
X23401976Y-59306666D01*
X23782928Y-59306666D01*
X24125785Y-60006666D02*
X24125785Y-59306666D01*
X24582928Y-60006666D01*
X24582928Y-59306666D01*
X5439928Y-59306666D02*
X5706595Y-60006666D01*
X5973261Y-59306666D01*
X6239928Y-60006666D02*
X6239928Y-59306666D01*
X6620880Y-60006666D02*
X6620880Y-59306666D01*
X7078023Y-60006666D01*
X7078023Y-59306666D01*
X23401976Y-42226666D02*
X23401976Y-41526666D01*
X23592452Y-41526666D01*
X23706738Y-41560000D01*
X23782928Y-41626666D01*
X23821023Y-41693333D01*
X23859119Y-41826666D01*
X23859119Y-41926666D01*
X23821023Y-42060000D01*
X23782928Y-42126666D01*
X23706738Y-42193333D01*
X23592452Y-42226666D01*
X23401976Y-42226666D01*
X24201976Y-42226666D02*
X24201976Y-41526666D01*
X25040071Y-42226666D02*
X24773404Y-41893333D01*
X24582928Y-42226666D02*
X24582928Y-41526666D01*
X24887690Y-41526666D01*
X24963880Y-41560000D01*
X25001976Y-41593333D01*
X25040071Y-41660000D01*
X25040071Y-41760000D01*
X25001976Y-41826666D01*
X24963880Y-41860000D01*
X24887690Y-41893333D01*
X24582928Y-41893333D01*
X5439928Y-21240000D02*
X5363738Y-21206666D01*
X5249452Y-21206666D01*
X5135166Y-21240000D01*
X5058976Y-21306666D01*
X5020880Y-21373333D01*
X4982785Y-21506666D01*
X4982785Y-21606666D01*
X5020880Y-21740000D01*
X5058976Y-21806666D01*
X5135166Y-21873333D01*
X5249452Y-21906666D01*
X5325642Y-21906666D01*
X5439928Y-21873333D01*
X5478023Y-21840000D01*
X5478023Y-21606666D01*
X5325642Y-21606666D01*
X5820880Y-21906666D02*
X5820880Y-21206666D01*
X6278023Y-21906666D01*
X6278023Y-21206666D01*
X6658976Y-21906666D02*
X6658976Y-21206666D01*
X6849452Y-21206666D01*
X6963738Y-21240000D01*
X7039928Y-21306666D01*
X7078023Y-21373333D01*
X7116119Y-21506666D01*
X7116119Y-21606666D01*
X7078023Y-21740000D01*
X7039928Y-21806666D01*
X6963738Y-21873333D01*
X6849452Y-21906666D01*
X6658976Y-21906666D01*
X5439928Y-38986666D02*
X5706595Y-39686666D01*
X5973261Y-38986666D01*
X6239928Y-39686666D02*
X6239928Y-38986666D01*
X6620880Y-39686666D02*
X6620880Y-38986666D01*
X7078023Y-39686666D01*
X7078023Y-38986666D01*
X23401976Y-39320000D02*
X23668642Y-39320000D01*
X23782928Y-39686666D02*
X23401976Y-39686666D01*
X23401976Y-38986666D01*
X23782928Y-38986666D01*
X24125785Y-39686666D02*
X24125785Y-38986666D01*
X24582928Y-39686666D01*
X24582928Y-38986666D01*
X5439928Y-18666666D02*
X5706595Y-19366666D01*
X5973261Y-18666666D01*
X6239928Y-19366666D02*
X6239928Y-18666666D01*
X6620880Y-19366666D02*
X6620880Y-18666666D01*
X7078023Y-19366666D01*
X7078023Y-18666666D01*
X23401976Y-21906666D02*
X23401976Y-21206666D01*
X23592452Y-21206666D01*
X23706738Y-21240000D01*
X23782928Y-21306666D01*
X23821023Y-21373333D01*
X23859119Y-21506666D01*
X23859119Y-21606666D01*
X23821023Y-21740000D01*
X23782928Y-21806666D01*
X23706738Y-21873333D01*
X23592452Y-21906666D01*
X23401976Y-21906666D01*
X24201976Y-21906666D02*
X24201976Y-21206666D01*
X25040071Y-21906666D02*
X24773404Y-21573333D01*
X24582928Y-21906666D02*
X24582928Y-21206666D01*
X24887690Y-21206666D01*
X24963880Y-21240000D01*
X25001976Y-21273333D01*
X25040071Y-21340000D01*
X25040071Y-21440000D01*
X25001976Y-21506666D01*
X24963880Y-21540000D01*
X24887690Y-21573333D01*
X24582928Y-21573333D01*
X23401976Y-19000000D02*
X23668642Y-19000000D01*
X23782928Y-19366666D02*
X23401976Y-19366666D01*
X23401976Y-18666666D01*
X23782928Y-18666666D01*
X24125785Y-19366666D02*
X24125785Y-18666666D01*
X24582928Y-19366666D01*
X24582928Y-18666666D01*
X5439928Y-920000D02*
X5363738Y-886666D01*
X5249452Y-886666D01*
X5135166Y-920000D01*
X5058976Y-986666D01*
X5020880Y-1053333D01*
X4982785Y-1186666D01*
X4982785Y-1286666D01*
X5020880Y-1420000D01*
X5058976Y-1486666D01*
X5135166Y-1553333D01*
X5249452Y-1586666D01*
X5325642Y-1586666D01*
X5439928Y-1553333D01*
X5478023Y-1520000D01*
X5478023Y-1286666D01*
X5325642Y-1286666D01*
X5820880Y-1586666D02*
X5820880Y-886666D01*
X6278023Y-1586666D01*
X6278023Y-886666D01*
X6658976Y-1586666D02*
X6658976Y-886666D01*
X6849452Y-886666D01*
X6963738Y-920000D01*
X7039928Y-986666D01*
X7078023Y-1053333D01*
X7116119Y-1186666D01*
X7116119Y-1286666D01*
X7078023Y-1420000D01*
X7039928Y-1486666D01*
X6963738Y-1553333D01*
X6849452Y-1586666D01*
X6658976Y-1586666D01*
D10*
X1711428Y-81201428D02*
X2111428Y-81201428D01*
X2282857Y-81777619D02*
X1711428Y-81777619D01*
X1711428Y-80677619D01*
X2282857Y-80677619D01*
X3425714Y-81777619D02*
X2740000Y-81777619D01*
X3082857Y-81777619D02*
X3082857Y-80677619D01*
X2968571Y-80834761D01*
X2854285Y-80939523D01*
X2740000Y-80991904D01*
X1711428Y-64691428D02*
X2111428Y-64691428D01*
X2282857Y-65267619D02*
X1711428Y-65267619D01*
X1711428Y-64167619D01*
X2282857Y-64167619D01*
X3025714Y-64167619D02*
X3140000Y-64167619D01*
X3254285Y-64220000D01*
X3311428Y-64272380D01*
X3368571Y-64377142D01*
X3425714Y-64586666D01*
X3425714Y-64848571D01*
X3368571Y-65058095D01*
X3311428Y-65162857D01*
X3254285Y-65215238D01*
X3140000Y-65267619D01*
X3025714Y-65267619D01*
X2911428Y-65215238D01*
X2854285Y-65162857D01*
X2797142Y-65058095D01*
X2740000Y-64848571D01*
X2740000Y-64586666D01*
X2797142Y-64377142D01*
X2854285Y-64272380D01*
X2911428Y-64220000D01*
X3025714Y-64167619D01*
X2140000Y-43847619D02*
X2940000Y-43847619D01*
X2140000Y-44947619D01*
X2940000Y-44947619D01*
X2540000Y-24103809D02*
X2540000Y-24627619D01*
X2140000Y-23527619D02*
X2540000Y-24103809D01*
X2940000Y-23527619D01*
X2140000Y-7017619D02*
X2940000Y-8117619D01*
X2940000Y-7017619D02*
X2140000Y-8117619D01*
X61627619Y-40512857D02*
X62727619Y-39712857D01*
X61627619Y-39712857D02*
X62727619Y-40512857D01*
X62308571Y-39255714D02*
X62308571Y-38341428D01*
X62203809Y-42652857D02*
X62727619Y-42652857D01*
X61627619Y-43052857D02*
X62203809Y-42652857D01*
X61627619Y-42252857D01*
X62308571Y-41852857D02*
X62308571Y-40938571D01*
X61627619Y-45592857D02*
X61627619Y-44792857D01*
X62727619Y-45592857D01*
X62727619Y-44792857D01*
X62308571Y-44335714D02*
X62308571Y-43421428D01*
X63296914Y-33893980D02*
X63354057Y-33841600D01*
X63468342Y-33789219D01*
X63754057Y-33789219D01*
X63868342Y-33841600D01*
X63925485Y-33893980D01*
X63982628Y-33998742D01*
X63982628Y-34103504D01*
X63925485Y-34260647D01*
X63239771Y-34889219D01*
X63982628Y-34889219D01*
X65125485Y-34889219D02*
X64439771Y-34889219D01*
X64782628Y-34889219D02*
X64782628Y-33789219D01*
X64668342Y-33946361D01*
X64554057Y-34051123D01*
X64439771Y-34103504D01*
X64084228Y-49976819D02*
X63398514Y-49976819D01*
X63741371Y-49976819D02*
X63741371Y-48876819D01*
X63627085Y-49033961D01*
X63512800Y-49138723D01*
X63398514Y-49191104D01*
X64769942Y-49348247D02*
X64655657Y-49295866D01*
X64598514Y-49243485D01*
X64541371Y-49138723D01*
X64541371Y-49086342D01*
X64598514Y-48981580D01*
X64655657Y-48929200D01*
X64769942Y-48876819D01*
X64998514Y-48876819D01*
X65112800Y-48929200D01*
X65169942Y-48981580D01*
X65227085Y-49086342D01*
X65227085Y-49138723D01*
X65169942Y-49243485D01*
X65112800Y-49295866D01*
X64998514Y-49348247D01*
X64769942Y-49348247D01*
X64655657Y-49400628D01*
X64598514Y-49453009D01*
X64541371Y-49557771D01*
X64541371Y-49767295D01*
X64598514Y-49872057D01*
X64655657Y-49924438D01*
X64769942Y-49976819D01*
X64998514Y-49976819D01*
X65112800Y-49924438D01*
X65169942Y-49872057D01*
X65227085Y-49767295D01*
X65227085Y-49557771D01*
X65169942Y-49453009D01*
X65112800Y-49400628D01*
X64998514Y-49348247D01*
X64325542Y-69453980D02*
X64382685Y-69401600D01*
X64496971Y-69349219D01*
X64782685Y-69349219D01*
X64896971Y-69401600D01*
X64954114Y-69453980D01*
X65011257Y-69558742D01*
X65011257Y-69663504D01*
X64954114Y-69820647D01*
X64268400Y-70449219D01*
X65011257Y-70449219D01*
X65366857Y-9260619D02*
X64681142Y-9260619D01*
X65024000Y-9260619D02*
X65024000Y-8160619D01*
X64909714Y-8317761D01*
X64795428Y-8422523D01*
X64681142Y-8474904D01*
X42199142Y-35549619D02*
X41799142Y-35025809D01*
X41513428Y-35549619D02*
X41513428Y-34449619D01*
X41970571Y-34449619D01*
X42084857Y-34502000D01*
X42142000Y-34554380D01*
X42199142Y-34659142D01*
X42199142Y-34816285D01*
X42142000Y-34921047D01*
X42084857Y-34973428D01*
X41970571Y-35025809D01*
X41513428Y-35025809D01*
X42713428Y-34973428D02*
X43113428Y-34973428D01*
X43284857Y-35549619D02*
X42713428Y-35549619D01*
X42713428Y-34449619D01*
X43284857Y-34449619D01*
X43742000Y-35497238D02*
X43913428Y-35549619D01*
X44199142Y-35549619D01*
X44313428Y-35497238D01*
X44370571Y-35444857D01*
X44427714Y-35340095D01*
X44427714Y-35235333D01*
X44370571Y-35130571D01*
X44313428Y-35078190D01*
X44199142Y-35025809D01*
X43970571Y-34973428D01*
X43856285Y-34921047D01*
X43799142Y-34868666D01*
X43742000Y-34763904D01*
X43742000Y-34659142D01*
X43799142Y-34554380D01*
X43856285Y-34502000D01*
X43970571Y-34449619D01*
X44256285Y-34449619D01*
X44427714Y-34502000D01*
X44942000Y-34973428D02*
X45342000Y-34973428D01*
X45513428Y-35549619D02*
X44942000Y-35549619D01*
X44942000Y-34449619D01*
X45513428Y-34449619D01*
X45856285Y-34449619D02*
X46542000Y-34449619D01*
X46199142Y-35549619D02*
X46199142Y-34449619D01*
X33687619Y-21488285D02*
X33687619Y-20802571D01*
X34787619Y-21145428D02*
X33687619Y-21145428D01*
X33687619Y-20174000D02*
X33687619Y-20059714D01*
X33740000Y-19945428D01*
X33792380Y-19888285D01*
X33897142Y-19831142D01*
X34106666Y-19774000D01*
X34368571Y-19774000D01*
X34578095Y-19831142D01*
X34682857Y-19888285D01*
X34735238Y-19945428D01*
X34787619Y-20059714D01*
X34787619Y-20174000D01*
X34735238Y-20288285D01*
X34682857Y-20345428D01*
X34578095Y-20402571D01*
X34368571Y-20459714D01*
X34106666Y-20459714D01*
X33897142Y-20402571D01*
X33792380Y-20345428D01*
X33740000Y-20288285D01*
X33687619Y-20174000D01*
X36227619Y-21488285D02*
X36227619Y-20802571D01*
X37327619Y-21145428D02*
X36227619Y-21145428D01*
X37327619Y-19774000D02*
X37327619Y-20459714D01*
X37327619Y-20116857D02*
X36227619Y-20116857D01*
X36384761Y-20231142D01*
X36489523Y-20345428D01*
X36541904Y-20459714D01*
X38767619Y-21488285D02*
X38767619Y-20802571D01*
X39867619Y-21145428D02*
X38767619Y-21145428D01*
X38872380Y-20459714D02*
X38820000Y-20402571D01*
X38767619Y-20288285D01*
X38767619Y-20002571D01*
X38820000Y-19888285D01*
X38872380Y-19831142D01*
X38977142Y-19774000D01*
X39081904Y-19774000D01*
X39239047Y-19831142D01*
X39867619Y-20516857D01*
X39867619Y-19774000D01*
X25270214Y-91107428D02*
X25670214Y-91107428D01*
X25841642Y-91683619D02*
X25270214Y-91683619D01*
X25270214Y-90583619D01*
X25841642Y-90583619D01*
X26984500Y-91683619D02*
X26298785Y-91683619D01*
X26641642Y-91683619D02*
X26641642Y-90583619D01*
X26527357Y-90740761D01*
X26413071Y-90845523D01*
X26298785Y-90897904D01*
X28355928Y-90531238D02*
X27327357Y-91945523D01*
X29155928Y-91107428D02*
X28755928Y-91107428D01*
X28755928Y-91683619D02*
X28755928Y-90583619D01*
X29327357Y-90583619D01*
X29727357Y-91369333D02*
X30298785Y-91369333D01*
X29613071Y-91683619D02*
X30013071Y-90583619D01*
X30413071Y-91683619D01*
X30813071Y-91683619D02*
X30813071Y-90583619D01*
X31498785Y-91683619D01*
X31498785Y-90583619D01*
X34540928Y-91107428D02*
X34940928Y-91107428D01*
X35112357Y-91683619D02*
X34540928Y-91683619D01*
X34540928Y-90583619D01*
X35112357Y-90583619D01*
X35855214Y-90583619D02*
X35969500Y-90583619D01*
X36083785Y-90636000D01*
X36140928Y-90688380D01*
X36198071Y-90793142D01*
X36255214Y-91002666D01*
X36255214Y-91264571D01*
X36198071Y-91474095D01*
X36140928Y-91578857D01*
X36083785Y-91631238D01*
X35969500Y-91683619D01*
X35855214Y-91683619D01*
X35740928Y-91631238D01*
X35683785Y-91578857D01*
X35626642Y-91474095D01*
X35569500Y-91264571D01*
X35569500Y-91002666D01*
X35626642Y-90793142D01*
X35683785Y-90688380D01*
X35740928Y-90636000D01*
X35855214Y-90583619D01*
X41364500Y-85773428D02*
X41535928Y-85825809D01*
X41593071Y-85878190D01*
X41650214Y-85982952D01*
X41650214Y-86140095D01*
X41593071Y-86244857D01*
X41535928Y-86297238D01*
X41421642Y-86349619D01*
X40964500Y-86349619D01*
X40964500Y-85249619D01*
X41364500Y-85249619D01*
X41478785Y-85302000D01*
X41535928Y-85354380D01*
X41593071Y-85459142D01*
X41593071Y-85563904D01*
X41535928Y-85668666D01*
X41478785Y-85721047D01*
X41364500Y-85773428D01*
X40964500Y-85773428D01*
X42164500Y-85773428D02*
X42564500Y-85773428D01*
X42735928Y-86349619D02*
X42164500Y-86349619D01*
X42164500Y-85249619D01*
X42735928Y-85249619D01*
X43250214Y-86349619D02*
X43250214Y-85249619D01*
X43535928Y-85249619D01*
X43707357Y-85302000D01*
X43821642Y-85406761D01*
X43878785Y-85511523D01*
X43935928Y-85721047D01*
X43935928Y-85878190D01*
X43878785Y-86087714D01*
X43821642Y-86192476D01*
X43707357Y-86297238D01*
X43535928Y-86349619D01*
X43250214Y-86349619D01*
X45364500Y-86349619D02*
X45364500Y-85249619D01*
X45364500Y-85773428D02*
X46050214Y-85773428D01*
X46050214Y-86349619D02*
X46050214Y-85249619D01*
X46621642Y-85773428D02*
X47021642Y-85773428D01*
X47193071Y-86349619D02*
X46621642Y-86349619D01*
X46621642Y-85249619D01*
X47193071Y-85249619D01*
X47650214Y-86035333D02*
X48221642Y-86035333D01*
X47535928Y-86349619D02*
X47935928Y-85249619D01*
X48335928Y-86349619D01*
X48564500Y-85249619D02*
X49250214Y-85249619D01*
X48907357Y-86349619D02*
X48907357Y-85249619D01*
X49650214Y-85773428D02*
X50050214Y-85773428D01*
X50221642Y-86349619D02*
X49650214Y-86349619D01*
X49650214Y-85249619D01*
X50221642Y-85249619D01*
X51421642Y-86349619D02*
X51021642Y-85825809D01*
X50735928Y-86349619D02*
X50735928Y-85249619D01*
X51193071Y-85249619D01*
X51307357Y-85302000D01*
X51364500Y-85354380D01*
X51421642Y-85459142D01*
X51421642Y-85616285D01*
X51364500Y-85721047D01*
X51307357Y-85773428D01*
X51193071Y-85825809D01*
X50735928Y-85825809D01*
X53035928Y-85249619D02*
X53435928Y-86349619D01*
X53835928Y-85249619D01*
X54235928Y-86349619D02*
X54235928Y-85249619D01*
X54807357Y-86349619D02*
X54807357Y-85249619D01*
X55493071Y-86349619D01*
X55493071Y-85249619D01*
X57607357Y-86349619D02*
X56921642Y-86349619D01*
X57264500Y-86349619D02*
X57264500Y-85249619D01*
X57150214Y-85406761D01*
X57035928Y-85511523D01*
X56921642Y-85563904D01*
X58350214Y-85249619D02*
X58464500Y-85249619D01*
X58578785Y-85302000D01*
X58635928Y-85354380D01*
X58693071Y-85459142D01*
X58750214Y-85668666D01*
X58750214Y-85930571D01*
X58693071Y-86140095D01*
X58635928Y-86244857D01*
X58578785Y-86297238D01*
X58464500Y-86349619D01*
X58350214Y-86349619D01*
X58235928Y-86297238D01*
X58178785Y-86244857D01*
X58121642Y-86140095D01*
X58064500Y-85930571D01*
X58064500Y-85668666D01*
X58121642Y-85459142D01*
X58178785Y-85354380D01*
X58235928Y-85302000D01*
X58350214Y-85249619D01*
X59093071Y-85249619D02*
X59493071Y-86349619D01*
X59893071Y-85249619D01*
X60293071Y-85930571D02*
X61207357Y-85930571D01*
X61664500Y-85249619D02*
X62407357Y-85249619D01*
X62007357Y-85668666D01*
X62178785Y-85668666D01*
X62293071Y-85721047D01*
X62350214Y-85773428D01*
X62407357Y-85878190D01*
X62407357Y-86140095D01*
X62350214Y-86244857D01*
X62293071Y-86297238D01*
X62178785Y-86349619D01*
X61835928Y-86349619D01*
X61721642Y-86297238D01*
X61664500Y-86244857D01*
X63493071Y-85249619D02*
X62921642Y-85249619D01*
X62864500Y-85773428D01*
X62921642Y-85721047D01*
X63035928Y-85668666D01*
X63321642Y-85668666D01*
X63435928Y-85721047D01*
X63493071Y-85773428D01*
X63550214Y-85878190D01*
X63550214Y-86140095D01*
X63493071Y-86244857D01*
X63435928Y-86297238D01*
X63321642Y-86349619D01*
X63035928Y-86349619D01*
X62921642Y-86297238D01*
X62864500Y-86244857D01*
X63893071Y-85249619D02*
X64293071Y-86349619D01*
X64693071Y-85249619D01*
D12*
X33020071Y-93071142D02*
X34162928Y-93071142D01*
X36576071Y-93071142D02*
X37718928Y-93071142D01*
X37147500Y-93642571D02*
X37147500Y-92499714D01*
X29464071Y-93071142D02*
X30606928Y-93071142D01*
X30035500Y-93642571D02*
X30035500Y-92499714D01*
X25908071Y-93071142D02*
X27050928Y-93071142D01*
D11*
X28333700Y-94310200D02*
X28333700Y-92049600D01*
X24447500Y-94335600D02*
X24447500Y-90246200D01*
X31813500Y-94361000D02*
X31813500Y-90297000D01*
X39251500Y-94330000D02*
X39251500Y-90297000D01*
X35313620Y-94307660D02*
X35313620Y-92021660D01*
X39255700Y-90243660D02*
X24472900Y-90243660D01*
X24472900Y-92021660D02*
X39179500Y-92021660D01*
D12*
X42545071Y-87864142D02*
X43687928Y-87864142D01*
X48895071Y-87864142D02*
X50037928Y-87864142D01*
X49466500Y-88435571D02*
X49466500Y-87292714D01*
D11*
X39941500Y-86715600D02*
X52641500Y-86715600D01*
X46291500Y-89001600D02*
X46291500Y-86715600D01*
X39941500Y-84937600D02*
X39941500Y-88973660D01*
X52641500Y-84937600D02*
X39941500Y-84937600D01*
D12*
X55118071Y-87864142D02*
X56260928Y-87864142D01*
D11*
X52641500Y-86715600D02*
X65341500Y-86715600D01*
X58991500Y-89001600D02*
X58991500Y-86715600D01*
X65341500Y-84937600D02*
X65341500Y-88973660D01*
X52641500Y-84937600D02*
X65341500Y-84937600D01*
X52631340Y-88973660D02*
X52641500Y-84937600D01*
D12*
X61722071Y-87864142D02*
X62864928Y-87864142D01*
X62293500Y-88435571D02*
X62293500Y-87292714D01*
D13*
G36*
X31543814Y-32774931D02*
G01*
X31627635Y-33219555D01*
X31936920Y-33347053D01*
X32246206Y-33474551D01*
X32617246Y-33222246D01*
X32721157Y-33151996D01*
X32815087Y-33089272D01*
X32894652Y-33036938D01*
X32955470Y-32997857D01*
X32993157Y-32974893D01*
X33003421Y-32969942D01*
X33021910Y-32982676D01*
X33061420Y-33017882D01*
X33117522Y-33071062D01*
X33185787Y-33137718D01*
X33261786Y-33213354D01*
X33341092Y-33293472D01*
X33419275Y-33373574D01*
X33491907Y-33449164D01*
X33554559Y-33515745D01*
X33602803Y-33568818D01*
X33632210Y-33603887D01*
X33639241Y-33615623D01*
X33629123Y-33637260D01*
X33600759Y-33684662D01*
X33557129Y-33753193D01*
X33501218Y-33838215D01*
X33436006Y-33935093D01*
X33398219Y-33990350D01*
X33329343Y-34091248D01*
X33268140Y-34182299D01*
X33217578Y-34258970D01*
X33180628Y-34316728D01*
X33160258Y-34351043D01*
X33157197Y-34358254D01*
X33164136Y-34378748D01*
X33183051Y-34426513D01*
X33211087Y-34494832D01*
X33245391Y-34576989D01*
X33283109Y-34666270D01*
X33321387Y-34755958D01*
X33357370Y-34839338D01*
X33388206Y-34909694D01*
X33411039Y-34960310D01*
X33423017Y-34984471D01*
X33423724Y-34985422D01*
X33442531Y-34990036D01*
X33492618Y-35000328D01*
X33568793Y-35015287D01*
X33665865Y-35033901D01*
X33778643Y-35055159D01*
X33844442Y-35067418D01*
X33964950Y-35090362D01*
X34073797Y-35112195D01*
X34165476Y-35131722D01*
X34234481Y-35147748D01*
X34275304Y-35159079D01*
X34283511Y-35162674D01*
X34291548Y-35187006D01*
X34298033Y-35241959D01*
X34302970Y-35321108D01*
X34306364Y-35418026D01*
X34308218Y-35526287D01*
X34308538Y-35639465D01*
X34307327Y-35751135D01*
X34304590Y-35854868D01*
X34300331Y-35944241D01*
X34294555Y-36012826D01*
X34287267Y-36054197D01*
X34282895Y-36062810D01*
X34256764Y-36073133D01*
X34201393Y-36087892D01*
X34124107Y-36105352D01*
X34032230Y-36123780D01*
X34000158Y-36129741D01*
X33845524Y-36158066D01*
X33723375Y-36180876D01*
X33629673Y-36199080D01*
X33560384Y-36213583D01*
X33511471Y-36225292D01*
X33478897Y-36235115D01*
X33458628Y-36243956D01*
X33446626Y-36252724D01*
X33444947Y-36254457D01*
X33428184Y-36282371D01*
X33402614Y-36336695D01*
X33370788Y-36410777D01*
X33335260Y-36497965D01*
X33298583Y-36591608D01*
X33263311Y-36685052D01*
X33231996Y-36771647D01*
X33207193Y-36844740D01*
X33191454Y-36897678D01*
X33187332Y-36923811D01*
X33187676Y-36924726D01*
X33201641Y-36946086D01*
X33233322Y-36993084D01*
X33279391Y-37060827D01*
X33336518Y-37144423D01*
X33401373Y-37238982D01*
X33419843Y-37265854D01*
X33485699Y-37363275D01*
X33543650Y-37452163D01*
X33590538Y-37527412D01*
X33623207Y-37583920D01*
X33638500Y-37616581D01*
X33639241Y-37620593D01*
X33626392Y-37641684D01*
X33590888Y-37683464D01*
X33537293Y-37741445D01*
X33470171Y-37811135D01*
X33394087Y-37888045D01*
X33313604Y-37967683D01*
X33233287Y-38045561D01*
X33157699Y-38117186D01*
X33091405Y-38178070D01*
X33038969Y-38223721D01*
X33004955Y-38249650D01*
X32995545Y-38253883D01*
X32973643Y-38243912D01*
X32928800Y-38217020D01*
X32868321Y-38177736D01*
X32821789Y-38146117D01*
X32737475Y-38088098D01*
X32637626Y-38019784D01*
X32537473Y-37951579D01*
X32483627Y-37915075D01*
X32301371Y-37791800D01*
X32148381Y-37874520D01*
X32078682Y-37910759D01*
X32019414Y-37938926D01*
X31979311Y-37954991D01*
X31969103Y-37957226D01*
X31956829Y-37940722D01*
X31932613Y-37894082D01*
X31898263Y-37821609D01*
X31855588Y-37727606D01*
X31806394Y-37616374D01*
X31752490Y-37492215D01*
X31695684Y-37359432D01*
X31637782Y-37222327D01*
X31580593Y-37085202D01*
X31525924Y-36952358D01*
X31475584Y-36828098D01*
X31431380Y-36716725D01*
X31395119Y-36622539D01*
X31368609Y-36549844D01*
X31353658Y-36502941D01*
X31351254Y-36486833D01*
X31370311Y-36466286D01*
X31412036Y-36432933D01*
X31467706Y-36393702D01*
X31472378Y-36390599D01*
X31616264Y-36275423D01*
X31732283Y-36141053D01*
X31819430Y-35991784D01*
X31876699Y-35831913D01*
X31903086Y-35665737D01*
X31897585Y-35497552D01*
X31859190Y-35331655D01*
X31786895Y-35172342D01*
X31765626Y-35137487D01*
X31654996Y-34996737D01*
X31524302Y-34883714D01*
X31378064Y-34799003D01*
X31220808Y-34743194D01*
X31057057Y-34716874D01*
X30891333Y-34720630D01*
X30728162Y-34755050D01*
X30572065Y-34820723D01*
X30427567Y-34918235D01*
X30382869Y-34957813D01*
X30269112Y-35081703D01*
X30186218Y-35212124D01*
X30129356Y-35358315D01*
X30097687Y-35503088D01*
X30089869Y-35665860D01*
X30115938Y-35829440D01*
X30173245Y-35988298D01*
X30259144Y-36136906D01*
X30370986Y-36269735D01*
X30506123Y-36381256D01*
X30523883Y-36393011D01*
X30580150Y-36431508D01*
X30622923Y-36464863D01*
X30643372Y-36486160D01*
X30643669Y-36486833D01*
X30639279Y-36509871D01*
X30621876Y-36562157D01*
X30593268Y-36639390D01*
X30555265Y-36737268D01*
X30509674Y-36851491D01*
X30458303Y-36977758D01*
X30402962Y-37111767D01*
X30345458Y-37249218D01*
X30287601Y-37385808D01*
X30231198Y-37517237D01*
X30178058Y-37639205D01*
X30129990Y-37747409D01*
X30088801Y-37837549D01*
X30056301Y-37905323D01*
X30034297Y-37946430D01*
X30025436Y-37957226D01*
X29998360Y-37948819D01*
X29947697Y-37926272D01*
X29882183Y-37893613D01*
X29846159Y-37874520D01*
X29693168Y-37791800D01*
X29510912Y-37915075D01*
X29417875Y-37978228D01*
X29316015Y-38047727D01*
X29220562Y-38113165D01*
X29172750Y-38146117D01*
X29105505Y-38191273D01*
X29048564Y-38227057D01*
X29009354Y-38248938D01*
X28996619Y-38253563D01*
X28978083Y-38241085D01*
X28937059Y-38206252D01*
X28877525Y-38152678D01*
X28803458Y-38083983D01*
X28718835Y-38003781D01*
X28665315Y-37952286D01*
X28571681Y-37860286D01*
X28490759Y-37777999D01*
X28425823Y-37708945D01*
X28380142Y-37656644D01*
X28356989Y-37624616D01*
X28354768Y-37618116D01*
X28365076Y-37593394D01*
X28393561Y-37543405D01*
X28437063Y-37473212D01*
X28492423Y-37387875D01*
X28556480Y-37292456D01*
X28574697Y-37265854D01*
X28641073Y-37169167D01*
X28700622Y-37082117D01*
X28750016Y-37009595D01*
X28785925Y-36956493D01*
X28805019Y-36927703D01*
X28806864Y-36924726D01*
X28804105Y-36901782D01*
X28789462Y-36851336D01*
X28765487Y-36780041D01*
X28734734Y-36694547D01*
X28699756Y-36601507D01*
X28663107Y-36507574D01*
X28627339Y-36419399D01*
X28595006Y-36343634D01*
X28568662Y-36286931D01*
X28550858Y-36255943D01*
X28549593Y-36254457D01*
X28538706Y-36245601D01*
X28520318Y-36236843D01*
X28490394Y-36227277D01*
X28444897Y-36215996D01*
X28379791Y-36202093D01*
X28291039Y-36184663D01*
X28174607Y-36162798D01*
X28026458Y-36135591D01*
X27994382Y-36129741D01*
X27899314Y-36111374D01*
X27816435Y-36093405D01*
X27753070Y-36077569D01*
X27716542Y-36065600D01*
X27711644Y-36062810D01*
X27703573Y-36038072D01*
X27697013Y-35982790D01*
X27691967Y-35903389D01*
X27688441Y-35806296D01*
X27686439Y-35697938D01*
X27685964Y-35584740D01*
X27687023Y-35473128D01*
X27689618Y-35369529D01*
X27693754Y-35280368D01*
X27699437Y-35212072D01*
X27706669Y-35171066D01*
X27711029Y-35162674D01*
X27735302Y-35154208D01*
X27790574Y-35140435D01*
X27871338Y-35122550D01*
X27972088Y-35101748D01*
X28087317Y-35079223D01*
X28150098Y-35067418D01*
X28269213Y-35045151D01*
X28375435Y-35024979D01*
X28463573Y-35007915D01*
X28528434Y-34994969D01*
X28564826Y-34987155D01*
X28570816Y-34985422D01*
X28580939Y-34965890D01*
X28602338Y-34918843D01*
X28632161Y-34851003D01*
X28667555Y-34769091D01*
X28705668Y-34679828D01*
X28743647Y-34589935D01*
X28778640Y-34506135D01*
X28807794Y-34435147D01*
X28828257Y-34383694D01*
X28837177Y-34358497D01*
X28837343Y-34357396D01*
X28827231Y-34337519D01*
X28798883Y-34291777D01*
X28755277Y-34224717D01*
X28699394Y-34140884D01*
X28634213Y-34044826D01*
X28596321Y-33989650D01*
X28527275Y-33888481D01*
X28465950Y-33796630D01*
X28415337Y-33718744D01*
X28378429Y-33659469D01*
X28358218Y-33623451D01*
X28355299Y-33615377D01*
X28367847Y-33596584D01*
X28402537Y-33556457D01*
X28454937Y-33499493D01*
X28520616Y-33430185D01*
X28595144Y-33353031D01*
X28674087Y-33272525D01*
X28753017Y-33193163D01*
X28827500Y-33119440D01*
X28893106Y-33055852D01*
X28945404Y-33006894D01*
X28979961Y-32977061D01*
X28991522Y-32969942D01*
X29010346Y-32979953D01*
X29055369Y-33008078D01*
X29122213Y-33051454D01*
X29206501Y-33107218D01*
X29303856Y-33172506D01*
X29377293Y-33222246D01*
X29748333Y-33474551D01*
X30366905Y-33219555D01*
X30450725Y-32774931D01*
X30534546Y-32330307D01*
X31459994Y-32330307D01*
X31543814Y-32774931D01*
X31543814Y-32774931D01*
G37*
X31543814Y-32774931D02*
X31627635Y-33219555D01*
X31936920Y-33347053D01*
X32246206Y-33474551D01*
X32617246Y-33222246D01*
X32721157Y-33151996D01*
X32815087Y-33089272D01*
X32894652Y-33036938D01*
X32955470Y-32997857D01*
X32993157Y-32974893D01*
X33003421Y-32969942D01*
X33021910Y-32982676D01*
X33061420Y-33017882D01*
X33117522Y-33071062D01*
X33185787Y-33137718D01*
X33261786Y-33213354D01*
X33341092Y-33293472D01*
X33419275Y-33373574D01*
X33491907Y-33449164D01*
X33554559Y-33515745D01*
X33602803Y-33568818D01*
X33632210Y-33603887D01*
X33639241Y-33615623D01*
X33629123Y-33637260D01*
X33600759Y-33684662D01*
X33557129Y-33753193D01*
X33501218Y-33838215D01*
X33436006Y-33935093D01*
X33398219Y-33990350D01*
X33329343Y-34091248D01*
X33268140Y-34182299D01*
X33217578Y-34258970D01*
X33180628Y-34316728D01*
X33160258Y-34351043D01*
X33157197Y-34358254D01*
X33164136Y-34378748D01*
X33183051Y-34426513D01*
X33211087Y-34494832D01*
X33245391Y-34576989D01*
X33283109Y-34666270D01*
X33321387Y-34755958D01*
X33357370Y-34839338D01*
X33388206Y-34909694D01*
X33411039Y-34960310D01*
X33423017Y-34984471D01*
X33423724Y-34985422D01*
X33442531Y-34990036D01*
X33492618Y-35000328D01*
X33568793Y-35015287D01*
X33665865Y-35033901D01*
X33778643Y-35055159D01*
X33844442Y-35067418D01*
X33964950Y-35090362D01*
X34073797Y-35112195D01*
X34165476Y-35131722D01*
X34234481Y-35147748D01*
X34275304Y-35159079D01*
X34283511Y-35162674D01*
X34291548Y-35187006D01*
X34298033Y-35241959D01*
X34302970Y-35321108D01*
X34306364Y-35418026D01*
X34308218Y-35526287D01*
X34308538Y-35639465D01*
X34307327Y-35751135D01*
X34304590Y-35854868D01*
X34300331Y-35944241D01*
X34294555Y-36012826D01*
X34287267Y-36054197D01*
X34282895Y-36062810D01*
X34256764Y-36073133D01*
X34201393Y-36087892D01*
X34124107Y-36105352D01*
X34032230Y-36123780D01*
X34000158Y-36129741D01*
X33845524Y-36158066D01*
X33723375Y-36180876D01*
X33629673Y-36199080D01*
X33560384Y-36213583D01*
X33511471Y-36225292D01*
X33478897Y-36235115D01*
X33458628Y-36243956D01*
X33446626Y-36252724D01*
X33444947Y-36254457D01*
X33428184Y-36282371D01*
X33402614Y-36336695D01*
X33370788Y-36410777D01*
X33335260Y-36497965D01*
X33298583Y-36591608D01*
X33263311Y-36685052D01*
X33231996Y-36771647D01*
X33207193Y-36844740D01*
X33191454Y-36897678D01*
X33187332Y-36923811D01*
X33187676Y-36924726D01*
X33201641Y-36946086D01*
X33233322Y-36993084D01*
X33279391Y-37060827D01*
X33336518Y-37144423D01*
X33401373Y-37238982D01*
X33419843Y-37265854D01*
X33485699Y-37363275D01*
X33543650Y-37452163D01*
X33590538Y-37527412D01*
X33623207Y-37583920D01*
X33638500Y-37616581D01*
X33639241Y-37620593D01*
X33626392Y-37641684D01*
X33590888Y-37683464D01*
X33537293Y-37741445D01*
X33470171Y-37811135D01*
X33394087Y-37888045D01*
X33313604Y-37967683D01*
X33233287Y-38045561D01*
X33157699Y-38117186D01*
X33091405Y-38178070D01*
X33038969Y-38223721D01*
X33004955Y-38249650D01*
X32995545Y-38253883D01*
X32973643Y-38243912D01*
X32928800Y-38217020D01*
X32868321Y-38177736D01*
X32821789Y-38146117D01*
X32737475Y-38088098D01*
X32637626Y-38019784D01*
X32537473Y-37951579D01*
X32483627Y-37915075D01*
X32301371Y-37791800D01*
X32148381Y-37874520D01*
X32078682Y-37910759D01*
X32019414Y-37938926D01*
X31979311Y-37954991D01*
X31969103Y-37957226D01*
X31956829Y-37940722D01*
X31932613Y-37894082D01*
X31898263Y-37821609D01*
X31855588Y-37727606D01*
X31806394Y-37616374D01*
X31752490Y-37492215D01*
X31695684Y-37359432D01*
X31637782Y-37222327D01*
X31580593Y-37085202D01*
X31525924Y-36952358D01*
X31475584Y-36828098D01*
X31431380Y-36716725D01*
X31395119Y-36622539D01*
X31368609Y-36549844D01*
X31353658Y-36502941D01*
X31351254Y-36486833D01*
X31370311Y-36466286D01*
X31412036Y-36432933D01*
X31467706Y-36393702D01*
X31472378Y-36390599D01*
X31616264Y-36275423D01*
X31732283Y-36141053D01*
X31819430Y-35991784D01*
X31876699Y-35831913D01*
X31903086Y-35665737D01*
X31897585Y-35497552D01*
X31859190Y-35331655D01*
X31786895Y-35172342D01*
X31765626Y-35137487D01*
X31654996Y-34996737D01*
X31524302Y-34883714D01*
X31378064Y-34799003D01*
X31220808Y-34743194D01*
X31057057Y-34716874D01*
X30891333Y-34720630D01*
X30728162Y-34755050D01*
X30572065Y-34820723D01*
X30427567Y-34918235D01*
X30382869Y-34957813D01*
X30269112Y-35081703D01*
X30186218Y-35212124D01*
X30129356Y-35358315D01*
X30097687Y-35503088D01*
X30089869Y-35665860D01*
X30115938Y-35829440D01*
X30173245Y-35988298D01*
X30259144Y-36136906D01*
X30370986Y-36269735D01*
X30506123Y-36381256D01*
X30523883Y-36393011D01*
X30580150Y-36431508D01*
X30622923Y-36464863D01*
X30643372Y-36486160D01*
X30643669Y-36486833D01*
X30639279Y-36509871D01*
X30621876Y-36562157D01*
X30593268Y-36639390D01*
X30555265Y-36737268D01*
X30509674Y-36851491D01*
X30458303Y-36977758D01*
X30402962Y-37111767D01*
X30345458Y-37249218D01*
X30287601Y-37385808D01*
X30231198Y-37517237D01*
X30178058Y-37639205D01*
X30129990Y-37747409D01*
X30088801Y-37837549D01*
X30056301Y-37905323D01*
X30034297Y-37946430D01*
X30025436Y-37957226D01*
X29998360Y-37948819D01*
X29947697Y-37926272D01*
X29882183Y-37893613D01*
X29846159Y-37874520D01*
X29693168Y-37791800D01*
X29510912Y-37915075D01*
X29417875Y-37978228D01*
X29316015Y-38047727D01*
X29220562Y-38113165D01*
X29172750Y-38146117D01*
X29105505Y-38191273D01*
X29048564Y-38227057D01*
X29009354Y-38248938D01*
X28996619Y-38253563D01*
X28978083Y-38241085D01*
X28937059Y-38206252D01*
X28877525Y-38152678D01*
X28803458Y-38083983D01*
X28718835Y-38003781D01*
X28665315Y-37952286D01*
X28571681Y-37860286D01*
X28490759Y-37777999D01*
X28425823Y-37708945D01*
X28380142Y-37656644D01*
X28356989Y-37624616D01*
X28354768Y-37618116D01*
X28365076Y-37593394D01*
X28393561Y-37543405D01*
X28437063Y-37473212D01*
X28492423Y-37387875D01*
X28556480Y-37292456D01*
X28574697Y-37265854D01*
X28641073Y-37169167D01*
X28700622Y-37082117D01*
X28750016Y-37009595D01*
X28785925Y-36956493D01*
X28805019Y-36927703D01*
X28806864Y-36924726D01*
X28804105Y-36901782D01*
X28789462Y-36851336D01*
X28765487Y-36780041D01*
X28734734Y-36694547D01*
X28699756Y-36601507D01*
X28663107Y-36507574D01*
X28627339Y-36419399D01*
X28595006Y-36343634D01*
X28568662Y-36286931D01*
X28550858Y-36255943D01*
X28549593Y-36254457D01*
X28538706Y-36245601D01*
X28520318Y-36236843D01*
X28490394Y-36227277D01*
X28444897Y-36215996D01*
X28379791Y-36202093D01*
X28291039Y-36184663D01*
X28174607Y-36162798D01*
X28026458Y-36135591D01*
X27994382Y-36129741D01*
X27899314Y-36111374D01*
X27816435Y-36093405D01*
X27753070Y-36077569D01*
X27716542Y-36065600D01*
X27711644Y-36062810D01*
X27703573Y-36038072D01*
X27697013Y-35982790D01*
X27691967Y-35903389D01*
X27688441Y-35806296D01*
X27686439Y-35697938D01*
X27685964Y-35584740D01*
X27687023Y-35473128D01*
X27689618Y-35369529D01*
X27693754Y-35280368D01*
X27699437Y-35212072D01*
X27706669Y-35171066D01*
X27711029Y-35162674D01*
X27735302Y-35154208D01*
X27790574Y-35140435D01*
X27871338Y-35122550D01*
X27972088Y-35101748D01*
X28087317Y-35079223D01*
X28150098Y-35067418D01*
X28269213Y-35045151D01*
X28375435Y-35024979D01*
X28463573Y-35007915D01*
X28528434Y-34994969D01*
X28564826Y-34987155D01*
X28570816Y-34985422D01*
X28580939Y-34965890D01*
X28602338Y-34918843D01*
X28632161Y-34851003D01*
X28667555Y-34769091D01*
X28705668Y-34679828D01*
X28743647Y-34589935D01*
X28778640Y-34506135D01*
X28807794Y-34435147D01*
X28828257Y-34383694D01*
X28837177Y-34358497D01*
X28837343Y-34357396D01*
X28827231Y-34337519D01*
X28798883Y-34291777D01*
X28755277Y-34224717D01*
X28699394Y-34140884D01*
X28634213Y-34044826D01*
X28596321Y-33989650D01*
X28527275Y-33888481D01*
X28465950Y-33796630D01*
X28415337Y-33718744D01*
X28378429Y-33659469D01*
X28358218Y-33623451D01*
X28355299Y-33615377D01*
X28367847Y-33596584D01*
X28402537Y-33556457D01*
X28454937Y-33499493D01*
X28520616Y-33430185D01*
X28595144Y-33353031D01*
X28674087Y-33272525D01*
X28753017Y-33193163D01*
X28827500Y-33119440D01*
X28893106Y-33055852D01*
X28945404Y-33006894D01*
X28979961Y-32977061D01*
X28991522Y-32969942D01*
X29010346Y-32979953D01*
X29055369Y-33008078D01*
X29122213Y-33051454D01*
X29206501Y-33107218D01*
X29303856Y-33172506D01*
X29377293Y-33222246D01*
X29748333Y-33474551D01*
X30366905Y-33219555D01*
X30450725Y-32774931D01*
X30534546Y-32330307D01*
X31459994Y-32330307D01*
X31543814Y-32774931D01*
D14*
X50990000Y-36837221D02*
X50990000Y-37162779D01*
X52010000Y-36837221D02*
X52010000Y-37162779D01*
X56010000Y-36837221D02*
X56010000Y-37162779D01*
X54990000Y-36837221D02*
X54990000Y-37162779D01*
X60110000Y-36837221D02*
X60110000Y-37162779D01*
X59090000Y-36837221D02*
X59090000Y-37162779D01*
X56490000Y-36837221D02*
X56490000Y-37162779D01*
X57510000Y-36837221D02*
X57510000Y-37162779D01*
X53510000Y-36837221D02*
X53510000Y-37162779D01*
X52490000Y-36837221D02*
X52490000Y-37162779D01*
D15*
X44017981Y-90000D02*
G75*
G03X44017981Y-90000I-283981J0D01*
G01*
D11*
X62640000Y56000D02*
X44640000Y56000D01*
X44640000Y6056000D02*
X44640000Y-19444000D01*
X62640000Y6056000D02*
X62640000Y-19444000D01*
X62640000Y-19444000D02*
X44640000Y-19444000D01*
X62640000Y6056000D02*
X44640000Y6056000D01*
D14*
X71180000Y-71180000D02*
X69850000Y-71180000D01*
X71180000Y-69850000D02*
X71180000Y-71180000D01*
X68580000Y-71180000D02*
X65980000Y-71180000D01*
X68580000Y-68580000D02*
X68580000Y-71180000D01*
X71180000Y-68580000D02*
X68580000Y-68580000D01*
X65980000Y-71180000D02*
X65980000Y-48200000D01*
X71180000Y-68580000D02*
X71180000Y-48200000D01*
X71180000Y-48200000D02*
X65980000Y-48200000D01*
X34446000Y-63120000D02*
X34446000Y-66420000D01*
X34446000Y-66420000D02*
X39846000Y-66420000D01*
X34446000Y-63120000D02*
X39846000Y-63120000D01*
X65980000Y-35620000D02*
X71180000Y-35620000D01*
X65980000Y-10160000D02*
X65980000Y-35620000D01*
X71180000Y-7560000D02*
X71180000Y-35620000D01*
X65980000Y-10160000D02*
X68580000Y-10160000D01*
X68580000Y-10160000D02*
X68580000Y-7560000D01*
X68580000Y-7560000D02*
X71180000Y-7560000D01*
X65980000Y-8890000D02*
X65980000Y-7560000D01*
X65980000Y-7560000D02*
X67310000Y-7560000D01*
X22990000Y130000D02*
X10160000Y130000D01*
X22990000Y-20450000D02*
X22990000Y130000D01*
X7490000Y-20450000D02*
X22990000Y-20450000D01*
X7490000Y-2540000D02*
X7490000Y-20450000D01*
X10160000Y-2540000D02*
X7490000Y-2540000D01*
X10160000Y130000D02*
X10160000Y-2540000D01*
X7490000Y130000D02*
X7490000Y-1270000D01*
X8890000Y130000D02*
X7490000Y130000D01*
X10160000Y-2540000D02*
X10160000Y-20450000D01*
X20320000Y130000D02*
X20320000Y-20450000D01*
X20320000Y-60830000D02*
X20320000Y-81410000D01*
X10160000Y-63500000D02*
X10160000Y-81410000D01*
X8890000Y-60830000D02*
X7490000Y-60830000D01*
X7490000Y-60830000D02*
X7490000Y-62230000D01*
X10160000Y-60830000D02*
X10160000Y-63500000D01*
X10160000Y-63500000D02*
X7490000Y-63500000D01*
X7490000Y-63500000D02*
X7490000Y-81410000D01*
X7490000Y-81410000D02*
X22990000Y-81410000D01*
X22990000Y-81410000D02*
X22990000Y-60830000D01*
X22990000Y-60830000D02*
X10160000Y-60830000D01*
X20320000Y-20190000D02*
X20320000Y-40770000D01*
X10160000Y-22860000D02*
X10160000Y-40770000D01*
X8890000Y-20190000D02*
X7490000Y-20190000D01*
X7490000Y-20190000D02*
X7490000Y-21590000D01*
X10160000Y-20190000D02*
X10160000Y-22860000D01*
X10160000Y-22860000D02*
X7490000Y-22860000D01*
X7490000Y-22860000D02*
X7490000Y-40770000D01*
X7490000Y-40770000D02*
X22990000Y-40770000D01*
X22990000Y-40770000D02*
X22990000Y-20190000D01*
X22990000Y-20190000D02*
X10160000Y-20190000D01*
X22990000Y-81150000D02*
X10160000Y-81150000D01*
X22990000Y-101730000D02*
X22990000Y-81150000D01*
X7490000Y-101730000D02*
X22990000Y-101730000D01*
X7490000Y-83820000D02*
X7490000Y-101730000D01*
X10160000Y-83820000D02*
X7490000Y-83820000D01*
X10160000Y-81150000D02*
X10160000Y-83820000D01*
X7490000Y-81150000D02*
X7490000Y-82550000D01*
X8890000Y-81150000D02*
X7490000Y-81150000D01*
X10160000Y-83820000D02*
X10160000Y-101730000D01*
X20320000Y-81150000D02*
X20320000Y-101730000D01*
X20320000Y-40510000D02*
X20320000Y-61090000D01*
X10160000Y-43180000D02*
X10160000Y-61090000D01*
X8890000Y-40510000D02*
X7490000Y-40510000D01*
X7490000Y-40510000D02*
X7490000Y-41910000D01*
X10160000Y-40510000D02*
X10160000Y-43180000D01*
X10160000Y-43180000D02*
X7490000Y-43180000D01*
X7490000Y-43180000D02*
X7490000Y-61090000D01*
X7490000Y-61090000D02*
X22990000Y-61090000D01*
X22990000Y-61090000D02*
X22990000Y-40510000D01*
X22990000Y-40510000D02*
X10160000Y-40510000D01*
X27992000Y-18537422D02*
X27992000Y-19054578D01*
X29412000Y-18537422D02*
X29412000Y-19054578D01*
X27180000Y-18958779D02*
X27180000Y-18633221D01*
X26160000Y-18958779D02*
X26160000Y-18633221D01*
X34490000Y-49087221D02*
X34490000Y-49412779D01*
X35510000Y-49087221D02*
X35510000Y-49412779D01*
X35510000Y-43374721D02*
X35510000Y-43700279D01*
X34490000Y-43374721D02*
X34490000Y-43700279D01*
X54710000Y-55249721D02*
X54710000Y-55575279D01*
X53690000Y-55249721D02*
X53690000Y-55575279D01*
X53690000Y-50924721D02*
X53690000Y-51250279D01*
X54710000Y-50924721D02*
X54710000Y-51250279D01*
X33984000Y-29967422D02*
X33984000Y-30484578D01*
X32564000Y-29967422D02*
X32564000Y-30484578D01*
X29466000Y-30063221D02*
X29466000Y-30388779D01*
X28446000Y-30063221D02*
X28446000Y-30388779D01*
X37540000Y-30484578D02*
X37540000Y-29967422D01*
X36120000Y-30484578D02*
X36120000Y-29967422D01*
X37975000Y-39761279D02*
X37975000Y-39435721D01*
X36955000Y-39761279D02*
X36955000Y-39435721D01*
X39676000Y-30484578D02*
X39676000Y-29967422D01*
X41096000Y-30484578D02*
X41096000Y-29967422D01*
X33834000Y-59186578D02*
X33834000Y-58669422D01*
X35254000Y-59186578D02*
X35254000Y-58669422D01*
X48208000Y-52582578D02*
X48208000Y-52065422D01*
X46788000Y-52582578D02*
X46788000Y-52065422D01*
X32968000Y-59186578D02*
X32968000Y-58669422D01*
X31548000Y-59186578D02*
X31548000Y-58669422D01*
X40850078Y-56082000D02*
X40332922Y-56082000D01*
X40850078Y-54662000D02*
X40332922Y-54662000D01*
X54210000Y-67138500D02*
X51860000Y-67138500D01*
X47390000Y-67138500D02*
X49740000Y-67138500D01*
X47390000Y-72894063D02*
X47390000Y-67138500D01*
X54210000Y-72894063D02*
X54210000Y-67138500D01*
X53145563Y-73958500D02*
X51860000Y-73958500D01*
X48454437Y-73958500D02*
X49740000Y-73958500D01*
X48454437Y-73958500D02*
X47390000Y-72894063D01*
X53145563Y-73958500D02*
X54210000Y-72894063D01*
X48952500Y-74986000D02*
X48952500Y-74198500D01*
X48558750Y-74592250D02*
X49346250Y-74592250D01*
X41908000Y-64678779D02*
X41908000Y-64353221D01*
X42928000Y-64678779D02*
X42928000Y-64353221D01*
X46572000Y-62389936D02*
X46572000Y-63594064D01*
X43852000Y-62389936D02*
X43852000Y-63594064D01*
X12998750Y-8615750D02*
X13786250Y-8615750D01*
X13392500Y-9009500D02*
X13392500Y-8222000D01*
X17585563Y-7982000D02*
X18650000Y-6917563D01*
X12894437Y-7982000D02*
X11830000Y-6917563D01*
X12894437Y-7982000D02*
X14180000Y-7982000D01*
X17585563Y-7982000D02*
X16300000Y-7982000D01*
X18650000Y-6917563D02*
X18650000Y-1162000D01*
X11830000Y-6917563D02*
X11830000Y-1162000D01*
X11830000Y-1162000D02*
X14180000Y-1162000D01*
X18650000Y-1162000D02*
X16300000Y-1162000D01*
X18650000Y-41802000D02*
X16300000Y-41802000D01*
X11830000Y-41802000D02*
X14180000Y-41802000D01*
X11830000Y-47557563D02*
X11830000Y-41802000D01*
X18650000Y-47557563D02*
X18650000Y-41802000D01*
X17585563Y-48622000D02*
X16300000Y-48622000D01*
X12894437Y-48622000D02*
X14180000Y-48622000D01*
X12894437Y-48622000D02*
X11830000Y-47557563D01*
X17585563Y-48622000D02*
X18650000Y-47557563D01*
X13392500Y-49649500D02*
X13392500Y-48862000D01*
X12998750Y-49255750D02*
X13786250Y-49255750D01*
X18904000Y-21482000D02*
X16554000Y-21482000D01*
X12084000Y-21482000D02*
X14434000Y-21482000D01*
X12084000Y-27237563D02*
X12084000Y-21482000D01*
X18904000Y-27237563D02*
X18904000Y-21482000D01*
X17839563Y-28302000D02*
X16554000Y-28302000D01*
X13148437Y-28302000D02*
X14434000Y-28302000D01*
X13148437Y-28302000D02*
X12084000Y-27237563D01*
X17839563Y-28302000D02*
X18904000Y-27237563D01*
X13646500Y-29329500D02*
X13646500Y-28542000D01*
X13252750Y-28935750D02*
X14040250Y-28935750D01*
X12998750Y-69575750D02*
X13786250Y-69575750D01*
X13392500Y-69969500D02*
X13392500Y-69182000D01*
X17585563Y-68942000D02*
X18650000Y-67877563D01*
X12894437Y-68942000D02*
X11830000Y-67877563D01*
X12894437Y-68942000D02*
X14180000Y-68942000D01*
X17585563Y-68942000D02*
X16300000Y-68942000D01*
X18650000Y-67877563D02*
X18650000Y-62122000D01*
X11830000Y-67877563D02*
X11830000Y-62122000D01*
X11830000Y-62122000D02*
X14180000Y-62122000D01*
X18650000Y-62122000D02*
X16300000Y-62122000D01*
X12998750Y-89895750D02*
X13786250Y-89895750D01*
X13392500Y-90289500D02*
X13392500Y-89502000D01*
X17585563Y-89262000D02*
X18650000Y-88197563D01*
X12894437Y-89262000D02*
X11830000Y-88197563D01*
X12894437Y-89262000D02*
X14180000Y-89262000D01*
X17585563Y-89262000D02*
X16300000Y-89262000D01*
X18650000Y-88197563D02*
X18650000Y-82442000D01*
X11830000Y-88197563D02*
X11830000Y-82442000D01*
X11830000Y-82442000D02*
X14180000Y-82442000D01*
X18650000Y-82442000D02*
X16300000Y-82442000D01*
X35270221Y-16508000D02*
X35595779Y-16508000D01*
X35270221Y-17528000D02*
X35595779Y-17528000D01*
X65010000Y-67087221D02*
X65010000Y-67412779D01*
X63990000Y-67087221D02*
X63990000Y-67412779D01*
X59855000Y-74576000D02*
X57570000Y-74576000D01*
X57570000Y-74576000D02*
X57570000Y-76046000D01*
X57570000Y-76046000D02*
X59855000Y-76046000D01*
X70302000Y-88884000D02*
X70302000Y-86199000D01*
X70302000Y-86199000D02*
X68382000Y-86199000D01*
X68382000Y-86199000D02*
X68382000Y-88884000D01*
X65842000Y-86199000D02*
X65842000Y-88884000D01*
X67762000Y-86199000D02*
X65842000Y-86199000D01*
X67762000Y-88884000D02*
X67762000Y-86199000D01*
X58255000Y-80999000D02*
X60540000Y-80999000D01*
X60540000Y-80999000D02*
X60540000Y-79529000D01*
X60540000Y-79529000D02*
X58255000Y-79529000D01*
X60540000Y-77878000D02*
X58255000Y-77878000D01*
X60540000Y-79348000D02*
X60540000Y-77878000D01*
X58255000Y-79348000D02*
X60540000Y-79348000D01*
X52140000Y-78870000D02*
X54540000Y-78870000D01*
X52140000Y-76070000D02*
X54540000Y-76070000D01*
X52140000Y-81150000D02*
X54540000Y-81150000D01*
X52140000Y-83950000D02*
X54540000Y-83950000D01*
X17840000Y-10100000D02*
X12640000Y-10100000D01*
X17840000Y-15240000D02*
X17840000Y-10100000D01*
X12640000Y-17840000D02*
X12640000Y-10100000D01*
X17840000Y-15240000D02*
X15240000Y-15240000D01*
X15240000Y-15240000D02*
X15240000Y-17840000D01*
X15240000Y-17840000D02*
X12640000Y-17840000D01*
X17840000Y-16510000D02*
X17840000Y-17840000D01*
X17840000Y-17840000D02*
X16510000Y-17840000D01*
X17840000Y-78800000D02*
X16510000Y-78800000D01*
X17840000Y-77470000D02*
X17840000Y-78800000D01*
X15240000Y-78800000D02*
X12640000Y-78800000D01*
X15240000Y-76200000D02*
X15240000Y-78800000D01*
X17840000Y-76200000D02*
X15240000Y-76200000D01*
X12640000Y-78800000D02*
X12640000Y-71060000D01*
X17840000Y-76200000D02*
X17840000Y-71060000D01*
X17840000Y-71060000D02*
X12640000Y-71060000D01*
X5140000Y-8830000D02*
X3870000Y-8830000D01*
X5140000Y-10160000D02*
X5140000Y-8830000D01*
X2540000Y-8830000D02*
X5140000Y-8830000D01*
X5140000Y-8830000D02*
X5140000Y-11430000D01*
X-60000Y-8830000D02*
X2540000Y-8830000D01*
X-60000Y-19110000D02*
X-60000Y-8830000D01*
X5140000Y-19110000D02*
X-60000Y-19110000D01*
X5140000Y-11430000D02*
X5140000Y-19110000D01*
X5140000Y-65980000D02*
X3870000Y-65980000D01*
X5140000Y-67310000D02*
X5140000Y-65980000D01*
X2540000Y-65980000D02*
X5140000Y-65980000D01*
X5140000Y-65980000D02*
X5140000Y-68580000D01*
X-60000Y-65980000D02*
X2540000Y-65980000D01*
X-60000Y-76260000D02*
X-60000Y-65980000D01*
X5140000Y-76260000D02*
X-60000Y-76260000D01*
X5140000Y-68580000D02*
X5140000Y-76260000D01*
X17840000Y-38160000D02*
X16510000Y-38160000D01*
X17840000Y-36830000D02*
X17840000Y-38160000D01*
X15240000Y-38160000D02*
X12640000Y-38160000D01*
X15240000Y-35560000D02*
X15240000Y-38160000D01*
X17840000Y-35560000D02*
X15240000Y-35560000D01*
X12640000Y-38160000D02*
X12640000Y-30420000D01*
X17840000Y-35560000D02*
X17840000Y-30420000D01*
X17840000Y-30420000D02*
X12640000Y-30420000D01*
X17840000Y-91380000D02*
X12640000Y-91380000D01*
X17840000Y-96520000D02*
X17840000Y-91380000D01*
X12640000Y-99120000D02*
X12640000Y-91380000D01*
X17840000Y-96520000D02*
X15240000Y-96520000D01*
X15240000Y-96520000D02*
X15240000Y-99120000D01*
X15240000Y-99120000D02*
X12640000Y-99120000D01*
X17840000Y-97790000D02*
X17840000Y-99120000D01*
X17840000Y-99120000D02*
X16510000Y-99120000D01*
X5140000Y-25340000D02*
X3870000Y-25340000D01*
X5140000Y-26670000D02*
X5140000Y-25340000D01*
X2540000Y-25340000D02*
X5140000Y-25340000D01*
X5140000Y-25340000D02*
X5140000Y-27940000D01*
X-60000Y-25340000D02*
X2540000Y-25340000D01*
X-60000Y-35620000D02*
X-60000Y-25340000D01*
X5140000Y-35620000D02*
X-60000Y-35620000D01*
X5140000Y-27940000D02*
X5140000Y-35620000D01*
X5140000Y-85090000D02*
X5140000Y-92770000D01*
X5140000Y-92770000D02*
X-60000Y-92770000D01*
X-60000Y-92770000D02*
X-60000Y-82490000D01*
X-60000Y-82490000D02*
X2540000Y-82490000D01*
X5140000Y-82490000D02*
X5140000Y-85090000D01*
X2540000Y-82490000D02*
X5140000Y-82490000D01*
X5140000Y-83820000D02*
X5140000Y-82490000D01*
X5140000Y-82490000D02*
X3870000Y-82490000D01*
X17840000Y-58480000D02*
X16510000Y-58480000D01*
X17840000Y-57150000D02*
X17840000Y-58480000D01*
X15240000Y-58480000D02*
X12640000Y-58480000D01*
X15240000Y-55880000D02*
X15240000Y-58480000D01*
X17840000Y-55880000D02*
X15240000Y-55880000D01*
X12640000Y-58480000D02*
X12640000Y-50740000D01*
X17840000Y-55880000D02*
X17840000Y-50740000D01*
X17840000Y-50740000D02*
X12640000Y-50740000D01*
X5140000Y-48260000D02*
X5140000Y-55940000D01*
X5140000Y-55940000D02*
X-60000Y-55940000D01*
X-60000Y-55940000D02*
X-60000Y-45660000D01*
X-60000Y-45660000D02*
X2540000Y-45660000D01*
X5140000Y-45660000D02*
X5140000Y-48260000D01*
X2540000Y-45660000D02*
X5140000Y-45660000D01*
X5140000Y-46990000D02*
X5140000Y-45660000D01*
X5140000Y-45660000D02*
X3870000Y-45660000D01*
X30220000Y-13810000D02*
X27220000Y-13810000D01*
X25670000Y-12810000D02*
X25670000Y-5510000D01*
X25670000Y-2810000D02*
X25670000Y690000D01*
X31750000Y-10000D02*
X40370000Y-10000D01*
X40370000Y-10000D02*
X40370000Y-2810000D01*
X40370000Y-5510000D02*
X40370000Y-12810000D01*
X29470000Y690000D02*
X31750000Y-10000D01*
X25670000Y690000D02*
X29470000Y690000D01*
X65595500Y-83344500D02*
X67564000Y-83344500D01*
X65595500Y-74154500D02*
X67564000Y-74154500D01*
X69580000Y-83344500D02*
X71150500Y-83344500D01*
X69580000Y-74154500D02*
X71150500Y-74154500D01*
X61740500Y-83224500D02*
X61740500Y-74274500D01*
X71150500Y-83344500D02*
X71150500Y-74154500D01*
D16*
X52641500Y-101473000D02*
X65341500Y-101473000D01*
X52641500Y-88973660D02*
X52641500Y-101473000D01*
X65341500Y-88973660D02*
X65341500Y-101473000D01*
X65331340Y-88973660D02*
X52671980Y-88973660D01*
D14*
X24070000Y-72450000D02*
X26730000Y-72450000D01*
X24070000Y-72390000D02*
X24070000Y-72450000D01*
X26730000Y-72390000D02*
X26730000Y-72450000D01*
X24070000Y-72390000D02*
X26730000Y-72390000D01*
X24070000Y-71120000D02*
X24070000Y-69790000D01*
X24070000Y-69790000D02*
X25400000Y-69790000D01*
X31690000Y-69790000D02*
X33020000Y-69790000D01*
X31690000Y-71120000D02*
X31690000Y-69790000D01*
X31690000Y-72390000D02*
X34350000Y-72390000D01*
X34350000Y-72390000D02*
X34350000Y-72450000D01*
X31690000Y-72390000D02*
X31690000Y-72450000D01*
X31690000Y-72450000D02*
X34350000Y-72450000D01*
X39310000Y-72450000D02*
X41970000Y-72450000D01*
X39310000Y-72390000D02*
X39310000Y-72450000D01*
X41970000Y-72390000D02*
X41970000Y-72450000D01*
X39310000Y-72390000D02*
X41970000Y-72390000D01*
X39310000Y-71120000D02*
X39310000Y-69790000D01*
X39310000Y-69790000D02*
X40640000Y-69790000D01*
X27199087Y-99221385D02*
G75*
G02X26591500Y-99345000I-607587J1431385D01*
G01*
X28023609Y-97182258D02*
G75*
G02X28023500Y-98398000I-1432109J-607742D01*
G01*
X25983758Y-96357891D02*
G75*
G02X27199500Y-96358000I607742J-1432109D01*
G01*
X25159391Y-98397742D02*
G75*
G02X25159500Y-97182000I1432109J607742D01*
G01*
X26618511Y-99345492D02*
G75*
G02X25983500Y-99222000I-27011J1555492D01*
G01*
X31646500Y-97790000D02*
G75*
G03X31646500Y-97790000I-1555000J0D01*
G01*
X24431500Y-99890000D02*
X32251500Y-99890000D01*
X24431500Y-94330000D02*
X32251500Y-94330000D01*
X24431500Y-101450000D02*
X32251500Y-101450000D01*
X24431500Y-94330000D02*
X24431500Y-101450000D01*
X32251500Y-94330000D02*
X32251500Y-101450000D01*
X24191500Y-99950000D02*
X24191500Y-101690000D01*
X24191500Y-101690000D02*
X25691500Y-101690000D01*
X31191500Y-101690000D02*
X32691500Y-101690000D01*
X31191500Y-99950000D02*
X31191500Y-101690000D01*
X39251500Y-94330000D02*
X39251500Y-101450000D01*
X31431500Y-94330000D02*
X31431500Y-101450000D01*
X31431500Y-101450000D02*
X39251500Y-101450000D01*
X31431500Y-94330000D02*
X39251500Y-94330000D01*
X31431500Y-99890000D02*
X39251500Y-99890000D01*
X38646500Y-97790000D02*
G75*
G03X38646500Y-97790000I-1555000J0D01*
G01*
X33618511Y-99345492D02*
G75*
G02X32983500Y-99222000I-27011J1555492D01*
G01*
X32159391Y-98397742D02*
G75*
G02X32159500Y-97182000I1432109J607742D01*
G01*
X32983758Y-96357891D02*
G75*
G02X34199500Y-96358000I607742J-1432109D01*
G01*
X35023609Y-97182258D02*
G75*
G02X35023500Y-98398000I-1432109J-607742D01*
G01*
X34199087Y-99221385D02*
G75*
G02X33591500Y-99345000I-607587J1431385D01*
G01*
D16*
X52631340Y-88973660D02*
X39971980Y-88973660D01*
X52641500Y-88973660D02*
X52641500Y-101473000D01*
X39941500Y-88973660D02*
X39941500Y-101473000D01*
X39941500Y-101473000D02*
X52641500Y-101473000D01*
D14*
X40700000Y-28000000D02*
X40700000Y-22800000D01*
X35560000Y-28000000D02*
X40700000Y-28000000D01*
X32960000Y-22800000D02*
X40700000Y-22800000D01*
X35560000Y-28000000D02*
X35560000Y-25400000D01*
X35560000Y-25400000D02*
X32960000Y-25400000D01*
X32960000Y-25400000D02*
X32960000Y-22800000D01*
X34290000Y-28000000D02*
X32960000Y-28000000D01*
X32960000Y-28000000D02*
X32960000Y-26670000D01*
X71180000Y-40700000D02*
X71180000Y-38040000D01*
X66040000Y-40700000D02*
X71180000Y-40700000D01*
X66040000Y-38040000D02*
X71180000Y-38040000D01*
X66040000Y-40700000D02*
X66040000Y-38040000D01*
X64770000Y-40700000D02*
X63440000Y-40700000D01*
X63440000Y-40700000D02*
X63440000Y-39370000D01*
X63440000Y-43240000D02*
X63440000Y-41910000D01*
X64770000Y-43240000D02*
X63440000Y-43240000D01*
X66040000Y-43240000D02*
X66040000Y-40580000D01*
X66040000Y-40580000D02*
X71180000Y-40580000D01*
X66040000Y-43240000D02*
X71180000Y-43240000D01*
X71180000Y-43240000D02*
X71180000Y-40580000D01*
X71180000Y-45780000D02*
X71180000Y-43120000D01*
X66040000Y-45780000D02*
X71180000Y-45780000D01*
X66040000Y-43120000D02*
X71180000Y-43120000D01*
X66040000Y-45780000D02*
X66040000Y-43120000D01*
X64770000Y-45780000D02*
X63440000Y-45780000D01*
X63440000Y-45780000D02*
X63440000Y-44450000D01*
X52454000Y-57768000D02*
X54754000Y-57768000D01*
X54754000Y-57768000D02*
X54754000Y-65168000D01*
X54754000Y-65168000D02*
X52454000Y-65168000D01*
X49654000Y-65168000D02*
X47354000Y-65168000D01*
X47354000Y-65168000D02*
X47354000Y-57768000D01*
X47354000Y-57768000D02*
X49654000Y-57768000D01*
X61130000Y-41040000D02*
X61130000Y-42500000D01*
X57970000Y-41040000D02*
X57970000Y-43200000D01*
X57970000Y-41040000D02*
X58900000Y-41040000D01*
X61130000Y-41040000D02*
X60200000Y-41040000D01*
X57630000Y-41040000D02*
X56700000Y-41040000D01*
X54470000Y-41040000D02*
X55400000Y-41040000D01*
X54470000Y-41040000D02*
X54470000Y-43200000D01*
X57630000Y-41040000D02*
X57630000Y-42500000D01*
X31390000Y-77770000D02*
X31390000Y-76270000D01*
X31390000Y-76270000D02*
X31120000Y-76270000D01*
X31120000Y-76270000D02*
X31120000Y-73440000D01*
X24490000Y-77770000D02*
X24490000Y-76270000D01*
X24490000Y-76270000D02*
X24760000Y-76270000D01*
X24760000Y-76270000D02*
X24760000Y-75170000D01*
X32380000Y-76270000D02*
X32380000Y-75170000D01*
X32110000Y-76270000D02*
X32380000Y-76270000D01*
X32110000Y-77770000D02*
X32110000Y-76270000D01*
X38740000Y-76270000D02*
X38740000Y-73440000D01*
X39010000Y-76270000D02*
X38740000Y-76270000D01*
X39010000Y-77770000D02*
X39010000Y-76270000D01*
X46630000Y-77770000D02*
X46630000Y-76270000D01*
X46630000Y-76270000D02*
X46360000Y-76270000D01*
X46360000Y-76270000D02*
X46360000Y-73440000D01*
X39730000Y-77770000D02*
X39730000Y-76270000D01*
X39730000Y-76270000D02*
X40000000Y-76270000D01*
X40000000Y-76270000D02*
X40000000Y-75170000D01*
X55560000Y-26030779D02*
X55560000Y-25705221D01*
X54540000Y-26030779D02*
X54540000Y-25705221D01*
X64260000Y-26030779D02*
X64260000Y-25705221D01*
X63240000Y-26030779D02*
X63240000Y-25705221D01*
X34542000Y-30388779D02*
X34542000Y-30063221D01*
X35562000Y-30388779D02*
X35562000Y-30063221D01*
X27942000Y-30063221D02*
X27942000Y-30388779D01*
X26922000Y-30063221D02*
X26922000Y-30388779D01*
X39118000Y-30388779D02*
X39118000Y-30063221D01*
X38098000Y-30388779D02*
X38098000Y-30063221D01*
X41654000Y-30388779D02*
X41654000Y-30063221D01*
X42674000Y-30388779D02*
X42674000Y-30063221D01*
X61610000Y-36837221D02*
X61610000Y-37162779D01*
X60590000Y-36837221D02*
X60590000Y-37162779D01*
X66786879Y-6860000D02*
X66461321Y-6860000D01*
X66786879Y-5840000D02*
X66461321Y-5840000D01*
X69433221Y-5840000D02*
X69758779Y-5840000D01*
X69433221Y-6860000D02*
X69758779Y-6860000D01*
X68832000Y-92110779D02*
X68832000Y-91785221D01*
X69852000Y-92110779D02*
X69852000Y-91785221D01*
X65892000Y-93442064D02*
X65892000Y-92237936D01*
X67712000Y-93442064D02*
X67712000Y-92237936D01*
X46738000Y-58811279D02*
X46738000Y-58485721D01*
X45718000Y-58811279D02*
X45718000Y-58485721D01*
X44960000Y-58511221D02*
X44960000Y-58836779D01*
X43940000Y-58511221D02*
X43940000Y-58836779D01*
X16575721Y-19560000D02*
X16901279Y-19560000D01*
X16575721Y-18540000D02*
X16901279Y-18540000D01*
X16626721Y-80520000D02*
X16952279Y-80520000D01*
X16626721Y-79500000D02*
X16952279Y-79500000D01*
X13878779Y-19560000D02*
X13553221Y-19560000D01*
X13878779Y-18540000D02*
X13553221Y-18540000D01*
X13853279Y-79500000D02*
X13527721Y-79500000D01*
X13853279Y-80520000D02*
X13527721Y-80520000D01*
X16575721Y-39880000D02*
X16901279Y-39880000D01*
X16575721Y-38860000D02*
X16901279Y-38860000D01*
X16601221Y-99820000D02*
X16926779Y-99820000D01*
X16601221Y-100840000D02*
X16926779Y-100840000D01*
X13878779Y-38860000D02*
X13553221Y-38860000D01*
X13878779Y-39880000D02*
X13553221Y-39880000D01*
X13878779Y-100840000D02*
X13553221Y-100840000D01*
X13878779Y-99820000D02*
X13553221Y-99820000D01*
X16626721Y-59180000D02*
X16952279Y-59180000D01*
X16626721Y-60200000D02*
X16952279Y-60200000D01*
X13878779Y-59180000D02*
X13553221Y-59180000D01*
X13878779Y-60200000D02*
X13553221Y-60200000D01*
X58892221Y-81405000D02*
X59217779Y-81405000D01*
X58892221Y-82425000D02*
X59217779Y-82425000D01*
X58892221Y-76452000D02*
X59217779Y-76452000D01*
X58892221Y-77472000D02*
X59217779Y-77472000D01*
X58990000Y-26030779D02*
X58990000Y-25705221D01*
X60010000Y-26030779D02*
X60010000Y-25705221D01*
X60490000Y-26030779D02*
X60490000Y-25705221D01*
X61510000Y-26030779D02*
X61510000Y-25705221D01*
X56462779Y-44810000D02*
X56137221Y-44810000D01*
X56462779Y-43790000D02*
X56137221Y-43790000D01*
X59137221Y-43790000D02*
X59462779Y-43790000D01*
X59137221Y-44810000D02*
X59462779Y-44810000D01*
X50798000Y-26030779D02*
X50798000Y-25705221D01*
X51818000Y-26030779D02*
X51818000Y-25705221D01*
X54060000Y-26030779D02*
X54060000Y-25705221D01*
X53040000Y-26030779D02*
X53040000Y-25705221D01*
X56790000Y-26030779D02*
X56790000Y-25705221D01*
X57810000Y-26030779D02*
X57810000Y-25705221D01*
X29335000Y-71282779D02*
X29335000Y-70957221D01*
X30355000Y-71282779D02*
X30355000Y-70957221D01*
X27430000Y-71282779D02*
X27430000Y-70957221D01*
X28450000Y-71282779D02*
X28450000Y-70957221D01*
X38102000Y-71282779D02*
X38102000Y-70957221D01*
X37082000Y-71282779D02*
X37082000Y-70957221D01*
X36070000Y-71282779D02*
X36070000Y-70957221D01*
X35050000Y-71282779D02*
X35050000Y-70957221D01*
X44702000Y-71028779D02*
X44702000Y-70703221D01*
X45722000Y-71028779D02*
X45722000Y-70703221D01*
X43690000Y-71028779D02*
X43690000Y-70703221D01*
X42670000Y-71028779D02*
X42670000Y-70703221D01*
X40712000Y-42854000D02*
X47172000Y-42854000D01*
X40712000Y-38324000D02*
X40712000Y-40924000D01*
X40712000Y-36394000D02*
X47172000Y-36394000D01*
X47172000Y-38324000D02*
X47172000Y-40924000D01*
X40712000Y-36424000D02*
X40712000Y-36394000D01*
X40712000Y-42854000D02*
X40712000Y-42824000D01*
X47172000Y-42854000D02*
X47172000Y-42824000D01*
X47172000Y-36394000D02*
X47172000Y-36424000D01*
X59878000Y-31750000D02*
G75*
G03X59878000Y-31750000I-950000J0D01*
G01*
X62672000Y-31750000D02*
G75*
G03X62672000Y-31750000I-950000J0D01*
G01*
X54747200Y-48260000D02*
G75*
G03X54747200Y-48260000I-950000J0D01*
G01*
X50988000Y-53086000D02*
G75*
G03X50988000Y-53086000I-950000J0D01*
G01*
X33208000Y-62103000D02*
G75*
G03X33208000Y-62103000I-950000J0D01*
G01*
X50988000Y-55626000D02*
G75*
G03X50988000Y-55626000I-950000J0D01*
G01*
X33208000Y-64770000D02*
G75*
G03X33208000Y-64770000I-950000J0D01*
G01*
X61950000Y-22750000D02*
G75*
G03X61950000Y-22750000I-950000J0D01*
G01*
X59200000Y-22750000D02*
G75*
G03X59200000Y-22750000I-950000J0D01*
G01*
X61452800Y-46405800D02*
G75*
G03X61452800Y-46405800I-950000J0D01*
G01*
X53950000Y-42750000D02*
G75*
G03X53950000Y-42750000I-950000J0D01*
G01*
D11*
X26197000Y-42158000D02*
X32172000Y-42158000D01*
X27772000Y-47683000D02*
X32172000Y-47683000D01*
X26197000Y-48000000D02*
X32172000Y-48000000D01*
X27772000Y-53525000D02*
X32172000Y-53525000D01*
X63058600Y-59188000D02*
X57083600Y-59188000D01*
X61483600Y-53663000D02*
X57083600Y-53663000D01*
X61483600Y-47821000D02*
X57083600Y-47821000D01*
X63058600Y-53346000D02*
X57083600Y-53346000D01*
D14*
X45345400Y-47543800D02*
X44085400Y-47543800D01*
X38525400Y-47543800D02*
X39785400Y-47543800D01*
X45345400Y-51303800D02*
X45345400Y-47543800D01*
X38525400Y-53553800D02*
X38525400Y-47543800D01*
D11*
X41622800Y-62569800D02*
X41622800Y-62519800D01*
X37472800Y-62569800D02*
X37472800Y-62424800D01*
X37472800Y-57419800D02*
X37472800Y-57564800D01*
X41622800Y-57419800D02*
X41622800Y-57564800D01*
X41622800Y-62569800D02*
X37472800Y-62569800D01*
X41622800Y-57419800D02*
X37472800Y-57419800D01*
X41622800Y-62519800D02*
X43022800Y-62519800D01*
D14*
X56909000Y-70360500D02*
X61709000Y-70360500D01*
X56909000Y-59560500D02*
X61709000Y-59560500D01*
X56909000Y-59960500D02*
X55509000Y-59960500D01*
X56909000Y-59560500D02*
X56909000Y-59960500D01*
D11*
X51868342Y-34551857D02*
X51915961Y-34599476D01*
X51963580Y-34742333D01*
X51963580Y-34837571D01*
X51915961Y-34980428D01*
X51820723Y-35075666D01*
X51725485Y-35123285D01*
X51535009Y-35170904D01*
X51392152Y-35170904D01*
X51201676Y-35123285D01*
X51106438Y-35075666D01*
X51011200Y-34980428D01*
X50963580Y-34837571D01*
X50963580Y-34742333D01*
X51011200Y-34599476D01*
X51058819Y-34551857D01*
X51963580Y-33599476D02*
X51963580Y-34170904D01*
X51963580Y-33885190D02*
X50963580Y-33885190D01*
X51106438Y-33980428D01*
X51201676Y-34075666D01*
X51249295Y-34170904D01*
X51296914Y-32742333D02*
X51963580Y-32742333D01*
X50915961Y-32980428D02*
X51630247Y-33218523D01*
X51630247Y-32599476D01*
X55856142Y-34551857D02*
X55903761Y-34599476D01*
X55951380Y-34742333D01*
X55951380Y-34837571D01*
X55903761Y-34980428D01*
X55808523Y-35075666D01*
X55713285Y-35123285D01*
X55522809Y-35170904D01*
X55379952Y-35170904D01*
X55189476Y-35123285D01*
X55094238Y-35075666D01*
X54999000Y-34980428D01*
X54951380Y-34837571D01*
X54951380Y-34742333D01*
X54999000Y-34599476D01*
X55046619Y-34551857D01*
X55951380Y-33599476D02*
X55951380Y-34170904D01*
X55951380Y-33885190D02*
X54951380Y-33885190D01*
X55094238Y-33980428D01*
X55189476Y-34075666D01*
X55237095Y-34170904D01*
X54951380Y-33266142D02*
X54951380Y-32647095D01*
X55332333Y-32980428D01*
X55332333Y-32837571D01*
X55379952Y-32742333D01*
X55427571Y-32694714D01*
X55522809Y-32647095D01*
X55760904Y-32647095D01*
X55856142Y-32694714D01*
X55903761Y-32742333D01*
X55951380Y-32837571D01*
X55951380Y-33123285D01*
X55903761Y-33218523D01*
X55856142Y-33266142D01*
X59920142Y-34615357D02*
X59967761Y-34662976D01*
X60015380Y-34805833D01*
X60015380Y-34901071D01*
X59967761Y-35043928D01*
X59872523Y-35139166D01*
X59777285Y-35186785D01*
X59586809Y-35234404D01*
X59443952Y-35234404D01*
X59253476Y-35186785D01*
X59158238Y-35139166D01*
X59063000Y-35043928D01*
X59015380Y-34901071D01*
X59015380Y-34805833D01*
X59063000Y-34662976D01*
X59110619Y-34615357D01*
X60015380Y-33662976D02*
X60015380Y-34234404D01*
X60015380Y-33948690D02*
X59015380Y-33948690D01*
X59158238Y-34043928D01*
X59253476Y-34139166D01*
X59301095Y-34234404D01*
X59110619Y-33282023D02*
X59063000Y-33234404D01*
X59015380Y-33139166D01*
X59015380Y-32901071D01*
X59063000Y-32805833D01*
X59110619Y-32758214D01*
X59205857Y-32710595D01*
X59301095Y-32710595D01*
X59443952Y-32758214D01*
X60015380Y-33329642D01*
X60015380Y-32710595D01*
X57475380Y-34551857D02*
X56999190Y-34885190D01*
X57475380Y-35123285D02*
X56475380Y-35123285D01*
X56475380Y-34742333D01*
X56523000Y-34647095D01*
X56570619Y-34599476D01*
X56665857Y-34551857D01*
X56808714Y-34551857D01*
X56903952Y-34599476D01*
X56951571Y-34647095D01*
X56999190Y-34742333D01*
X56999190Y-35123285D01*
X57475380Y-33599476D02*
X57475380Y-34170904D01*
X57475380Y-33885190D02*
X56475380Y-33885190D01*
X56618238Y-33980428D01*
X56713476Y-34075666D01*
X56761095Y-34170904D01*
X56475380Y-32980428D02*
X56475380Y-32885190D01*
X56523000Y-32789952D01*
X56570619Y-32742333D01*
X56665857Y-32694714D01*
X56856333Y-32647095D01*
X57094428Y-32647095D01*
X57284904Y-32694714D01*
X57380142Y-32742333D01*
X57427761Y-32789952D01*
X57475380Y-32885190D01*
X57475380Y-32980428D01*
X57427761Y-33075666D01*
X57380142Y-33123285D01*
X57284904Y-33170904D01*
X57094428Y-33218523D01*
X56856333Y-33218523D01*
X56665857Y-33170904D01*
X56570619Y-33123285D01*
X56523000Y-33075666D01*
X56475380Y-32980428D01*
X53436780Y-34551857D02*
X52960590Y-34885190D01*
X53436780Y-35123285D02*
X52436780Y-35123285D01*
X52436780Y-34742333D01*
X52484400Y-34647095D01*
X52532019Y-34599476D01*
X52627257Y-34551857D01*
X52770114Y-34551857D01*
X52865352Y-34599476D01*
X52912971Y-34647095D01*
X52960590Y-34742333D01*
X52960590Y-35123285D01*
X53436780Y-33599476D02*
X53436780Y-34170904D01*
X53436780Y-33885190D02*
X52436780Y-33885190D01*
X52579638Y-33980428D01*
X52674876Y-34075666D01*
X52722495Y-34170904D01*
X53436780Y-32647095D02*
X53436780Y-33218523D01*
X53436780Y-32932809D02*
X52436780Y-32932809D01*
X52579638Y-33028047D01*
X52674876Y-33123285D01*
X52722495Y-33218523D01*
X66754476Y-71632380D02*
X66754476Y-72346666D01*
X66706857Y-72489523D01*
X66611619Y-72584761D01*
X66468761Y-72632380D01*
X66373523Y-72632380D01*
X67754476Y-72632380D02*
X67183047Y-72632380D01*
X67468761Y-72632380D02*
X67468761Y-71632380D01*
X67373523Y-71775238D01*
X67278285Y-71870476D01*
X67183047Y-71918095D01*
X68659238Y-71632380D02*
X68183047Y-71632380D01*
X68135428Y-72108571D01*
X68183047Y-72060952D01*
X68278285Y-72013333D01*
X68516380Y-72013333D01*
X68611619Y-72060952D01*
X68659238Y-72108571D01*
X68706857Y-72203809D01*
X68706857Y-72441904D01*
X68659238Y-72537142D01*
X68611619Y-72584761D01*
X68516380Y-72632380D01*
X68278285Y-72632380D01*
X68183047Y-72584761D01*
X68135428Y-72537142D01*
X38631904Y-67762380D02*
X38631904Y-66762380D01*
X38870000Y-66762380D01*
X39012857Y-66810000D01*
X39108095Y-66905238D01*
X39155714Y-67000476D01*
X39203333Y-67190952D01*
X39203333Y-67333809D01*
X39155714Y-67524285D01*
X39108095Y-67619523D01*
X39012857Y-67714761D01*
X38870000Y-67762380D01*
X38631904Y-67762380D01*
X40060476Y-67095714D02*
X40060476Y-67762380D01*
X39822380Y-66714761D02*
X39584285Y-67429047D01*
X40203333Y-67429047D01*
X67770476Y-36282380D02*
X67770476Y-36996666D01*
X67722857Y-37139523D01*
X67627619Y-37234761D01*
X67484761Y-37282380D01*
X67389523Y-37282380D01*
X68770476Y-37282380D02*
X68199047Y-37282380D01*
X68484761Y-37282380D02*
X68484761Y-36282380D01*
X68389523Y-36425238D01*
X68294285Y-36520476D01*
X68199047Y-36568095D01*
X69627619Y-36615714D02*
X69627619Y-37282380D01*
X69389523Y-36234761D02*
X69151428Y-36949047D01*
X69770476Y-36949047D01*
X29059142Y-21502666D02*
X29106761Y-21550285D01*
X29154380Y-21693142D01*
X29154380Y-21788380D01*
X29106761Y-21931238D01*
X29011523Y-22026476D01*
X28916285Y-22074095D01*
X28725809Y-22121714D01*
X28582952Y-22121714D01*
X28392476Y-22074095D01*
X28297238Y-22026476D01*
X28202000Y-21931238D01*
X28154380Y-21788380D01*
X28154380Y-21693142D01*
X28202000Y-21550285D01*
X28249619Y-21502666D01*
X29154380Y-20550285D02*
X29154380Y-21121714D01*
X29154380Y-20836000D02*
X28154380Y-20836000D01*
X28297238Y-20931238D01*
X28392476Y-21026476D01*
X28440095Y-21121714D01*
X27027142Y-21502666D02*
X27074761Y-21550285D01*
X27122380Y-21693142D01*
X27122380Y-21788380D01*
X27074761Y-21931238D01*
X26979523Y-22026476D01*
X26884285Y-22074095D01*
X26693809Y-22121714D01*
X26550952Y-22121714D01*
X26360476Y-22074095D01*
X26265238Y-22026476D01*
X26170000Y-21931238D01*
X26122380Y-21788380D01*
X26122380Y-21693142D01*
X26170000Y-21550285D01*
X26217619Y-21502666D01*
X26217619Y-21121714D02*
X26170000Y-21074095D01*
X26122380Y-20978857D01*
X26122380Y-20740761D01*
X26170000Y-20645523D01*
X26217619Y-20597904D01*
X26312857Y-20550285D01*
X26408095Y-20550285D01*
X26550952Y-20597904D01*
X27122380Y-21169333D01*
X27122380Y-20550285D01*
X36787142Y-49416666D02*
X36834761Y-49464285D01*
X36882380Y-49607142D01*
X36882380Y-49702380D01*
X36834761Y-49845238D01*
X36739523Y-49940476D01*
X36644285Y-49988095D01*
X36453809Y-50035714D01*
X36310952Y-50035714D01*
X36120476Y-49988095D01*
X36025238Y-49940476D01*
X35930000Y-49845238D01*
X35882380Y-49702380D01*
X35882380Y-49607142D01*
X35930000Y-49464285D01*
X35977619Y-49416666D01*
X35882380Y-49083333D02*
X35882380Y-48464285D01*
X36263333Y-48797619D01*
X36263333Y-48654761D01*
X36310952Y-48559523D01*
X36358571Y-48511904D01*
X36453809Y-48464285D01*
X36691904Y-48464285D01*
X36787142Y-48511904D01*
X36834761Y-48559523D01*
X36882380Y-48654761D01*
X36882380Y-48940476D01*
X36834761Y-49035714D01*
X36787142Y-49083333D01*
X36787142Y-43704166D02*
X36834761Y-43751785D01*
X36882380Y-43894642D01*
X36882380Y-43989880D01*
X36834761Y-44132738D01*
X36739523Y-44227976D01*
X36644285Y-44275595D01*
X36453809Y-44323214D01*
X36310952Y-44323214D01*
X36120476Y-44275595D01*
X36025238Y-44227976D01*
X35930000Y-44132738D01*
X35882380Y-43989880D01*
X35882380Y-43894642D01*
X35930000Y-43751785D01*
X35977619Y-43704166D01*
X36215714Y-42847023D02*
X36882380Y-42847023D01*
X35834761Y-43085119D02*
X36549047Y-43323214D01*
X36549047Y-42704166D01*
X53189142Y-55602166D02*
X53236761Y-55649785D01*
X53284380Y-55792642D01*
X53284380Y-55887880D01*
X53236761Y-56030738D01*
X53141523Y-56125976D01*
X53046285Y-56173595D01*
X52855809Y-56221214D01*
X52712952Y-56221214D01*
X52522476Y-56173595D01*
X52427238Y-56125976D01*
X52332000Y-56030738D01*
X52284380Y-55887880D01*
X52284380Y-55792642D01*
X52332000Y-55649785D01*
X52379619Y-55602166D01*
X52284380Y-54697404D02*
X52284380Y-55173595D01*
X52760571Y-55221214D01*
X52712952Y-55173595D01*
X52665333Y-55078357D01*
X52665333Y-54840261D01*
X52712952Y-54745023D01*
X52760571Y-54697404D01*
X52855809Y-54649785D01*
X53093904Y-54649785D01*
X53189142Y-54697404D01*
X53236761Y-54745023D01*
X53284380Y-54840261D01*
X53284380Y-55078357D01*
X53236761Y-55173595D01*
X53189142Y-55221214D01*
X53125642Y-51254166D02*
X53173261Y-51301785D01*
X53220880Y-51444642D01*
X53220880Y-51539880D01*
X53173261Y-51682738D01*
X53078023Y-51777976D01*
X52982785Y-51825595D01*
X52792309Y-51873214D01*
X52649452Y-51873214D01*
X52458976Y-51825595D01*
X52363738Y-51777976D01*
X52268500Y-51682738D01*
X52220880Y-51539880D01*
X52220880Y-51444642D01*
X52268500Y-51301785D01*
X52316119Y-51254166D01*
X52220880Y-50397023D02*
X52220880Y-50587500D01*
X52268500Y-50682738D01*
X52316119Y-50730357D01*
X52458976Y-50825595D01*
X52649452Y-50873214D01*
X53030404Y-50873214D01*
X53125642Y-50825595D01*
X53173261Y-50777976D01*
X53220880Y-50682738D01*
X53220880Y-50492261D01*
X53173261Y-50397023D01*
X53125642Y-50349404D01*
X53030404Y-50301785D01*
X52792309Y-50301785D01*
X52697071Y-50349404D01*
X52649452Y-50397023D01*
X52601833Y-50492261D01*
X52601833Y-50682738D01*
X52649452Y-50777976D01*
X52697071Y-50825595D01*
X52792309Y-50873214D01*
X35281142Y-30392666D02*
X35328761Y-30440285D01*
X35376380Y-30583142D01*
X35376380Y-30678380D01*
X35328761Y-30821238D01*
X35233523Y-30916476D01*
X35138285Y-30964095D01*
X34947809Y-31011714D01*
X34804952Y-31011714D01*
X34614476Y-30964095D01*
X34519238Y-30916476D01*
X34424000Y-30821238D01*
X34376380Y-30678380D01*
X34376380Y-30583142D01*
X34424000Y-30440285D01*
X34471619Y-30392666D01*
X34376380Y-30059333D02*
X34376380Y-29392666D01*
X35376380Y-29821238D01*
X30743142Y-30392666D02*
X30790761Y-30440285D01*
X30838380Y-30583142D01*
X30838380Y-30678380D01*
X30790761Y-30821238D01*
X30695523Y-30916476D01*
X30600285Y-30964095D01*
X30409809Y-31011714D01*
X30266952Y-31011714D01*
X30076476Y-30964095D01*
X29981238Y-30916476D01*
X29886000Y-30821238D01*
X29838380Y-30678380D01*
X29838380Y-30583142D01*
X29886000Y-30440285D01*
X29933619Y-30392666D01*
X30266952Y-29821238D02*
X30219333Y-29916476D01*
X30171714Y-29964095D01*
X30076476Y-30011714D01*
X30028857Y-30011714D01*
X29933619Y-29964095D01*
X29886000Y-29916476D01*
X29838380Y-29821238D01*
X29838380Y-29630761D01*
X29886000Y-29535523D01*
X29933619Y-29487904D01*
X30028857Y-29440285D01*
X30076476Y-29440285D01*
X30171714Y-29487904D01*
X30219333Y-29535523D01*
X30266952Y-29630761D01*
X30266952Y-29821238D01*
X30314571Y-29916476D01*
X30362190Y-29964095D01*
X30457428Y-30011714D01*
X30647904Y-30011714D01*
X30743142Y-29964095D01*
X30790761Y-29916476D01*
X30838380Y-29821238D01*
X30838380Y-29630761D01*
X30790761Y-29535523D01*
X30743142Y-29487904D01*
X30647904Y-29440285D01*
X30457428Y-29440285D01*
X30362190Y-29487904D01*
X30314571Y-29535523D01*
X30266952Y-29630761D01*
X35537142Y-30392666D02*
X35584761Y-30440285D01*
X35632380Y-30583142D01*
X35632380Y-30678380D01*
X35584761Y-30821238D01*
X35489523Y-30916476D01*
X35394285Y-30964095D01*
X35203809Y-31011714D01*
X35060952Y-31011714D01*
X34870476Y-30964095D01*
X34775238Y-30916476D01*
X34680000Y-30821238D01*
X34632380Y-30678380D01*
X34632380Y-30583142D01*
X34680000Y-30440285D01*
X34727619Y-30392666D01*
X35632380Y-29916476D02*
X35632380Y-29726000D01*
X35584761Y-29630761D01*
X35537142Y-29583142D01*
X35394285Y-29487904D01*
X35203809Y-29440285D01*
X34822857Y-29440285D01*
X34727619Y-29487904D01*
X34680000Y-29535523D01*
X34632380Y-29630761D01*
X34632380Y-29821238D01*
X34680000Y-29916476D01*
X34727619Y-29964095D01*
X34822857Y-30011714D01*
X35060952Y-30011714D01*
X35156190Y-29964095D01*
X35203809Y-29916476D01*
X35251428Y-29821238D01*
X35251428Y-29630761D01*
X35203809Y-29535523D01*
X35156190Y-29487904D01*
X35060952Y-29440285D01*
X36392142Y-40241357D02*
X36439761Y-40288976D01*
X36487380Y-40431833D01*
X36487380Y-40527071D01*
X36439761Y-40669928D01*
X36344523Y-40765166D01*
X36249285Y-40812785D01*
X36058809Y-40860404D01*
X35915952Y-40860404D01*
X35725476Y-40812785D01*
X35630238Y-40765166D01*
X35535000Y-40669928D01*
X35487380Y-40527071D01*
X35487380Y-40431833D01*
X35535000Y-40288976D01*
X35582619Y-40241357D01*
X36487380Y-39288976D02*
X36487380Y-39860404D01*
X36487380Y-39574690D02*
X35487380Y-39574690D01*
X35630238Y-39669928D01*
X35725476Y-39765166D01*
X35773095Y-39860404D01*
X35487380Y-38669928D02*
X35487380Y-38574690D01*
X35535000Y-38479452D01*
X35582619Y-38431833D01*
X35677857Y-38384214D01*
X35868333Y-38336595D01*
X36106428Y-38336595D01*
X36296904Y-38384214D01*
X36392142Y-38431833D01*
X36439761Y-38479452D01*
X36487380Y-38574690D01*
X36487380Y-38669928D01*
X36439761Y-38765166D01*
X36392142Y-38812785D01*
X36296904Y-38860404D01*
X36106428Y-38908023D01*
X35868333Y-38908023D01*
X35677857Y-38860404D01*
X35582619Y-38812785D01*
X35535000Y-38765166D01*
X35487380Y-38669928D01*
X39093142Y-30868857D02*
X39140761Y-30916476D01*
X39188380Y-31059333D01*
X39188380Y-31154571D01*
X39140761Y-31297428D01*
X39045523Y-31392666D01*
X38950285Y-31440285D01*
X38759809Y-31487904D01*
X38616952Y-31487904D01*
X38426476Y-31440285D01*
X38331238Y-31392666D01*
X38236000Y-31297428D01*
X38188380Y-31154571D01*
X38188380Y-31059333D01*
X38236000Y-30916476D01*
X38283619Y-30868857D01*
X39188380Y-29916476D02*
X39188380Y-30487904D01*
X39188380Y-30202190D02*
X38188380Y-30202190D01*
X38331238Y-30297428D01*
X38426476Y-30392666D01*
X38474095Y-30487904D01*
X39188380Y-28964095D02*
X39188380Y-29535523D01*
X39188380Y-29249809D02*
X38188380Y-29249809D01*
X38331238Y-29345047D01*
X38426476Y-29440285D01*
X38474095Y-29535523D01*
X34901142Y-56268857D02*
X34948761Y-56316476D01*
X34996380Y-56459333D01*
X34996380Y-56554571D01*
X34948761Y-56697428D01*
X34853523Y-56792666D01*
X34758285Y-56840285D01*
X34567809Y-56887904D01*
X34424952Y-56887904D01*
X34234476Y-56840285D01*
X34139238Y-56792666D01*
X34044000Y-56697428D01*
X33996380Y-56554571D01*
X33996380Y-56459333D01*
X34044000Y-56316476D01*
X34091619Y-56268857D01*
X34996380Y-55316476D02*
X34996380Y-55887904D01*
X34996380Y-55602190D02*
X33996380Y-55602190D01*
X34139238Y-55697428D01*
X34234476Y-55792666D01*
X34282095Y-55887904D01*
X33996380Y-54411714D02*
X33996380Y-54887904D01*
X34472571Y-54935523D01*
X34424952Y-54887904D01*
X34377333Y-54792666D01*
X34377333Y-54554571D01*
X34424952Y-54459333D01*
X34472571Y-54411714D01*
X34567809Y-54364095D01*
X34805904Y-54364095D01*
X34901142Y-54411714D01*
X34948761Y-54459333D01*
X34996380Y-54554571D01*
X34996380Y-54792666D01*
X34948761Y-54887904D01*
X34901142Y-54935523D01*
X47855142Y-49728357D02*
X47902761Y-49775976D01*
X47950380Y-49918833D01*
X47950380Y-50014071D01*
X47902761Y-50156928D01*
X47807523Y-50252166D01*
X47712285Y-50299785D01*
X47521809Y-50347404D01*
X47378952Y-50347404D01*
X47188476Y-50299785D01*
X47093238Y-50252166D01*
X46998000Y-50156928D01*
X46950380Y-50014071D01*
X46950380Y-49918833D01*
X46998000Y-49775976D01*
X47045619Y-49728357D01*
X47950380Y-48775976D02*
X47950380Y-49347404D01*
X47950380Y-49061690D02*
X46950380Y-49061690D01*
X47093238Y-49156928D01*
X47188476Y-49252166D01*
X47236095Y-49347404D01*
X46950380Y-47918833D02*
X46950380Y-48109309D01*
X46998000Y-48204547D01*
X47045619Y-48252166D01*
X47188476Y-48347404D01*
X47378952Y-48395023D01*
X47759904Y-48395023D01*
X47855142Y-48347404D01*
X47902761Y-48299785D01*
X47950380Y-48204547D01*
X47950380Y-48014071D01*
X47902761Y-47918833D01*
X47855142Y-47871214D01*
X47759904Y-47823595D01*
X47521809Y-47823595D01*
X47426571Y-47871214D01*
X47378952Y-47918833D01*
X47331333Y-48014071D01*
X47331333Y-48204547D01*
X47378952Y-48299785D01*
X47426571Y-48347404D01*
X47521809Y-48395023D01*
X32615142Y-56268857D02*
X32662761Y-56316476D01*
X32710380Y-56459333D01*
X32710380Y-56554571D01*
X32662761Y-56697428D01*
X32567523Y-56792666D01*
X32472285Y-56840285D01*
X32281809Y-56887904D01*
X32138952Y-56887904D01*
X31948476Y-56840285D01*
X31853238Y-56792666D01*
X31758000Y-56697428D01*
X31710380Y-56554571D01*
X31710380Y-56459333D01*
X31758000Y-56316476D01*
X31805619Y-56268857D01*
X32710380Y-55316476D02*
X32710380Y-55887904D01*
X32710380Y-55602190D02*
X31710380Y-55602190D01*
X31853238Y-55697428D01*
X31948476Y-55792666D01*
X31996095Y-55887904D01*
X31710380Y-54983142D02*
X31710380Y-54316476D01*
X32710380Y-54745047D01*
X36695142Y-55602142D02*
X36647523Y-55649761D01*
X36504666Y-55697380D01*
X36409428Y-55697380D01*
X36266571Y-55649761D01*
X36171333Y-55554523D01*
X36123714Y-55459285D01*
X36076095Y-55268809D01*
X36076095Y-55125952D01*
X36123714Y-54935476D01*
X36171333Y-54840238D01*
X36266571Y-54745000D01*
X36409428Y-54697380D01*
X36504666Y-54697380D01*
X36647523Y-54745000D01*
X36695142Y-54792619D01*
X37647523Y-55697380D02*
X37076095Y-55697380D01*
X37361809Y-55697380D02*
X37361809Y-54697380D01*
X37266571Y-54840238D01*
X37171333Y-54935476D01*
X37076095Y-54983095D01*
X38218952Y-55125952D02*
X38123714Y-55078333D01*
X38076095Y-55030714D01*
X38028476Y-54935476D01*
X38028476Y-54887857D01*
X38076095Y-54792619D01*
X38123714Y-54745000D01*
X38218952Y-54697380D01*
X38409428Y-54697380D01*
X38504666Y-54745000D01*
X38552285Y-54792619D01*
X38599904Y-54887857D01*
X38599904Y-54935476D01*
X38552285Y-55030714D01*
X38504666Y-55078333D01*
X38409428Y-55125952D01*
X38218952Y-55125952D01*
X38123714Y-55173571D01*
X38076095Y-55221190D01*
X38028476Y-55316428D01*
X38028476Y-55506904D01*
X38076095Y-55602142D01*
X38123714Y-55649761D01*
X38218952Y-55697380D01*
X38409428Y-55697380D01*
X38504666Y-55649761D01*
X38552285Y-55602142D01*
X38599904Y-55506904D01*
X38599904Y-55316428D01*
X38552285Y-55221190D01*
X38504666Y-55173571D01*
X38409428Y-55125952D01*
X46807142Y-71191357D02*
X46854761Y-71238976D01*
X46902380Y-71381833D01*
X46902380Y-71477071D01*
X46854761Y-71619928D01*
X46759523Y-71715166D01*
X46664285Y-71762785D01*
X46473809Y-71810404D01*
X46330952Y-71810404D01*
X46140476Y-71762785D01*
X46045238Y-71715166D01*
X45950000Y-71619928D01*
X45902380Y-71477071D01*
X45902380Y-71381833D01*
X45950000Y-71238976D01*
X45997619Y-71191357D01*
X46902380Y-70238976D02*
X46902380Y-70810404D01*
X46902380Y-70524690D02*
X45902380Y-70524690D01*
X46045238Y-70619928D01*
X46140476Y-70715166D01*
X46188095Y-70810404D01*
X46902380Y-69762785D02*
X46902380Y-69572309D01*
X46854761Y-69477071D01*
X46807142Y-69429452D01*
X46664285Y-69334214D01*
X46473809Y-69286595D01*
X46092857Y-69286595D01*
X45997619Y-69334214D01*
X45950000Y-69381833D01*
X45902380Y-69477071D01*
X45902380Y-69667547D01*
X45950000Y-69762785D01*
X45997619Y-69810404D01*
X46092857Y-69858023D01*
X46330952Y-69858023D01*
X46426190Y-69810404D01*
X46473809Y-69762785D01*
X46521428Y-69667547D01*
X46521428Y-69477071D01*
X46473809Y-69381833D01*
X46426190Y-69334214D01*
X46330952Y-69286595D01*
X42521142Y-68206857D02*
X42568761Y-68254476D01*
X42616380Y-68397333D01*
X42616380Y-68492571D01*
X42568761Y-68635428D01*
X42473523Y-68730666D01*
X42378285Y-68778285D01*
X42187809Y-68825904D01*
X42044952Y-68825904D01*
X41854476Y-68778285D01*
X41759238Y-68730666D01*
X41664000Y-68635428D01*
X41616380Y-68492571D01*
X41616380Y-68397333D01*
X41664000Y-68254476D01*
X41711619Y-68206857D01*
X41711619Y-67825904D02*
X41664000Y-67778285D01*
X41616380Y-67683047D01*
X41616380Y-67444952D01*
X41664000Y-67349714D01*
X41711619Y-67302095D01*
X41806857Y-67254476D01*
X41902095Y-67254476D01*
X42044952Y-67302095D01*
X42616380Y-67873523D01*
X42616380Y-67254476D01*
X41616380Y-66635428D02*
X41616380Y-66540190D01*
X41664000Y-66444952D01*
X41711619Y-66397333D01*
X41806857Y-66349714D01*
X41997333Y-66302095D01*
X42235428Y-66302095D01*
X42425904Y-66349714D01*
X42521142Y-66397333D01*
X42568761Y-66444952D01*
X42616380Y-66540190D01*
X42616380Y-66635428D01*
X42568761Y-66730666D01*
X42521142Y-66778285D01*
X42425904Y-66825904D01*
X42235428Y-66873523D01*
X41997333Y-66873523D01*
X41806857Y-66825904D01*
X41711619Y-66778285D01*
X41664000Y-66730666D01*
X41616380Y-66635428D01*
X47093142Y-67952857D02*
X47140761Y-68000476D01*
X47188380Y-68143333D01*
X47188380Y-68238571D01*
X47140761Y-68381428D01*
X47045523Y-68476666D01*
X46950285Y-68524285D01*
X46759809Y-68571904D01*
X46616952Y-68571904D01*
X46426476Y-68524285D01*
X46331238Y-68476666D01*
X46236000Y-68381428D01*
X46188380Y-68238571D01*
X46188380Y-68143333D01*
X46236000Y-68000476D01*
X46283619Y-67952857D01*
X46283619Y-67571904D02*
X46236000Y-67524285D01*
X46188380Y-67429047D01*
X46188380Y-67190952D01*
X46236000Y-67095714D01*
X46283619Y-67048095D01*
X46378857Y-67000476D01*
X46474095Y-67000476D01*
X46616952Y-67048095D01*
X47188380Y-67619523D01*
X47188380Y-67000476D01*
X47188380Y-66048095D02*
X47188380Y-66619523D01*
X47188380Y-66333809D02*
X46188380Y-66333809D01*
X46331238Y-66429047D01*
X46426476Y-66524285D01*
X46474095Y-66619523D01*
X11247142Y-5214857D02*
X11294761Y-5262476D01*
X11342380Y-5405333D01*
X11342380Y-5500571D01*
X11294761Y-5643428D01*
X11199523Y-5738666D01*
X11104285Y-5786285D01*
X10913809Y-5833904D01*
X10770952Y-5833904D01*
X10580476Y-5786285D01*
X10485238Y-5738666D01*
X10390000Y-5643428D01*
X10342380Y-5500571D01*
X10342380Y-5405333D01*
X10390000Y-5262476D01*
X10437619Y-5214857D01*
X10437619Y-4833904D02*
X10390000Y-4786285D01*
X10342380Y-4691047D01*
X10342380Y-4452952D01*
X10390000Y-4357714D01*
X10437619Y-4310095D01*
X10532857Y-4262476D01*
X10628095Y-4262476D01*
X10770952Y-4310095D01*
X11342380Y-4881523D01*
X11342380Y-4262476D01*
X10437619Y-3881523D02*
X10390000Y-3833904D01*
X10342380Y-3738666D01*
X10342380Y-3500571D01*
X10390000Y-3405333D01*
X10437619Y-3357714D01*
X10532857Y-3310095D01*
X10628095Y-3310095D01*
X10770952Y-3357714D01*
X11342380Y-3929142D01*
X11342380Y-3310095D01*
X11247142Y-45854857D02*
X11294761Y-45902476D01*
X11342380Y-46045333D01*
X11342380Y-46140571D01*
X11294761Y-46283428D01*
X11199523Y-46378666D01*
X11104285Y-46426285D01*
X10913809Y-46473904D01*
X10770952Y-46473904D01*
X10580476Y-46426285D01*
X10485238Y-46378666D01*
X10390000Y-46283428D01*
X10342380Y-46140571D01*
X10342380Y-46045333D01*
X10390000Y-45902476D01*
X10437619Y-45854857D01*
X10437619Y-45473904D02*
X10390000Y-45426285D01*
X10342380Y-45331047D01*
X10342380Y-45092952D01*
X10390000Y-44997714D01*
X10437619Y-44950095D01*
X10532857Y-44902476D01*
X10628095Y-44902476D01*
X10770952Y-44950095D01*
X11342380Y-45521523D01*
X11342380Y-44902476D01*
X10342380Y-44569142D02*
X10342380Y-43950095D01*
X10723333Y-44283428D01*
X10723333Y-44140571D01*
X10770952Y-44045333D01*
X10818571Y-43997714D01*
X10913809Y-43950095D01*
X11151904Y-43950095D01*
X11247142Y-43997714D01*
X11294761Y-44045333D01*
X11342380Y-44140571D01*
X11342380Y-44426285D01*
X11294761Y-44521523D01*
X11247142Y-44569142D01*
X11501142Y-25534857D02*
X11548761Y-25582476D01*
X11596380Y-25725333D01*
X11596380Y-25820571D01*
X11548761Y-25963428D01*
X11453523Y-26058666D01*
X11358285Y-26106285D01*
X11167809Y-26153904D01*
X11024952Y-26153904D01*
X10834476Y-26106285D01*
X10739238Y-26058666D01*
X10644000Y-25963428D01*
X10596380Y-25820571D01*
X10596380Y-25725333D01*
X10644000Y-25582476D01*
X10691619Y-25534857D01*
X10691619Y-25153904D02*
X10644000Y-25106285D01*
X10596380Y-25011047D01*
X10596380Y-24772952D01*
X10644000Y-24677714D01*
X10691619Y-24630095D01*
X10786857Y-24582476D01*
X10882095Y-24582476D01*
X11024952Y-24630095D01*
X11596380Y-25201523D01*
X11596380Y-24582476D01*
X10929714Y-23725333D02*
X11596380Y-23725333D01*
X10548761Y-23963428D02*
X11263047Y-24201523D01*
X11263047Y-23582476D01*
X11247142Y-66174857D02*
X11294761Y-66222476D01*
X11342380Y-66365333D01*
X11342380Y-66460571D01*
X11294761Y-66603428D01*
X11199523Y-66698666D01*
X11104285Y-66746285D01*
X10913809Y-66793904D01*
X10770952Y-66793904D01*
X10580476Y-66746285D01*
X10485238Y-66698666D01*
X10390000Y-66603428D01*
X10342380Y-66460571D01*
X10342380Y-66365333D01*
X10390000Y-66222476D01*
X10437619Y-66174857D01*
X10437619Y-65793904D02*
X10390000Y-65746285D01*
X10342380Y-65651047D01*
X10342380Y-65412952D01*
X10390000Y-65317714D01*
X10437619Y-65270095D01*
X10532857Y-65222476D01*
X10628095Y-65222476D01*
X10770952Y-65270095D01*
X11342380Y-65841523D01*
X11342380Y-65222476D01*
X10342380Y-64317714D02*
X10342380Y-64793904D01*
X10818571Y-64841523D01*
X10770952Y-64793904D01*
X10723333Y-64698666D01*
X10723333Y-64460571D01*
X10770952Y-64365333D01*
X10818571Y-64317714D01*
X10913809Y-64270095D01*
X11151904Y-64270095D01*
X11247142Y-64317714D01*
X11294761Y-64365333D01*
X11342380Y-64460571D01*
X11342380Y-64698666D01*
X11294761Y-64793904D01*
X11247142Y-64841523D01*
X11247142Y-86494857D02*
X11294761Y-86542476D01*
X11342380Y-86685333D01*
X11342380Y-86780571D01*
X11294761Y-86923428D01*
X11199523Y-87018666D01*
X11104285Y-87066285D01*
X10913809Y-87113904D01*
X10770952Y-87113904D01*
X10580476Y-87066285D01*
X10485238Y-87018666D01*
X10390000Y-86923428D01*
X10342380Y-86780571D01*
X10342380Y-86685333D01*
X10390000Y-86542476D01*
X10437619Y-86494857D01*
X10437619Y-86113904D02*
X10390000Y-86066285D01*
X10342380Y-85971047D01*
X10342380Y-85732952D01*
X10390000Y-85637714D01*
X10437619Y-85590095D01*
X10532857Y-85542476D01*
X10628095Y-85542476D01*
X10770952Y-85590095D01*
X11342380Y-86161523D01*
X11342380Y-85542476D01*
X10342380Y-84685333D02*
X10342380Y-84875809D01*
X10390000Y-84971047D01*
X10437619Y-85018666D01*
X10580476Y-85113904D01*
X10770952Y-85161523D01*
X11151904Y-85161523D01*
X11247142Y-85113904D01*
X11294761Y-85066285D01*
X11342380Y-84971047D01*
X11342380Y-84780571D01*
X11294761Y-84685333D01*
X11247142Y-84637714D01*
X11151904Y-84590095D01*
X10913809Y-84590095D01*
X10818571Y-84637714D01*
X10770952Y-84685333D01*
X10723333Y-84780571D01*
X10723333Y-84971047D01*
X10770952Y-85066285D01*
X10818571Y-85113904D01*
X10913809Y-85161523D01*
X34790142Y-18899142D02*
X34742523Y-18946761D01*
X34599666Y-18994380D01*
X34504428Y-18994380D01*
X34361571Y-18946761D01*
X34266333Y-18851523D01*
X34218714Y-18756285D01*
X34171095Y-18565809D01*
X34171095Y-18422952D01*
X34218714Y-18232476D01*
X34266333Y-18137238D01*
X34361571Y-18042000D01*
X34504428Y-17994380D01*
X34599666Y-17994380D01*
X34742523Y-18042000D01*
X34790142Y-18089619D01*
X35171095Y-18089619D02*
X35218714Y-18042000D01*
X35313952Y-17994380D01*
X35552047Y-17994380D01*
X35647285Y-18042000D01*
X35694904Y-18089619D01*
X35742523Y-18184857D01*
X35742523Y-18280095D01*
X35694904Y-18422952D01*
X35123476Y-18994380D01*
X35742523Y-18994380D01*
X36075857Y-17994380D02*
X36742523Y-17994380D01*
X36313952Y-18994380D01*
X64873142Y-64701657D02*
X64920761Y-64749276D01*
X64968380Y-64892133D01*
X64968380Y-64987371D01*
X64920761Y-65130228D01*
X64825523Y-65225466D01*
X64730285Y-65273085D01*
X64539809Y-65320704D01*
X64396952Y-65320704D01*
X64206476Y-65273085D01*
X64111238Y-65225466D01*
X64016000Y-65130228D01*
X63968380Y-64987371D01*
X63968380Y-64892133D01*
X64016000Y-64749276D01*
X64063619Y-64701657D01*
X64063619Y-64320704D02*
X64016000Y-64273085D01*
X63968380Y-64177847D01*
X63968380Y-63939752D01*
X64016000Y-63844514D01*
X64063619Y-63796895D01*
X64158857Y-63749276D01*
X64254095Y-63749276D01*
X64396952Y-63796895D01*
X64968380Y-64368323D01*
X64968380Y-63749276D01*
X64396952Y-63177847D02*
X64349333Y-63273085D01*
X64301714Y-63320704D01*
X64206476Y-63368323D01*
X64158857Y-63368323D01*
X64063619Y-63320704D01*
X64016000Y-63273085D01*
X63968380Y-63177847D01*
X63968380Y-62987371D01*
X64016000Y-62892133D01*
X64063619Y-62844514D01*
X64158857Y-62796895D01*
X64206476Y-62796895D01*
X64301714Y-62844514D01*
X64349333Y-62892133D01*
X64396952Y-62987371D01*
X64396952Y-63177847D01*
X64444571Y-63273085D01*
X64492190Y-63320704D01*
X64587428Y-63368323D01*
X64777904Y-63368323D01*
X64873142Y-63320704D01*
X64920761Y-63273085D01*
X64968380Y-63177847D01*
X64968380Y-62987371D01*
X64920761Y-62892133D01*
X64873142Y-62844514D01*
X64777904Y-62796895D01*
X64587428Y-62796895D01*
X64492190Y-62844514D01*
X64444571Y-62892133D01*
X64396952Y-62987371D01*
X55522904Y-72334380D02*
X55522904Y-71334380D01*
X55761000Y-71334380D01*
X55903857Y-71382000D01*
X55999095Y-71477238D01*
X56046714Y-71572476D01*
X56094333Y-71762952D01*
X56094333Y-71905809D01*
X56046714Y-72096285D01*
X55999095Y-72191523D01*
X55903857Y-72286761D01*
X55761000Y-72334380D01*
X55522904Y-72334380D01*
X57046714Y-72334380D02*
X56475285Y-72334380D01*
X56761000Y-72334380D02*
X56761000Y-71334380D01*
X56665761Y-71477238D01*
X56570523Y-71572476D01*
X56475285Y-71620095D01*
X69794380Y-85828095D02*
X68794380Y-85828095D01*
X68794380Y-85590000D01*
X68842000Y-85447142D01*
X68937238Y-85351904D01*
X69032476Y-85304285D01*
X69222952Y-85256666D01*
X69365809Y-85256666D01*
X69556285Y-85304285D01*
X69651523Y-85351904D01*
X69746761Y-85447142D01*
X69794380Y-85590000D01*
X69794380Y-85828095D01*
X68889619Y-84875714D02*
X68842000Y-84828095D01*
X68794380Y-84732857D01*
X68794380Y-84494761D01*
X68842000Y-84399523D01*
X68889619Y-84351904D01*
X68984857Y-84304285D01*
X69080095Y-84304285D01*
X69222952Y-84351904D01*
X69794380Y-84923333D01*
X69794380Y-84304285D01*
X67254380Y-85828095D02*
X66254380Y-85828095D01*
X66254380Y-85590000D01*
X66302000Y-85447142D01*
X66397238Y-85351904D01*
X66492476Y-85304285D01*
X66682952Y-85256666D01*
X66825809Y-85256666D01*
X67016285Y-85304285D01*
X67111523Y-85351904D01*
X67206761Y-85447142D01*
X67254380Y-85590000D01*
X67254380Y-85828095D01*
X66254380Y-84923333D02*
X66254380Y-84304285D01*
X66635333Y-84637619D01*
X66635333Y-84494761D01*
X66682952Y-84399523D01*
X66730571Y-84351904D01*
X66825809Y-84304285D01*
X67063904Y-84304285D01*
X67159142Y-84351904D01*
X67206761Y-84399523D01*
X67254380Y-84494761D01*
X67254380Y-84780476D01*
X67206761Y-84875714D01*
X67159142Y-84923333D01*
X57681904Y-72588380D02*
X57681904Y-71588380D01*
X57920000Y-71588380D01*
X58062857Y-71636000D01*
X58158095Y-71731238D01*
X58205714Y-71826476D01*
X58253333Y-72016952D01*
X58253333Y-72159809D01*
X58205714Y-72350285D01*
X58158095Y-72445523D01*
X58062857Y-72540761D01*
X57920000Y-72588380D01*
X57681904Y-72588380D01*
X59158095Y-71588380D02*
X58681904Y-71588380D01*
X58634285Y-72064571D01*
X58681904Y-72016952D01*
X58777142Y-71969333D01*
X59015238Y-71969333D01*
X59110476Y-72016952D01*
X59158095Y-72064571D01*
X59205714Y-72159809D01*
X59205714Y-72397904D01*
X59158095Y-72493142D01*
X59110476Y-72540761D01*
X59015238Y-72588380D01*
X58777142Y-72588380D01*
X58681904Y-72540761D01*
X58634285Y-72493142D01*
X55268904Y-74874380D02*
X55268904Y-73874380D01*
X55507000Y-73874380D01*
X55649857Y-73922000D01*
X55745095Y-74017238D01*
X55792714Y-74112476D01*
X55840333Y-74302952D01*
X55840333Y-74445809D01*
X55792714Y-74636285D01*
X55745095Y-74731523D01*
X55649857Y-74826761D01*
X55507000Y-74874380D01*
X55268904Y-74874380D01*
X56697476Y-73874380D02*
X56507000Y-73874380D01*
X56411761Y-73922000D01*
X56364142Y-73969619D01*
X56268904Y-74112476D01*
X56221285Y-74302952D01*
X56221285Y-74683904D01*
X56268904Y-74779142D01*
X56316523Y-74826761D01*
X56411761Y-74874380D01*
X56602238Y-74874380D01*
X56697476Y-74826761D01*
X56745095Y-74779142D01*
X56792714Y-74683904D01*
X56792714Y-74445809D01*
X56745095Y-74350571D01*
X56697476Y-74302952D01*
X56602238Y-74255333D01*
X56411761Y-74255333D01*
X56316523Y-74302952D01*
X56268904Y-74350571D01*
X56221285Y-74445809D01*
X47926666Y-77398571D02*
X47593333Y-77398571D01*
X47593333Y-77922380D02*
X47593333Y-76922380D01*
X48069523Y-76922380D01*
X48974285Y-77922380D02*
X48402857Y-77922380D01*
X48688571Y-77922380D02*
X48688571Y-76922380D01*
X48593333Y-77065238D01*
X48498095Y-77160476D01*
X48402857Y-77208095D01*
X47926666Y-82478571D02*
X47593333Y-82478571D01*
X47593333Y-83002380D02*
X47593333Y-82002380D01*
X48069523Y-82002380D01*
X48402857Y-82097619D02*
X48450476Y-82050000D01*
X48545714Y-82002380D01*
X48783809Y-82002380D01*
X48879047Y-82050000D01*
X48926666Y-82097619D01*
X48974285Y-82192857D01*
X48974285Y-82288095D01*
X48926666Y-82430952D01*
X48355238Y-83002380D01*
X48974285Y-83002380D01*
D17*
X58628038Y-93914020D02*
X58628038Y-94198863D01*
X58609048Y-94255831D01*
X58571069Y-94293810D01*
X58514100Y-94312800D01*
X58476121Y-94312800D01*
X59026818Y-94312800D02*
X58798943Y-94312800D01*
X58912880Y-94312800D02*
X58912880Y-93914020D01*
X58874901Y-93970989D01*
X58836922Y-94008968D01*
X58798943Y-94027957D01*
X59159744Y-93914020D02*
X59406608Y-93914020D01*
X59273681Y-94065936D01*
X59330650Y-94065936D01*
X59368629Y-94084926D01*
X59387619Y-94103915D01*
X59406608Y-94141894D01*
X59406608Y-94236842D01*
X59387619Y-94274821D01*
X59368629Y-94293810D01*
X59330650Y-94312800D01*
X59216713Y-94312800D01*
X59178734Y-94293810D01*
X59159744Y-94274821D01*
D11*
X24590476Y-68242380D02*
X24590476Y-68956666D01*
X24542857Y-69099523D01*
X24447619Y-69194761D01*
X24304761Y-69242380D01*
X24209523Y-69242380D01*
X25590476Y-69242380D02*
X25019047Y-69242380D01*
X25304761Y-69242380D02*
X25304761Y-68242380D01*
X25209523Y-68385238D01*
X25114285Y-68480476D01*
X25019047Y-68528095D01*
X26447619Y-68242380D02*
X26257142Y-68242380D01*
X26161904Y-68290000D01*
X26114285Y-68337619D01*
X26019047Y-68480476D01*
X25971428Y-68670952D01*
X25971428Y-69051904D01*
X26019047Y-69147142D01*
X26066666Y-69194761D01*
X26161904Y-69242380D01*
X26352380Y-69242380D01*
X26447619Y-69194761D01*
X26495238Y-69147142D01*
X26542857Y-69051904D01*
X26542857Y-68813809D01*
X26495238Y-68718571D01*
X26447619Y-68670952D01*
X26352380Y-68623333D01*
X26161904Y-68623333D01*
X26066666Y-68670952D01*
X26019047Y-68718571D01*
X25971428Y-68813809D01*
X32210476Y-68242380D02*
X32210476Y-68956666D01*
X32162857Y-69099523D01*
X32067619Y-69194761D01*
X31924761Y-69242380D01*
X31829523Y-69242380D01*
X33210476Y-69242380D02*
X32639047Y-69242380D01*
X32924761Y-69242380D02*
X32924761Y-68242380D01*
X32829523Y-68385238D01*
X32734285Y-68480476D01*
X32639047Y-68528095D01*
X33543809Y-68242380D02*
X34210476Y-68242380D01*
X33781904Y-69242380D01*
X39322476Y-68242380D02*
X39322476Y-68956666D01*
X39274857Y-69099523D01*
X39179619Y-69194761D01*
X39036761Y-69242380D01*
X38941523Y-69242380D01*
X40322476Y-69242380D02*
X39751047Y-69242380D01*
X40036761Y-69242380D02*
X40036761Y-68242380D01*
X39941523Y-68385238D01*
X39846285Y-68480476D01*
X39751047Y-68528095D01*
X40893904Y-68670952D02*
X40798666Y-68623333D01*
X40751047Y-68575714D01*
X40703428Y-68480476D01*
X40703428Y-68432857D01*
X40751047Y-68337619D01*
X40798666Y-68290000D01*
X40893904Y-68242380D01*
X41084380Y-68242380D01*
X41179619Y-68290000D01*
X41227238Y-68337619D01*
X41274857Y-68432857D01*
X41274857Y-68480476D01*
X41227238Y-68575714D01*
X41179619Y-68623333D01*
X41084380Y-68670952D01*
X40893904Y-68670952D01*
X40798666Y-68718571D01*
X40751047Y-68766190D01*
X40703428Y-68861428D01*
X40703428Y-69051904D01*
X40751047Y-69147142D01*
X40798666Y-69194761D01*
X40893904Y-69242380D01*
X41084380Y-69242380D01*
X41179619Y-69194761D01*
X41227238Y-69147142D01*
X41274857Y-69051904D01*
X41274857Y-68861428D01*
X41227238Y-68766190D01*
X41179619Y-68718571D01*
X41084380Y-68670952D01*
D17*
X45928038Y-93914020D02*
X45928038Y-94198863D01*
X45909048Y-94255831D01*
X45871069Y-94293810D01*
X45814100Y-94312800D01*
X45776121Y-94312800D01*
X46098943Y-93951999D02*
X46117933Y-93933010D01*
X46155912Y-93914020D01*
X46250860Y-93914020D01*
X46288839Y-93933010D01*
X46307828Y-93951999D01*
X46326818Y-93989978D01*
X46326818Y-94027957D01*
X46307828Y-94084926D01*
X46079954Y-94312800D01*
X46326818Y-94312800D01*
X46706608Y-94312800D02*
X46478734Y-94312800D01*
X46592671Y-94312800D02*
X46592671Y-93914020D01*
X46554692Y-93970989D01*
X46516713Y-94008968D01*
X46478734Y-94027957D01*
D11*
X31202380Y-27479523D02*
X31916666Y-27479523D01*
X32059523Y-27527142D01*
X32154761Y-27622380D01*
X32202380Y-27765238D01*
X32202380Y-27860476D01*
X31297619Y-27050952D02*
X31250000Y-27003333D01*
X31202380Y-26908095D01*
X31202380Y-26670000D01*
X31250000Y-26574761D01*
X31297619Y-26527142D01*
X31392857Y-26479523D01*
X31488095Y-26479523D01*
X31630952Y-26527142D01*
X32202380Y-27098571D01*
X32202380Y-26479523D01*
X31297619Y-26098571D02*
X31250000Y-26050952D01*
X31202380Y-25955714D01*
X31202380Y-25717619D01*
X31250000Y-25622380D01*
X31297619Y-25574761D01*
X31392857Y-25527142D01*
X31488095Y-25527142D01*
X31630952Y-25574761D01*
X32202380Y-26146190D01*
X32202380Y-25527142D01*
X50887333Y-56840380D02*
X50411142Y-56840380D01*
X50411142Y-55840380D01*
X51744476Y-56840380D02*
X51173047Y-56840380D01*
X51458761Y-56840380D02*
X51458761Y-55840380D01*
X51363523Y-55983238D01*
X51268285Y-56078476D01*
X51173047Y-56126095D01*
X59467761Y-40044619D02*
X59372523Y-39997000D01*
X59277285Y-39901761D01*
X59134428Y-39758904D01*
X59039190Y-39711285D01*
X58943952Y-39711285D01*
X58991571Y-39949380D02*
X58896333Y-39901761D01*
X58801095Y-39806523D01*
X58753476Y-39616047D01*
X58753476Y-39282714D01*
X58801095Y-39092238D01*
X58896333Y-38997000D01*
X58991571Y-38949380D01*
X59182047Y-38949380D01*
X59277285Y-38997000D01*
X59372523Y-39092238D01*
X59420142Y-39282714D01*
X59420142Y-39616047D01*
X59372523Y-39806523D01*
X59277285Y-39901761D01*
X59182047Y-39949380D01*
X58991571Y-39949380D01*
X60372523Y-39949380D02*
X59801095Y-39949380D01*
X60086809Y-39949380D02*
X60086809Y-38949380D01*
X59991571Y-39092238D01*
X59896333Y-39187476D01*
X59801095Y-39235095D01*
X55975261Y-40044619D02*
X55880023Y-39997000D01*
X55784785Y-39901761D01*
X55641928Y-39758904D01*
X55546690Y-39711285D01*
X55451452Y-39711285D01*
X55499071Y-39949380D02*
X55403833Y-39901761D01*
X55308595Y-39806523D01*
X55260976Y-39616047D01*
X55260976Y-39282714D01*
X55308595Y-39092238D01*
X55403833Y-38997000D01*
X55499071Y-38949380D01*
X55689547Y-38949380D01*
X55784785Y-38997000D01*
X55880023Y-39092238D01*
X55927642Y-39282714D01*
X55927642Y-39616047D01*
X55880023Y-39806523D01*
X55784785Y-39901761D01*
X55689547Y-39949380D01*
X55499071Y-39949380D01*
X56308595Y-39044619D02*
X56356214Y-38997000D01*
X56451452Y-38949380D01*
X56689547Y-38949380D01*
X56784785Y-38997000D01*
X56832404Y-39044619D01*
X56880023Y-39139857D01*
X56880023Y-39235095D01*
X56832404Y-39377952D01*
X56260976Y-39949380D01*
X56880023Y-39949380D01*
X27844761Y-74969619D02*
X27749523Y-74922000D01*
X27654285Y-74826761D01*
X27511428Y-74683904D01*
X27416190Y-74636285D01*
X27320952Y-74636285D01*
X27368571Y-74874380D02*
X27273333Y-74826761D01*
X27178095Y-74731523D01*
X27130476Y-74541047D01*
X27130476Y-74207714D01*
X27178095Y-74017238D01*
X27273333Y-73922000D01*
X27368571Y-73874380D01*
X27559047Y-73874380D01*
X27654285Y-73922000D01*
X27749523Y-74017238D01*
X27797142Y-74207714D01*
X27797142Y-74541047D01*
X27749523Y-74731523D01*
X27654285Y-74826761D01*
X27559047Y-74874380D01*
X27368571Y-74874380D01*
X28130476Y-73874380D02*
X28749523Y-73874380D01*
X28416190Y-74255333D01*
X28559047Y-74255333D01*
X28654285Y-74302952D01*
X28701904Y-74350571D01*
X28749523Y-74445809D01*
X28749523Y-74683904D01*
X28701904Y-74779142D01*
X28654285Y-74826761D01*
X28559047Y-74874380D01*
X28273333Y-74874380D01*
X28178095Y-74826761D01*
X28130476Y-74779142D01*
X35464761Y-74969619D02*
X35369523Y-74922000D01*
X35274285Y-74826761D01*
X35131428Y-74683904D01*
X35036190Y-74636285D01*
X34940952Y-74636285D01*
X34988571Y-74874380D02*
X34893333Y-74826761D01*
X34798095Y-74731523D01*
X34750476Y-74541047D01*
X34750476Y-74207714D01*
X34798095Y-74017238D01*
X34893333Y-73922000D01*
X34988571Y-73874380D01*
X35179047Y-73874380D01*
X35274285Y-73922000D01*
X35369523Y-74017238D01*
X35417142Y-74207714D01*
X35417142Y-74541047D01*
X35369523Y-74731523D01*
X35274285Y-74826761D01*
X35179047Y-74874380D01*
X34988571Y-74874380D01*
X36274285Y-74207714D02*
X36274285Y-74874380D01*
X36036190Y-73826761D02*
X35798095Y-74541047D01*
X36417142Y-74541047D01*
X43084761Y-74969619D02*
X42989523Y-74922000D01*
X42894285Y-74826761D01*
X42751428Y-74683904D01*
X42656190Y-74636285D01*
X42560952Y-74636285D01*
X42608571Y-74874380D02*
X42513333Y-74826761D01*
X42418095Y-74731523D01*
X42370476Y-74541047D01*
X42370476Y-74207714D01*
X42418095Y-74017238D01*
X42513333Y-73922000D01*
X42608571Y-73874380D01*
X42799047Y-73874380D01*
X42894285Y-73922000D01*
X42989523Y-74017238D01*
X43037142Y-74207714D01*
X43037142Y-74541047D01*
X42989523Y-74731523D01*
X42894285Y-74826761D01*
X42799047Y-74874380D01*
X42608571Y-74874380D01*
X43941904Y-73874380D02*
X43465714Y-73874380D01*
X43418095Y-74350571D01*
X43465714Y-74302952D01*
X43560952Y-74255333D01*
X43799047Y-74255333D01*
X43894285Y-74302952D01*
X43941904Y-74350571D01*
X43989523Y-74445809D01*
X43989523Y-74683904D01*
X43941904Y-74779142D01*
X43894285Y-74826761D01*
X43799047Y-74874380D01*
X43560952Y-74874380D01*
X43465714Y-74826761D01*
X43418095Y-74779142D01*
X55502380Y-28600166D02*
X55026190Y-28933500D01*
X55502380Y-29171595D02*
X54502380Y-29171595D01*
X54502380Y-28790642D01*
X54550000Y-28695404D01*
X54597619Y-28647785D01*
X54692857Y-28600166D01*
X54835714Y-28600166D01*
X54930952Y-28647785D01*
X54978571Y-28695404D01*
X55026190Y-28790642D01*
X55026190Y-29171595D01*
X55502380Y-27647785D02*
X55502380Y-28219214D01*
X55502380Y-27933500D02*
X54502380Y-27933500D01*
X54645238Y-28028738D01*
X54740476Y-28123976D01*
X54788095Y-28219214D01*
X64202380Y-28650866D02*
X63726190Y-28984200D01*
X64202380Y-29222295D02*
X63202380Y-29222295D01*
X63202380Y-28841342D01*
X63250000Y-28746104D01*
X63297619Y-28698485D01*
X63392857Y-28650866D01*
X63535714Y-28650866D01*
X63630952Y-28698485D01*
X63678571Y-28746104D01*
X63726190Y-28841342D01*
X63726190Y-29222295D01*
X63297619Y-28269914D02*
X63250000Y-28222295D01*
X63202380Y-28127057D01*
X63202380Y-27888961D01*
X63250000Y-27793723D01*
X63297619Y-27746104D01*
X63392857Y-27698485D01*
X63488095Y-27698485D01*
X63630952Y-27746104D01*
X64202380Y-28317533D01*
X64202380Y-27698485D01*
X34074380Y-30392666D02*
X33598190Y-30726000D01*
X34074380Y-30964095D02*
X33074380Y-30964095D01*
X33074380Y-30583142D01*
X33122000Y-30487904D01*
X33169619Y-30440285D01*
X33264857Y-30392666D01*
X33407714Y-30392666D01*
X33502952Y-30440285D01*
X33550571Y-30487904D01*
X33598190Y-30583142D01*
X33598190Y-30964095D01*
X33074380Y-30059333D02*
X33074380Y-29440285D01*
X33455333Y-29773619D01*
X33455333Y-29630761D01*
X33502952Y-29535523D01*
X33550571Y-29487904D01*
X33645809Y-29440285D01*
X33883904Y-29440285D01*
X33979142Y-29487904D01*
X34026761Y-29535523D01*
X34074380Y-29630761D01*
X34074380Y-29916476D01*
X34026761Y-30011714D01*
X33979142Y-30059333D01*
X29314380Y-30392666D02*
X28838190Y-30726000D01*
X29314380Y-30964095D02*
X28314380Y-30964095D01*
X28314380Y-30583142D01*
X28362000Y-30487904D01*
X28409619Y-30440285D01*
X28504857Y-30392666D01*
X28647714Y-30392666D01*
X28742952Y-30440285D01*
X28790571Y-30487904D01*
X28838190Y-30583142D01*
X28838190Y-30964095D01*
X28647714Y-29535523D02*
X29314380Y-29535523D01*
X28266761Y-29773619D02*
X28981047Y-30011714D01*
X28981047Y-29392666D01*
X37630380Y-30392666D02*
X37154190Y-30726000D01*
X37630380Y-30964095D02*
X36630380Y-30964095D01*
X36630380Y-30583142D01*
X36678000Y-30487904D01*
X36725619Y-30440285D01*
X36820857Y-30392666D01*
X36963714Y-30392666D01*
X37058952Y-30440285D01*
X37106571Y-30487904D01*
X37154190Y-30583142D01*
X37154190Y-30964095D01*
X36630380Y-29487904D02*
X36630380Y-29964095D01*
X37106571Y-30011714D01*
X37058952Y-29964095D01*
X37011333Y-29868857D01*
X37011333Y-29630761D01*
X37058952Y-29535523D01*
X37106571Y-29487904D01*
X37201809Y-29440285D01*
X37439904Y-29440285D01*
X37535142Y-29487904D01*
X37582761Y-29535523D01*
X37630380Y-29630761D01*
X37630380Y-29868857D01*
X37582761Y-29964095D01*
X37535142Y-30011714D01*
X41186380Y-30392666D02*
X40710190Y-30726000D01*
X41186380Y-30964095D02*
X40186380Y-30964095D01*
X40186380Y-30583142D01*
X40234000Y-30487904D01*
X40281619Y-30440285D01*
X40376857Y-30392666D01*
X40519714Y-30392666D01*
X40614952Y-30440285D01*
X40662571Y-30487904D01*
X40710190Y-30583142D01*
X40710190Y-30964095D01*
X40186380Y-29535523D02*
X40186380Y-29726000D01*
X40234000Y-29821238D01*
X40281619Y-29868857D01*
X40424476Y-29964095D01*
X40614952Y-30011714D01*
X40995904Y-30011714D01*
X41091142Y-29964095D01*
X41138761Y-29916476D01*
X41186380Y-29821238D01*
X41186380Y-29630761D01*
X41138761Y-29535523D01*
X41091142Y-29487904D01*
X40995904Y-29440285D01*
X40757809Y-29440285D01*
X40662571Y-29487904D01*
X40614952Y-29535523D01*
X40567333Y-29630761D01*
X40567333Y-29821238D01*
X40614952Y-29916476D01*
X40662571Y-29964095D01*
X40757809Y-30011714D01*
X61539380Y-34647166D02*
X61063190Y-34980500D01*
X61539380Y-35218595D02*
X60539380Y-35218595D01*
X60539380Y-34837642D01*
X60587000Y-34742404D01*
X60634619Y-34694785D01*
X60729857Y-34647166D01*
X60872714Y-34647166D01*
X60967952Y-34694785D01*
X61015571Y-34742404D01*
X61063190Y-34837642D01*
X61063190Y-35218595D01*
X60539380Y-34313833D02*
X60539380Y-33647166D01*
X61539380Y-34075738D01*
X66482933Y-5329180D02*
X66149600Y-4852990D01*
X65911504Y-5329180D02*
X65911504Y-4329180D01*
X66292457Y-4329180D01*
X66387695Y-4376800D01*
X66435314Y-4424419D01*
X66482933Y-4519657D01*
X66482933Y-4662514D01*
X66435314Y-4757752D01*
X66387695Y-4805371D01*
X66292457Y-4852990D01*
X65911504Y-4852990D01*
X67054361Y-4757752D02*
X66959123Y-4710133D01*
X66911504Y-4662514D01*
X66863885Y-4567276D01*
X66863885Y-4519657D01*
X66911504Y-4424419D01*
X66959123Y-4376800D01*
X67054361Y-4329180D01*
X67244838Y-4329180D01*
X67340076Y-4376800D01*
X67387695Y-4424419D01*
X67435314Y-4519657D01*
X67435314Y-4567276D01*
X67387695Y-4662514D01*
X67340076Y-4710133D01*
X67244838Y-4757752D01*
X67054361Y-4757752D01*
X66959123Y-4805371D01*
X66911504Y-4852990D01*
X66863885Y-4948228D01*
X66863885Y-5138704D01*
X66911504Y-5233942D01*
X66959123Y-5281561D01*
X67054361Y-5329180D01*
X67244838Y-5329180D01*
X67340076Y-5281561D01*
X67387695Y-5233942D01*
X67435314Y-5138704D01*
X67435314Y-4948228D01*
X67387695Y-4852990D01*
X67340076Y-4805371D01*
X67244838Y-4757752D01*
X69429333Y-5329180D02*
X69096000Y-4852990D01*
X68857904Y-5329180D02*
X68857904Y-4329180D01*
X69238857Y-4329180D01*
X69334095Y-4376800D01*
X69381714Y-4424419D01*
X69429333Y-4519657D01*
X69429333Y-4662514D01*
X69381714Y-4757752D01*
X69334095Y-4805371D01*
X69238857Y-4852990D01*
X68857904Y-4852990D01*
X69905523Y-5329180D02*
X70096000Y-5329180D01*
X70191238Y-5281561D01*
X70238857Y-5233942D01*
X70334095Y-5091085D01*
X70381714Y-4900609D01*
X70381714Y-4519657D01*
X70334095Y-4424419D01*
X70286476Y-4376800D01*
X70191238Y-4329180D01*
X70000761Y-4329180D01*
X69905523Y-4376800D01*
X69857904Y-4424419D01*
X69810285Y-4519657D01*
X69810285Y-4757752D01*
X69857904Y-4852990D01*
X69905523Y-4900609D01*
X70000761Y-4948228D01*
X70191238Y-4948228D01*
X70286476Y-4900609D01*
X70334095Y-4852990D01*
X70381714Y-4757752D01*
X70556380Y-95511857D02*
X70080190Y-95845190D01*
X70556380Y-96083285D02*
X69556380Y-96083285D01*
X69556380Y-95702333D01*
X69604000Y-95607095D01*
X69651619Y-95559476D01*
X69746857Y-95511857D01*
X69889714Y-95511857D01*
X69984952Y-95559476D01*
X70032571Y-95607095D01*
X70080190Y-95702333D01*
X70080190Y-96083285D01*
X70556380Y-94559476D02*
X70556380Y-95130904D01*
X70556380Y-94845190D02*
X69556380Y-94845190D01*
X69699238Y-94940428D01*
X69794476Y-95035666D01*
X69842095Y-95130904D01*
X69651619Y-94178523D02*
X69604000Y-94130904D01*
X69556380Y-94035666D01*
X69556380Y-93797571D01*
X69604000Y-93702333D01*
X69651619Y-93654714D01*
X69746857Y-93607095D01*
X69842095Y-93607095D01*
X69984952Y-93654714D01*
X70556380Y-94226142D01*
X70556380Y-93607095D01*
X69286380Y-95511857D02*
X68810190Y-95845190D01*
X69286380Y-96083285D02*
X68286380Y-96083285D01*
X68286380Y-95702333D01*
X68334000Y-95607095D01*
X68381619Y-95559476D01*
X68476857Y-95511857D01*
X68619714Y-95511857D01*
X68714952Y-95559476D01*
X68762571Y-95607095D01*
X68810190Y-95702333D01*
X68810190Y-96083285D01*
X69286380Y-94559476D02*
X69286380Y-95130904D01*
X69286380Y-94845190D02*
X68286380Y-94845190D01*
X68429238Y-94940428D01*
X68524476Y-95035666D01*
X68572095Y-95130904D01*
X68286380Y-94226142D02*
X68286380Y-93607095D01*
X68667333Y-93940428D01*
X68667333Y-93797571D01*
X68714952Y-93702333D01*
X68762571Y-93654714D01*
X68857809Y-93607095D01*
X69095904Y-93607095D01*
X69191142Y-93654714D01*
X69238761Y-93702333D01*
X69286380Y-93797571D01*
X69286380Y-94083285D01*
X69238761Y-94178523D01*
X69191142Y-94226142D01*
X46680380Y-56268857D02*
X46204190Y-56602190D01*
X46680380Y-56840285D02*
X45680380Y-56840285D01*
X45680380Y-56459333D01*
X45728000Y-56364095D01*
X45775619Y-56316476D01*
X45870857Y-56268857D01*
X46013714Y-56268857D01*
X46108952Y-56316476D01*
X46156571Y-56364095D01*
X46204190Y-56459333D01*
X46204190Y-56840285D01*
X46680380Y-55316476D02*
X46680380Y-55887904D01*
X46680380Y-55602190D02*
X45680380Y-55602190D01*
X45823238Y-55697428D01*
X45918476Y-55792666D01*
X45966095Y-55887904D01*
X46013714Y-54459333D02*
X46680380Y-54459333D01*
X45632761Y-54697428D02*
X46347047Y-54935523D01*
X46347047Y-54316476D01*
X44902380Y-56268857D02*
X44426190Y-56602190D01*
X44902380Y-56840285D02*
X43902380Y-56840285D01*
X43902380Y-56459333D01*
X43950000Y-56364095D01*
X43997619Y-56316476D01*
X44092857Y-56268857D01*
X44235714Y-56268857D01*
X44330952Y-56316476D01*
X44378571Y-56364095D01*
X44426190Y-56459333D01*
X44426190Y-56840285D01*
X44902380Y-55316476D02*
X44902380Y-55887904D01*
X44902380Y-55602190D02*
X43902380Y-55602190D01*
X44045238Y-55697428D01*
X44140476Y-55792666D01*
X44188095Y-55887904D01*
X43902380Y-54411714D02*
X43902380Y-54887904D01*
X44378571Y-54935523D01*
X44330952Y-54887904D01*
X44283333Y-54792666D01*
X44283333Y-54554571D01*
X44330952Y-54459333D01*
X44378571Y-54411714D01*
X44473809Y-54364095D01*
X44711904Y-54364095D01*
X44807142Y-54411714D01*
X44854761Y-54459333D01*
X44902380Y-54554571D01*
X44902380Y-54792666D01*
X44854761Y-54887904D01*
X44807142Y-54935523D01*
X19502380Y-19184857D02*
X19026190Y-19518190D01*
X19502380Y-19756285D02*
X18502380Y-19756285D01*
X18502380Y-19375333D01*
X18550000Y-19280095D01*
X18597619Y-19232476D01*
X18692857Y-19184857D01*
X18835714Y-19184857D01*
X18930952Y-19232476D01*
X18978571Y-19280095D01*
X19026190Y-19375333D01*
X19026190Y-19756285D01*
X19502380Y-18232476D02*
X19502380Y-18803904D01*
X19502380Y-18518190D02*
X18502380Y-18518190D01*
X18645238Y-18613428D01*
X18740476Y-18708666D01*
X18788095Y-18803904D01*
X18502380Y-17375333D02*
X18502380Y-17565809D01*
X18550000Y-17661047D01*
X18597619Y-17708666D01*
X18740476Y-17803904D01*
X18930952Y-17851523D01*
X19311904Y-17851523D01*
X19407142Y-17803904D01*
X19454761Y-17756285D01*
X19502380Y-17661047D01*
X19502380Y-17470571D01*
X19454761Y-17375333D01*
X19407142Y-17327714D01*
X19311904Y-17280095D01*
X19073809Y-17280095D01*
X18978571Y-17327714D01*
X18930952Y-17375333D01*
X18883333Y-17470571D01*
X18883333Y-17661047D01*
X18930952Y-17756285D01*
X18978571Y-17803904D01*
X19073809Y-17851523D01*
X19502380Y-80144857D02*
X19026190Y-80478190D01*
X19502380Y-80716285D02*
X18502380Y-80716285D01*
X18502380Y-80335333D01*
X18550000Y-80240095D01*
X18597619Y-80192476D01*
X18692857Y-80144857D01*
X18835714Y-80144857D01*
X18930952Y-80192476D01*
X18978571Y-80240095D01*
X19026190Y-80335333D01*
X19026190Y-80716285D01*
X19502380Y-79192476D02*
X19502380Y-79763904D01*
X19502380Y-79478190D02*
X18502380Y-79478190D01*
X18645238Y-79573428D01*
X18740476Y-79668666D01*
X18788095Y-79763904D01*
X18502380Y-78859142D02*
X18502380Y-78192476D01*
X19502380Y-78621047D01*
X11882380Y-19184857D02*
X11406190Y-19518190D01*
X11882380Y-19756285D02*
X10882380Y-19756285D01*
X10882380Y-19375333D01*
X10930000Y-19280095D01*
X10977619Y-19232476D01*
X11072857Y-19184857D01*
X11215714Y-19184857D01*
X11310952Y-19232476D01*
X11358571Y-19280095D01*
X11406190Y-19375333D01*
X11406190Y-19756285D01*
X11882380Y-18232476D02*
X11882380Y-18803904D01*
X11882380Y-18518190D02*
X10882380Y-18518190D01*
X11025238Y-18613428D01*
X11120476Y-18708666D01*
X11168095Y-18803904D01*
X11310952Y-17661047D02*
X11263333Y-17756285D01*
X11215714Y-17803904D01*
X11120476Y-17851523D01*
X11072857Y-17851523D01*
X10977619Y-17803904D01*
X10930000Y-17756285D01*
X10882380Y-17661047D01*
X10882380Y-17470571D01*
X10930000Y-17375333D01*
X10977619Y-17327714D01*
X11072857Y-17280095D01*
X11120476Y-17280095D01*
X11215714Y-17327714D01*
X11263333Y-17375333D01*
X11310952Y-17470571D01*
X11310952Y-17661047D01*
X11358571Y-17756285D01*
X11406190Y-17803904D01*
X11501428Y-17851523D01*
X11691904Y-17851523D01*
X11787142Y-17803904D01*
X11834761Y-17756285D01*
X11882380Y-17661047D01*
X11882380Y-17470571D01*
X11834761Y-17375333D01*
X11787142Y-17327714D01*
X11691904Y-17280095D01*
X11501428Y-17280095D01*
X11406190Y-17327714D01*
X11358571Y-17375333D01*
X11310952Y-17470571D01*
X11882380Y-80144857D02*
X11406190Y-80478190D01*
X11882380Y-80716285D02*
X10882380Y-80716285D01*
X10882380Y-80335333D01*
X10930000Y-80240095D01*
X10977619Y-80192476D01*
X11072857Y-80144857D01*
X11215714Y-80144857D01*
X11310952Y-80192476D01*
X11358571Y-80240095D01*
X11406190Y-80335333D01*
X11406190Y-80716285D01*
X11882380Y-79192476D02*
X11882380Y-79763904D01*
X11882380Y-79478190D02*
X10882380Y-79478190D01*
X11025238Y-79573428D01*
X11120476Y-79668666D01*
X11168095Y-79763904D01*
X11882380Y-78716285D02*
X11882380Y-78525809D01*
X11834761Y-78430571D01*
X11787142Y-78382952D01*
X11644285Y-78287714D01*
X11453809Y-78240095D01*
X11072857Y-78240095D01*
X10977619Y-78287714D01*
X10930000Y-78335333D01*
X10882380Y-78430571D01*
X10882380Y-78621047D01*
X10930000Y-78716285D01*
X10977619Y-78763904D01*
X11072857Y-78811523D01*
X11310952Y-78811523D01*
X11406190Y-78763904D01*
X11453809Y-78716285D01*
X11501428Y-78621047D01*
X11501428Y-78430571D01*
X11453809Y-78335333D01*
X11406190Y-78287714D01*
X11310952Y-78240095D01*
X19502380Y-39504857D02*
X19026190Y-39838190D01*
X19502380Y-40076285D02*
X18502380Y-40076285D01*
X18502380Y-39695333D01*
X18550000Y-39600095D01*
X18597619Y-39552476D01*
X18692857Y-39504857D01*
X18835714Y-39504857D01*
X18930952Y-39552476D01*
X18978571Y-39600095D01*
X19026190Y-39695333D01*
X19026190Y-40076285D01*
X18597619Y-39123904D02*
X18550000Y-39076285D01*
X18502380Y-38981047D01*
X18502380Y-38742952D01*
X18550000Y-38647714D01*
X18597619Y-38600095D01*
X18692857Y-38552476D01*
X18788095Y-38552476D01*
X18930952Y-38600095D01*
X19502380Y-39171523D01*
X19502380Y-38552476D01*
X18502380Y-37933428D02*
X18502380Y-37838190D01*
X18550000Y-37742952D01*
X18597619Y-37695333D01*
X18692857Y-37647714D01*
X18883333Y-37600095D01*
X19121428Y-37600095D01*
X19311904Y-37647714D01*
X19407142Y-37695333D01*
X19454761Y-37742952D01*
X19502380Y-37838190D01*
X19502380Y-37933428D01*
X19454761Y-38028666D01*
X19407142Y-38076285D01*
X19311904Y-38123904D01*
X19121428Y-38171523D01*
X18883333Y-38171523D01*
X18692857Y-38123904D01*
X18597619Y-38076285D01*
X18550000Y-38028666D01*
X18502380Y-37933428D01*
X19502380Y-100464857D02*
X19026190Y-100798190D01*
X19502380Y-101036285D02*
X18502380Y-101036285D01*
X18502380Y-100655333D01*
X18550000Y-100560095D01*
X18597619Y-100512476D01*
X18692857Y-100464857D01*
X18835714Y-100464857D01*
X18930952Y-100512476D01*
X18978571Y-100560095D01*
X19026190Y-100655333D01*
X19026190Y-101036285D01*
X18597619Y-100083904D02*
X18550000Y-100036285D01*
X18502380Y-99941047D01*
X18502380Y-99702952D01*
X18550000Y-99607714D01*
X18597619Y-99560095D01*
X18692857Y-99512476D01*
X18788095Y-99512476D01*
X18930952Y-99560095D01*
X19502380Y-100131523D01*
X19502380Y-99512476D01*
X19502380Y-98560095D02*
X19502380Y-99131523D01*
X19502380Y-98845809D02*
X18502380Y-98845809D01*
X18645238Y-98941047D01*
X18740476Y-99036285D01*
X18788095Y-99131523D01*
X11882380Y-39504857D02*
X11406190Y-39838190D01*
X11882380Y-40076285D02*
X10882380Y-40076285D01*
X10882380Y-39695333D01*
X10930000Y-39600095D01*
X10977619Y-39552476D01*
X11072857Y-39504857D01*
X11215714Y-39504857D01*
X11310952Y-39552476D01*
X11358571Y-39600095D01*
X11406190Y-39695333D01*
X11406190Y-40076285D01*
X10977619Y-39123904D02*
X10930000Y-39076285D01*
X10882380Y-38981047D01*
X10882380Y-38742952D01*
X10930000Y-38647714D01*
X10977619Y-38600095D01*
X11072857Y-38552476D01*
X11168095Y-38552476D01*
X11310952Y-38600095D01*
X11882380Y-39171523D01*
X11882380Y-38552476D01*
X10977619Y-38171523D02*
X10930000Y-38123904D01*
X10882380Y-38028666D01*
X10882380Y-37790571D01*
X10930000Y-37695333D01*
X10977619Y-37647714D01*
X11072857Y-37600095D01*
X11168095Y-37600095D01*
X11310952Y-37647714D01*
X11882380Y-38219142D01*
X11882380Y-37600095D01*
X11882380Y-100464857D02*
X11406190Y-100798190D01*
X11882380Y-101036285D02*
X10882380Y-101036285D01*
X10882380Y-100655333D01*
X10930000Y-100560095D01*
X10977619Y-100512476D01*
X11072857Y-100464857D01*
X11215714Y-100464857D01*
X11310952Y-100512476D01*
X11358571Y-100560095D01*
X11406190Y-100655333D01*
X11406190Y-101036285D01*
X10977619Y-100083904D02*
X10930000Y-100036285D01*
X10882380Y-99941047D01*
X10882380Y-99702952D01*
X10930000Y-99607714D01*
X10977619Y-99560095D01*
X11072857Y-99512476D01*
X11168095Y-99512476D01*
X11310952Y-99560095D01*
X11882380Y-100131523D01*
X11882380Y-99512476D01*
X10882380Y-99179142D02*
X10882380Y-98560095D01*
X11263333Y-98893428D01*
X11263333Y-98750571D01*
X11310952Y-98655333D01*
X11358571Y-98607714D01*
X11453809Y-98560095D01*
X11691904Y-98560095D01*
X11787142Y-98607714D01*
X11834761Y-98655333D01*
X11882380Y-98750571D01*
X11882380Y-99036285D01*
X11834761Y-99131523D01*
X11787142Y-99179142D01*
X19502380Y-59824857D02*
X19026190Y-60158190D01*
X19502380Y-60396285D02*
X18502380Y-60396285D01*
X18502380Y-60015333D01*
X18550000Y-59920095D01*
X18597619Y-59872476D01*
X18692857Y-59824857D01*
X18835714Y-59824857D01*
X18930952Y-59872476D01*
X18978571Y-59920095D01*
X19026190Y-60015333D01*
X19026190Y-60396285D01*
X18597619Y-59443904D02*
X18550000Y-59396285D01*
X18502380Y-59301047D01*
X18502380Y-59062952D01*
X18550000Y-58967714D01*
X18597619Y-58920095D01*
X18692857Y-58872476D01*
X18788095Y-58872476D01*
X18930952Y-58920095D01*
X19502380Y-59491523D01*
X19502380Y-58872476D01*
X18835714Y-58015333D02*
X19502380Y-58015333D01*
X18454761Y-58253428D02*
X19169047Y-58491523D01*
X19169047Y-57872476D01*
X11882380Y-59824857D02*
X11406190Y-60158190D01*
X11882380Y-60396285D02*
X10882380Y-60396285D01*
X10882380Y-60015333D01*
X10930000Y-59920095D01*
X10977619Y-59872476D01*
X11072857Y-59824857D01*
X11215714Y-59824857D01*
X11310952Y-59872476D01*
X11358571Y-59920095D01*
X11406190Y-60015333D01*
X11406190Y-60396285D01*
X10977619Y-59443904D02*
X10930000Y-59396285D01*
X10882380Y-59301047D01*
X10882380Y-59062952D01*
X10930000Y-58967714D01*
X10977619Y-58920095D01*
X11072857Y-58872476D01*
X11168095Y-58872476D01*
X11310952Y-58920095D01*
X11882380Y-59491523D01*
X11882380Y-58872476D01*
X10882380Y-57967714D02*
X10882380Y-58443904D01*
X11358571Y-58491523D01*
X11310952Y-58443904D01*
X11263333Y-58348666D01*
X11263333Y-58110571D01*
X11310952Y-58015333D01*
X11358571Y-57967714D01*
X11453809Y-57920095D01*
X11691904Y-57920095D01*
X11787142Y-57967714D01*
X11834761Y-58015333D01*
X11882380Y-58110571D01*
X11882380Y-58348666D01*
X11834761Y-58443904D01*
X11787142Y-58491523D01*
X58285142Y-73858380D02*
X57951809Y-73382190D01*
X57713714Y-73858380D02*
X57713714Y-72858380D01*
X58094666Y-72858380D01*
X58189904Y-72906000D01*
X58237523Y-72953619D01*
X58285142Y-73048857D01*
X58285142Y-73191714D01*
X58237523Y-73286952D01*
X58189904Y-73334571D01*
X58094666Y-73382190D01*
X57713714Y-73382190D01*
X58666095Y-72953619D02*
X58713714Y-72906000D01*
X58808952Y-72858380D01*
X59047047Y-72858380D01*
X59142285Y-72906000D01*
X59189904Y-72953619D01*
X59237523Y-73048857D01*
X59237523Y-73144095D01*
X59189904Y-73286952D01*
X58618476Y-73858380D01*
X59237523Y-73858380D01*
X60094666Y-72858380D02*
X59904190Y-72858380D01*
X59808952Y-72906000D01*
X59761333Y-72953619D01*
X59666095Y-73096476D01*
X59618476Y-73286952D01*
X59618476Y-73667904D01*
X59666095Y-73763142D01*
X59713714Y-73810761D01*
X59808952Y-73858380D01*
X59999428Y-73858380D01*
X60094666Y-73810761D01*
X60142285Y-73763142D01*
X60189904Y-73667904D01*
X60189904Y-73429809D01*
X60142285Y-73334571D01*
X60094666Y-73286952D01*
X59999428Y-73239333D01*
X59808952Y-73239333D01*
X59713714Y-73286952D01*
X59666095Y-73334571D01*
X59618476Y-73429809D01*
X55110142Y-73604380D02*
X54776809Y-73128190D01*
X54538714Y-73604380D02*
X54538714Y-72604380D01*
X54919666Y-72604380D01*
X55014904Y-72652000D01*
X55062523Y-72699619D01*
X55110142Y-72794857D01*
X55110142Y-72937714D01*
X55062523Y-73032952D01*
X55014904Y-73080571D01*
X54919666Y-73128190D01*
X54538714Y-73128190D01*
X55491095Y-72699619D02*
X55538714Y-72652000D01*
X55633952Y-72604380D01*
X55872047Y-72604380D01*
X55967285Y-72652000D01*
X56014904Y-72699619D01*
X56062523Y-72794857D01*
X56062523Y-72890095D01*
X56014904Y-73032952D01*
X55443476Y-73604380D01*
X56062523Y-73604380D01*
X56395857Y-72604380D02*
X57062523Y-72604380D01*
X56633952Y-73604380D01*
X59888380Y-29598857D02*
X59412190Y-29932190D01*
X59888380Y-30170285D02*
X58888380Y-30170285D01*
X58888380Y-29789333D01*
X58936000Y-29694095D01*
X58983619Y-29646476D01*
X59078857Y-29598857D01*
X59221714Y-29598857D01*
X59316952Y-29646476D01*
X59364571Y-29694095D01*
X59412190Y-29789333D01*
X59412190Y-30170285D01*
X58983619Y-29217904D02*
X58936000Y-29170285D01*
X58888380Y-29075047D01*
X58888380Y-28836952D01*
X58936000Y-28741714D01*
X58983619Y-28694095D01*
X59078857Y-28646476D01*
X59174095Y-28646476D01*
X59316952Y-28694095D01*
X59888380Y-29265523D01*
X59888380Y-28646476D01*
X59316952Y-28075047D02*
X59269333Y-28170285D01*
X59221714Y-28217904D01*
X59126476Y-28265523D01*
X59078857Y-28265523D01*
X58983619Y-28217904D01*
X58936000Y-28170285D01*
X58888380Y-28075047D01*
X58888380Y-27884571D01*
X58936000Y-27789333D01*
X58983619Y-27741714D01*
X59078857Y-27694095D01*
X59126476Y-27694095D01*
X59221714Y-27741714D01*
X59269333Y-27789333D01*
X59316952Y-27884571D01*
X59316952Y-28075047D01*
X59364571Y-28170285D01*
X59412190Y-28217904D01*
X59507428Y-28265523D01*
X59697904Y-28265523D01*
X59793142Y-28217904D01*
X59840761Y-28170285D01*
X59888380Y-28075047D01*
X59888380Y-27884571D01*
X59840761Y-27789333D01*
X59793142Y-27741714D01*
X59697904Y-27694095D01*
X59507428Y-27694095D01*
X59412190Y-27741714D01*
X59364571Y-27789333D01*
X59316952Y-27884571D01*
X61412380Y-29598857D02*
X60936190Y-29932190D01*
X61412380Y-30170285D02*
X60412380Y-30170285D01*
X60412380Y-29789333D01*
X60460000Y-29694095D01*
X60507619Y-29646476D01*
X60602857Y-29598857D01*
X60745714Y-29598857D01*
X60840952Y-29646476D01*
X60888571Y-29694095D01*
X60936190Y-29789333D01*
X60936190Y-30170285D01*
X60507619Y-29217904D02*
X60460000Y-29170285D01*
X60412380Y-29075047D01*
X60412380Y-28836952D01*
X60460000Y-28741714D01*
X60507619Y-28694095D01*
X60602857Y-28646476D01*
X60698095Y-28646476D01*
X60840952Y-28694095D01*
X61412380Y-29265523D01*
X61412380Y-28646476D01*
X61412380Y-28170285D02*
X61412380Y-27979809D01*
X61364761Y-27884571D01*
X61317142Y-27836952D01*
X61174285Y-27741714D01*
X60983809Y-27694095D01*
X60602857Y-27694095D01*
X60507619Y-27741714D01*
X60460000Y-27789333D01*
X60412380Y-27884571D01*
X60412380Y-28075047D01*
X60460000Y-28170285D01*
X60507619Y-28217904D01*
X60602857Y-28265523D01*
X60840952Y-28265523D01*
X60936190Y-28217904D01*
X60983809Y-28170285D01*
X61031428Y-28075047D01*
X61031428Y-27884571D01*
X60983809Y-27789333D01*
X60936190Y-27741714D01*
X60840952Y-27694095D01*
X55657142Y-46172380D02*
X55323809Y-45696190D01*
X55085714Y-46172380D02*
X55085714Y-45172380D01*
X55466666Y-45172380D01*
X55561904Y-45220000D01*
X55609523Y-45267619D01*
X55657142Y-45362857D01*
X55657142Y-45505714D01*
X55609523Y-45600952D01*
X55561904Y-45648571D01*
X55466666Y-45696190D01*
X55085714Y-45696190D01*
X55990476Y-45172380D02*
X56609523Y-45172380D01*
X56276190Y-45553333D01*
X56419047Y-45553333D01*
X56514285Y-45600952D01*
X56561904Y-45648571D01*
X56609523Y-45743809D01*
X56609523Y-45981904D01*
X56561904Y-46077142D01*
X56514285Y-46124761D01*
X56419047Y-46172380D01*
X56133333Y-46172380D01*
X56038095Y-46124761D01*
X55990476Y-46077142D01*
X57228571Y-45172380D02*
X57323809Y-45172380D01*
X57419047Y-45220000D01*
X57466666Y-45267619D01*
X57514285Y-45362857D01*
X57561904Y-45553333D01*
X57561904Y-45791428D01*
X57514285Y-45981904D01*
X57466666Y-46077142D01*
X57419047Y-46124761D01*
X57323809Y-46172380D01*
X57228571Y-46172380D01*
X57133333Y-46124761D01*
X57085714Y-46077142D01*
X57038095Y-45981904D01*
X56990476Y-45791428D01*
X56990476Y-45553333D01*
X57038095Y-45362857D01*
X57085714Y-45267619D01*
X57133333Y-45220000D01*
X57228571Y-45172380D01*
X58657142Y-46235880D02*
X58323809Y-45759690D01*
X58085714Y-46235880D02*
X58085714Y-45235880D01*
X58466666Y-45235880D01*
X58561904Y-45283500D01*
X58609523Y-45331119D01*
X58657142Y-45426357D01*
X58657142Y-45569214D01*
X58609523Y-45664452D01*
X58561904Y-45712071D01*
X58466666Y-45759690D01*
X58085714Y-45759690D01*
X58990476Y-45235880D02*
X59609523Y-45235880D01*
X59276190Y-45616833D01*
X59419047Y-45616833D01*
X59514285Y-45664452D01*
X59561904Y-45712071D01*
X59609523Y-45807309D01*
X59609523Y-46045404D01*
X59561904Y-46140642D01*
X59514285Y-46188261D01*
X59419047Y-46235880D01*
X59133333Y-46235880D01*
X59038095Y-46188261D01*
X58990476Y-46140642D01*
X60561904Y-46235880D02*
X59990476Y-46235880D01*
X60276190Y-46235880D02*
X60276190Y-45235880D01*
X60180952Y-45378738D01*
X60085714Y-45473976D01*
X59990476Y-45521595D01*
X51760380Y-29598857D02*
X51284190Y-29932190D01*
X51760380Y-30170285D02*
X50760380Y-30170285D01*
X50760380Y-29789333D01*
X50808000Y-29694095D01*
X50855619Y-29646476D01*
X50950857Y-29598857D01*
X51093714Y-29598857D01*
X51188952Y-29646476D01*
X51236571Y-29694095D01*
X51284190Y-29789333D01*
X51284190Y-30170285D01*
X50760380Y-29265523D02*
X50760380Y-28646476D01*
X51141333Y-28979809D01*
X51141333Y-28836952D01*
X51188952Y-28741714D01*
X51236571Y-28694095D01*
X51331809Y-28646476D01*
X51569904Y-28646476D01*
X51665142Y-28694095D01*
X51712761Y-28741714D01*
X51760380Y-28836952D01*
X51760380Y-29122666D01*
X51712761Y-29217904D01*
X51665142Y-29265523D01*
X50855619Y-28265523D02*
X50808000Y-28217904D01*
X50760380Y-28122666D01*
X50760380Y-27884571D01*
X50808000Y-27789333D01*
X50855619Y-27741714D01*
X50950857Y-27694095D01*
X51046095Y-27694095D01*
X51188952Y-27741714D01*
X51760380Y-28313142D01*
X51760380Y-27694095D01*
X54002380Y-29598857D02*
X53526190Y-29932190D01*
X54002380Y-30170285D02*
X53002380Y-30170285D01*
X53002380Y-29789333D01*
X53050000Y-29694095D01*
X53097619Y-29646476D01*
X53192857Y-29598857D01*
X53335714Y-29598857D01*
X53430952Y-29646476D01*
X53478571Y-29694095D01*
X53526190Y-29789333D01*
X53526190Y-30170285D01*
X53002380Y-29265523D02*
X53002380Y-28646476D01*
X53383333Y-28979809D01*
X53383333Y-28836952D01*
X53430952Y-28741714D01*
X53478571Y-28694095D01*
X53573809Y-28646476D01*
X53811904Y-28646476D01*
X53907142Y-28694095D01*
X53954761Y-28741714D01*
X54002380Y-28836952D01*
X54002380Y-29122666D01*
X53954761Y-29217904D01*
X53907142Y-29265523D01*
X53002380Y-28313142D02*
X53002380Y-27694095D01*
X53383333Y-28027428D01*
X53383333Y-27884571D01*
X53430952Y-27789333D01*
X53478571Y-27741714D01*
X53573809Y-27694095D01*
X53811904Y-27694095D01*
X53907142Y-27741714D01*
X53954761Y-27789333D01*
X54002380Y-27884571D01*
X54002380Y-28170285D01*
X53954761Y-28265523D01*
X53907142Y-28313142D01*
X57752380Y-29598857D02*
X57276190Y-29932190D01*
X57752380Y-30170285D02*
X56752380Y-30170285D01*
X56752380Y-29789333D01*
X56800000Y-29694095D01*
X56847619Y-29646476D01*
X56942857Y-29598857D01*
X57085714Y-29598857D01*
X57180952Y-29646476D01*
X57228571Y-29694095D01*
X57276190Y-29789333D01*
X57276190Y-30170285D01*
X56752380Y-29265523D02*
X56752380Y-28646476D01*
X57133333Y-28979809D01*
X57133333Y-28836952D01*
X57180952Y-28741714D01*
X57228571Y-28694095D01*
X57323809Y-28646476D01*
X57561904Y-28646476D01*
X57657142Y-28694095D01*
X57704761Y-28741714D01*
X57752380Y-28836952D01*
X57752380Y-29122666D01*
X57704761Y-29217904D01*
X57657142Y-29265523D01*
X57085714Y-27789333D02*
X57752380Y-27789333D01*
X56704761Y-28027428D02*
X57419047Y-28265523D01*
X57419047Y-27646476D01*
X30297380Y-68714857D02*
X29821190Y-69048190D01*
X30297380Y-69286285D02*
X29297380Y-69286285D01*
X29297380Y-68905333D01*
X29345000Y-68810095D01*
X29392619Y-68762476D01*
X29487857Y-68714857D01*
X29630714Y-68714857D01*
X29725952Y-68762476D01*
X29773571Y-68810095D01*
X29821190Y-68905333D01*
X29821190Y-69286285D01*
X29297380Y-68381523D02*
X29297380Y-67762476D01*
X29678333Y-68095809D01*
X29678333Y-67952952D01*
X29725952Y-67857714D01*
X29773571Y-67810095D01*
X29868809Y-67762476D01*
X30106904Y-67762476D01*
X30202142Y-67810095D01*
X30249761Y-67857714D01*
X30297380Y-67952952D01*
X30297380Y-68238666D01*
X30249761Y-68333904D01*
X30202142Y-68381523D01*
X29297380Y-66857714D02*
X29297380Y-67333904D01*
X29773571Y-67381523D01*
X29725952Y-67333904D01*
X29678333Y-67238666D01*
X29678333Y-67000571D01*
X29725952Y-66905333D01*
X29773571Y-66857714D01*
X29868809Y-66810095D01*
X30106904Y-66810095D01*
X30202142Y-66857714D01*
X30249761Y-66905333D01*
X30297380Y-67000571D01*
X30297380Y-67238666D01*
X30249761Y-67333904D01*
X30202142Y-67381523D01*
X28392380Y-68714857D02*
X27916190Y-69048190D01*
X28392380Y-69286285D02*
X27392380Y-69286285D01*
X27392380Y-68905333D01*
X27440000Y-68810095D01*
X27487619Y-68762476D01*
X27582857Y-68714857D01*
X27725714Y-68714857D01*
X27820952Y-68762476D01*
X27868571Y-68810095D01*
X27916190Y-68905333D01*
X27916190Y-69286285D01*
X27392380Y-68381523D02*
X27392380Y-67762476D01*
X27773333Y-68095809D01*
X27773333Y-67952952D01*
X27820952Y-67857714D01*
X27868571Y-67810095D01*
X27963809Y-67762476D01*
X28201904Y-67762476D01*
X28297142Y-67810095D01*
X28344761Y-67857714D01*
X28392380Y-67952952D01*
X28392380Y-68238666D01*
X28344761Y-68333904D01*
X28297142Y-68381523D01*
X27392380Y-66905333D02*
X27392380Y-67095809D01*
X27440000Y-67191047D01*
X27487619Y-67238666D01*
X27630476Y-67333904D01*
X27820952Y-67381523D01*
X28201904Y-67381523D01*
X28297142Y-67333904D01*
X28344761Y-67286285D01*
X28392380Y-67191047D01*
X28392380Y-67000571D01*
X28344761Y-66905333D01*
X28297142Y-66857714D01*
X28201904Y-66810095D01*
X27963809Y-66810095D01*
X27868571Y-66857714D01*
X27820952Y-66905333D01*
X27773333Y-67000571D01*
X27773333Y-67191047D01*
X27820952Y-67286285D01*
X27868571Y-67333904D01*
X27963809Y-67381523D01*
X38044380Y-68714857D02*
X37568190Y-69048190D01*
X38044380Y-69286285D02*
X37044380Y-69286285D01*
X37044380Y-68905333D01*
X37092000Y-68810095D01*
X37139619Y-68762476D01*
X37234857Y-68714857D01*
X37377714Y-68714857D01*
X37472952Y-68762476D01*
X37520571Y-68810095D01*
X37568190Y-68905333D01*
X37568190Y-69286285D01*
X37044380Y-68381523D02*
X37044380Y-67762476D01*
X37425333Y-68095809D01*
X37425333Y-67952952D01*
X37472952Y-67857714D01*
X37520571Y-67810095D01*
X37615809Y-67762476D01*
X37853904Y-67762476D01*
X37949142Y-67810095D01*
X37996761Y-67857714D01*
X38044380Y-67952952D01*
X38044380Y-68238666D01*
X37996761Y-68333904D01*
X37949142Y-68381523D01*
X37044380Y-67429142D02*
X37044380Y-66762476D01*
X38044380Y-67191047D01*
X36012380Y-68714857D02*
X35536190Y-69048190D01*
X36012380Y-69286285D02*
X35012380Y-69286285D01*
X35012380Y-68905333D01*
X35060000Y-68810095D01*
X35107619Y-68762476D01*
X35202857Y-68714857D01*
X35345714Y-68714857D01*
X35440952Y-68762476D01*
X35488571Y-68810095D01*
X35536190Y-68905333D01*
X35536190Y-69286285D01*
X35012380Y-68381523D02*
X35012380Y-67762476D01*
X35393333Y-68095809D01*
X35393333Y-67952952D01*
X35440952Y-67857714D01*
X35488571Y-67810095D01*
X35583809Y-67762476D01*
X35821904Y-67762476D01*
X35917142Y-67810095D01*
X35964761Y-67857714D01*
X36012380Y-67952952D01*
X36012380Y-68238666D01*
X35964761Y-68333904D01*
X35917142Y-68381523D01*
X35440952Y-67191047D02*
X35393333Y-67286285D01*
X35345714Y-67333904D01*
X35250476Y-67381523D01*
X35202857Y-67381523D01*
X35107619Y-67333904D01*
X35060000Y-67286285D01*
X35012380Y-67191047D01*
X35012380Y-67000571D01*
X35060000Y-66905333D01*
X35107619Y-66857714D01*
X35202857Y-66810095D01*
X35250476Y-66810095D01*
X35345714Y-66857714D01*
X35393333Y-66905333D01*
X35440952Y-67000571D01*
X35440952Y-67191047D01*
X35488571Y-67286285D01*
X35536190Y-67333904D01*
X35631428Y-67381523D01*
X35821904Y-67381523D01*
X35917142Y-67333904D01*
X35964761Y-67286285D01*
X36012380Y-67191047D01*
X36012380Y-67000571D01*
X35964761Y-66905333D01*
X35917142Y-66857714D01*
X35821904Y-66810095D01*
X35631428Y-66810095D01*
X35536190Y-66857714D01*
X35488571Y-66905333D01*
X35440952Y-67000571D01*
X45918380Y-68460857D02*
X45442190Y-68794190D01*
X45918380Y-69032285D02*
X44918380Y-69032285D01*
X44918380Y-68651333D01*
X44966000Y-68556095D01*
X45013619Y-68508476D01*
X45108857Y-68460857D01*
X45251714Y-68460857D01*
X45346952Y-68508476D01*
X45394571Y-68556095D01*
X45442190Y-68651333D01*
X45442190Y-69032285D01*
X44918380Y-68127523D02*
X44918380Y-67508476D01*
X45299333Y-67841809D01*
X45299333Y-67698952D01*
X45346952Y-67603714D01*
X45394571Y-67556095D01*
X45489809Y-67508476D01*
X45727904Y-67508476D01*
X45823142Y-67556095D01*
X45870761Y-67603714D01*
X45918380Y-67698952D01*
X45918380Y-67984666D01*
X45870761Y-68079904D01*
X45823142Y-68127523D01*
X45918380Y-67032285D02*
X45918380Y-66841809D01*
X45870761Y-66746571D01*
X45823142Y-66698952D01*
X45680285Y-66603714D01*
X45489809Y-66556095D01*
X45108857Y-66556095D01*
X45013619Y-66603714D01*
X44966000Y-66651333D01*
X44918380Y-66746571D01*
X44918380Y-66937047D01*
X44966000Y-67032285D01*
X45013619Y-67079904D01*
X45108857Y-67127523D01*
X45346952Y-67127523D01*
X45442190Y-67079904D01*
X45489809Y-67032285D01*
X45537428Y-66937047D01*
X45537428Y-66746571D01*
X45489809Y-66651333D01*
X45442190Y-66603714D01*
X45346952Y-66556095D01*
X43632380Y-68460857D02*
X43156190Y-68794190D01*
X43632380Y-69032285D02*
X42632380Y-69032285D01*
X42632380Y-68651333D01*
X42680000Y-68556095D01*
X42727619Y-68508476D01*
X42822857Y-68460857D01*
X42965714Y-68460857D01*
X43060952Y-68508476D01*
X43108571Y-68556095D01*
X43156190Y-68651333D01*
X43156190Y-69032285D01*
X42965714Y-67603714D02*
X43632380Y-67603714D01*
X42584761Y-67841809D02*
X43299047Y-68079904D01*
X43299047Y-67460857D01*
X42632380Y-66889428D02*
X42632380Y-66794190D01*
X42680000Y-66698952D01*
X42727619Y-66651333D01*
X42822857Y-66603714D01*
X43013333Y-66556095D01*
X43251428Y-66556095D01*
X43441904Y-66603714D01*
X43537142Y-66651333D01*
X43584761Y-66698952D01*
X43632380Y-66794190D01*
X43632380Y-66889428D01*
X43584761Y-66984666D01*
X43537142Y-67032285D01*
X43441904Y-67079904D01*
X43251428Y-67127523D01*
X43013333Y-67127523D01*
X42822857Y-67079904D01*
X42727619Y-67032285D01*
X42680000Y-66984666D01*
X42632380Y-66889428D01*
X42608666Y-39774761D02*
X42751523Y-39822380D01*
X42989619Y-39822380D01*
X43084857Y-39774761D01*
X43132476Y-39727142D01*
X43180095Y-39631904D01*
X43180095Y-39536666D01*
X43132476Y-39441428D01*
X43084857Y-39393809D01*
X42989619Y-39346190D01*
X42799142Y-39298571D01*
X42703904Y-39250952D01*
X42656285Y-39203333D01*
X42608666Y-39108095D01*
X42608666Y-39012857D01*
X42656285Y-38917619D01*
X42703904Y-38870000D01*
X42799142Y-38822380D01*
X43037238Y-38822380D01*
X43180095Y-38870000D01*
X43513428Y-38822380D02*
X43751523Y-39822380D01*
X43942000Y-39108095D01*
X44132476Y-39822380D01*
X44370571Y-38822380D01*
X45275333Y-39822380D02*
X44703904Y-39822380D01*
X44989619Y-39822380D02*
X44989619Y-38822380D01*
X44894380Y-38965238D01*
X44799142Y-39060476D01*
X44703904Y-39108095D01*
X55189595Y-30948380D02*
X55761023Y-30948380D01*
X55475309Y-31948380D02*
X55475309Y-30948380D01*
X56094357Y-31948380D02*
X56094357Y-30948380D01*
X56475309Y-30948380D01*
X56570547Y-30996000D01*
X56618166Y-31043619D01*
X56665785Y-31138857D01*
X56665785Y-31281714D01*
X56618166Y-31376952D01*
X56570547Y-31424571D01*
X56475309Y-31472190D01*
X56094357Y-31472190D01*
X57046738Y-31043619D02*
X57094357Y-30996000D01*
X57189595Y-30948380D01*
X57427690Y-30948380D01*
X57522928Y-30996000D01*
X57570547Y-31043619D01*
X57618166Y-31138857D01*
X57618166Y-31234095D01*
X57570547Y-31376952D01*
X56999119Y-31948380D01*
X57618166Y-31948380D01*
X62873095Y-30948380D02*
X63444523Y-30948380D01*
X63158809Y-31948380D02*
X63158809Y-30948380D01*
X63777857Y-31948380D02*
X63777857Y-30948380D01*
X64158809Y-30948380D01*
X64254047Y-30996000D01*
X64301666Y-31043619D01*
X64349285Y-31138857D01*
X64349285Y-31281714D01*
X64301666Y-31376952D01*
X64254047Y-31424571D01*
X64158809Y-31472190D01*
X63777857Y-31472190D01*
X64682619Y-30948380D02*
X65301666Y-30948380D01*
X64968333Y-31329333D01*
X65111190Y-31329333D01*
X65206428Y-31376952D01*
X65254047Y-31424571D01*
X65301666Y-31519809D01*
X65301666Y-31757904D01*
X65254047Y-31853142D01*
X65206428Y-31900761D01*
X65111190Y-31948380D01*
X64825476Y-31948380D01*
X64730238Y-31900761D01*
X64682619Y-31853142D01*
X49982595Y-47712380D02*
X50554023Y-47712380D01*
X50268309Y-48712380D02*
X50268309Y-47712380D01*
X50887357Y-48712380D02*
X50887357Y-47712380D01*
X51268309Y-47712380D01*
X51363547Y-47760000D01*
X51411166Y-47807619D01*
X51458785Y-47902857D01*
X51458785Y-48045714D01*
X51411166Y-48140952D01*
X51363547Y-48188571D01*
X51268309Y-48236190D01*
X50887357Y-48236190D01*
X51792119Y-47712380D02*
X52458785Y-47712380D01*
X52030214Y-48712380D01*
X48776095Y-50760380D02*
X49347523Y-50760380D01*
X49061809Y-51760380D02*
X49061809Y-50760380D01*
X49680857Y-51760380D02*
X49680857Y-50760380D01*
X50061809Y-50760380D01*
X50157047Y-50808000D01*
X50204666Y-50855619D01*
X50252285Y-50950857D01*
X50252285Y-51093714D01*
X50204666Y-51188952D01*
X50157047Y-51236571D01*
X50061809Y-51284190D01*
X49680857Y-51284190D01*
X50823714Y-51188952D02*
X50728476Y-51141333D01*
X50680857Y-51093714D01*
X50633238Y-50998476D01*
X50633238Y-50950857D01*
X50680857Y-50855619D01*
X50728476Y-50808000D01*
X50823714Y-50760380D01*
X51014190Y-50760380D01*
X51109428Y-50808000D01*
X51157047Y-50855619D01*
X51204666Y-50950857D01*
X51204666Y-50998476D01*
X51157047Y-51093714D01*
X51109428Y-51141333D01*
X51014190Y-51188952D01*
X50823714Y-51188952D01*
X50728476Y-51236571D01*
X50680857Y-51284190D01*
X50633238Y-51379428D01*
X50633238Y-51569904D01*
X50680857Y-51665142D01*
X50728476Y-51712761D01*
X50823714Y-51760380D01*
X51014190Y-51760380D01*
X51109428Y-51712761D01*
X51157047Y-51665142D01*
X51204666Y-51569904D01*
X51204666Y-51379428D01*
X51157047Y-51284190D01*
X51109428Y-51236571D01*
X51014190Y-51188952D01*
X27694095Y-61428380D02*
X28265523Y-61428380D01*
X27979809Y-62428380D02*
X27979809Y-61428380D01*
X28598857Y-62428380D02*
X28598857Y-61428380D01*
X28979809Y-61428380D01*
X29075047Y-61476000D01*
X29122666Y-61523619D01*
X29170285Y-61618857D01*
X29170285Y-61761714D01*
X29122666Y-61856952D01*
X29075047Y-61904571D01*
X28979809Y-61952190D01*
X28598857Y-61952190D01*
X29646476Y-62428380D02*
X29836952Y-62428380D01*
X29932190Y-62380761D01*
X29979809Y-62333142D01*
X30075047Y-62190285D01*
X30122666Y-61999809D01*
X30122666Y-61618857D01*
X30075047Y-61523619D01*
X30027428Y-61476000D01*
X29932190Y-61428380D01*
X29741714Y-61428380D01*
X29646476Y-61476000D01*
X29598857Y-61523619D01*
X29551238Y-61618857D01*
X29551238Y-61856952D01*
X29598857Y-61952190D01*
X29646476Y-61999809D01*
X29741714Y-62047428D01*
X29932190Y-62047428D01*
X30027428Y-61999809D01*
X30075047Y-61952190D01*
X30122666Y-61856952D01*
X47458380Y-57491095D02*
X47458380Y-56919666D01*
X48458380Y-57205380D02*
X47458380Y-57205380D01*
X48458380Y-56586333D02*
X47458380Y-56586333D01*
X47458380Y-56205380D01*
X47506000Y-56110142D01*
X47553619Y-56062523D01*
X47648857Y-56014904D01*
X47791714Y-56014904D01*
X47886952Y-56062523D01*
X47934571Y-56110142D01*
X47982190Y-56205380D01*
X47982190Y-56586333D01*
X48458380Y-55062523D02*
X48458380Y-55633952D01*
X48458380Y-55348238D02*
X47458380Y-55348238D01*
X47601238Y-55443476D01*
X47696476Y-55538714D01*
X47744095Y-55633952D01*
X47458380Y-54443476D02*
X47458380Y-54348238D01*
X47506000Y-54253000D01*
X47553619Y-54205380D01*
X47648857Y-54157761D01*
X47839333Y-54110142D01*
X48077428Y-54110142D01*
X48267904Y-54157761D01*
X48363142Y-54205380D01*
X48410761Y-54253000D01*
X48458380Y-54348238D01*
X48458380Y-54443476D01*
X48410761Y-54538714D01*
X48363142Y-54586333D01*
X48267904Y-54633952D01*
X48077428Y-54681571D01*
X47839333Y-54681571D01*
X47648857Y-54633952D01*
X47553619Y-54586333D01*
X47506000Y-54538714D01*
X47458380Y-54443476D01*
X26963904Y-64222380D02*
X27535333Y-64222380D01*
X27249619Y-65222380D02*
X27249619Y-64222380D01*
X27868666Y-65222380D02*
X27868666Y-64222380D01*
X28249619Y-64222380D01*
X28344857Y-64270000D01*
X28392476Y-64317619D01*
X28440095Y-64412857D01*
X28440095Y-64555714D01*
X28392476Y-64650952D01*
X28344857Y-64698571D01*
X28249619Y-64746190D01*
X27868666Y-64746190D01*
X29392476Y-65222380D02*
X28821047Y-65222380D01*
X29106761Y-65222380D02*
X29106761Y-64222380D01*
X29011523Y-64365238D01*
X28916285Y-64460476D01*
X28821047Y-64508095D01*
X30344857Y-65222380D02*
X29773428Y-65222380D01*
X30059142Y-65222380D02*
X30059142Y-64222380D01*
X29963904Y-64365238D01*
X29868666Y-64460476D01*
X29773428Y-64508095D01*
X61888904Y-20724880D02*
X62460333Y-20724880D01*
X62174619Y-21724880D02*
X62174619Y-20724880D01*
X62793666Y-21724880D02*
X62793666Y-20724880D01*
X63174619Y-20724880D01*
X63269857Y-20772500D01*
X63317476Y-20820119D01*
X63365095Y-20915357D01*
X63365095Y-21058214D01*
X63317476Y-21153452D01*
X63269857Y-21201071D01*
X63174619Y-21248690D01*
X62793666Y-21248690D01*
X64317476Y-21724880D02*
X63746047Y-21724880D01*
X64031761Y-21724880D02*
X64031761Y-20724880D01*
X63936523Y-20867738D01*
X63841285Y-20962976D01*
X63746047Y-21010595D01*
X64698428Y-20820119D02*
X64746047Y-20772500D01*
X64841285Y-20724880D01*
X65079380Y-20724880D01*
X65174619Y-20772500D01*
X65222238Y-20820119D01*
X65269857Y-20915357D01*
X65269857Y-21010595D01*
X65222238Y-21153452D01*
X64650809Y-21724880D01*
X65269857Y-21724880D01*
X53379904Y-22312380D02*
X53951333Y-22312380D01*
X53665619Y-23312380D02*
X53665619Y-22312380D01*
X54284666Y-23312380D02*
X54284666Y-22312380D01*
X54665619Y-22312380D01*
X54760857Y-22360000D01*
X54808476Y-22407619D01*
X54856095Y-22502857D01*
X54856095Y-22645714D01*
X54808476Y-22740952D01*
X54760857Y-22788571D01*
X54665619Y-22836190D01*
X54284666Y-22836190D01*
X55808476Y-23312380D02*
X55237047Y-23312380D01*
X55522761Y-23312380D02*
X55522761Y-22312380D01*
X55427523Y-22455238D01*
X55332285Y-22550476D01*
X55237047Y-22598095D01*
X56141809Y-22312380D02*
X56760857Y-22312380D01*
X56427523Y-22693333D01*
X56570380Y-22693333D01*
X56665619Y-22740952D01*
X56713238Y-22788571D01*
X56760857Y-22883809D01*
X56760857Y-23121904D01*
X56713238Y-23217142D01*
X56665619Y-23264761D01*
X56570380Y-23312380D01*
X56284666Y-23312380D01*
X56189428Y-23264761D01*
X56141809Y-23217142D01*
X55879204Y-46411680D02*
X56450633Y-46411680D01*
X56164919Y-47411680D02*
X56164919Y-46411680D01*
X56783966Y-47411680D02*
X56783966Y-46411680D01*
X57164919Y-46411680D01*
X57260157Y-46459300D01*
X57307776Y-46506919D01*
X57355395Y-46602157D01*
X57355395Y-46745014D01*
X57307776Y-46840252D01*
X57260157Y-46887871D01*
X57164919Y-46935490D01*
X56783966Y-46935490D01*
X58307776Y-47411680D02*
X57736347Y-47411680D01*
X58022061Y-47411680D02*
X58022061Y-46411680D01*
X57926823Y-46554538D01*
X57831585Y-46649776D01*
X57736347Y-46697395D01*
X59164919Y-46745014D02*
X59164919Y-47411680D01*
X58926823Y-46364061D02*
X58688728Y-47078347D01*
X59307776Y-47078347D01*
X48172904Y-43267380D02*
X48744333Y-43267380D01*
X48458619Y-44267380D02*
X48458619Y-43267380D01*
X49077666Y-44267380D02*
X49077666Y-43267380D01*
X49458619Y-43267380D01*
X49553857Y-43315000D01*
X49601476Y-43362619D01*
X49649095Y-43457857D01*
X49649095Y-43600714D01*
X49601476Y-43695952D01*
X49553857Y-43743571D01*
X49458619Y-43791190D01*
X49077666Y-43791190D01*
X50601476Y-44267380D02*
X50030047Y-44267380D01*
X50315761Y-44267380D02*
X50315761Y-43267380D01*
X50220523Y-43410238D01*
X50125285Y-43505476D01*
X50030047Y-43553095D01*
X51506238Y-43267380D02*
X51030047Y-43267380D01*
X50982428Y-43743571D01*
X51030047Y-43695952D01*
X51125285Y-43648333D01*
X51363380Y-43648333D01*
X51458619Y-43695952D01*
X51506238Y-43743571D01*
X51553857Y-43838809D01*
X51553857Y-44076904D01*
X51506238Y-44172142D01*
X51458619Y-44219761D01*
X51363380Y-44267380D01*
X51125285Y-44267380D01*
X51030047Y-44219761D01*
X50982428Y-44172142D01*
X29210095Y-40860380D02*
X29210095Y-41669904D01*
X29257714Y-41765142D01*
X29305333Y-41812761D01*
X29400571Y-41860380D01*
X29591047Y-41860380D01*
X29686285Y-41812761D01*
X29733904Y-41765142D01*
X29781523Y-41669904D01*
X29781523Y-40860380D01*
X30781523Y-41860380D02*
X30210095Y-41860380D01*
X30495809Y-41860380D02*
X30495809Y-40860380D01*
X30400571Y-41003238D01*
X30305333Y-41098476D01*
X30210095Y-41146095D01*
X29210095Y-53935380D02*
X29210095Y-54744904D01*
X29257714Y-54840142D01*
X29305333Y-54887761D01*
X29400571Y-54935380D01*
X29591047Y-54935380D01*
X29686285Y-54887761D01*
X29733904Y-54840142D01*
X29781523Y-54744904D01*
X29781523Y-53935380D01*
X30210095Y-54030619D02*
X30257714Y-53983000D01*
X30352952Y-53935380D01*
X30591047Y-53935380D01*
X30686285Y-53983000D01*
X30733904Y-54030619D01*
X30781523Y-54125857D01*
X30781523Y-54221095D01*
X30733904Y-54363952D01*
X30162476Y-54935380D01*
X30781523Y-54935380D01*
X58521695Y-59390380D02*
X58521695Y-60199904D01*
X58569314Y-60295142D01*
X58616933Y-60342761D01*
X58712171Y-60390380D01*
X58902647Y-60390380D01*
X58997885Y-60342761D01*
X59045504Y-60295142D01*
X59093123Y-60199904D01*
X59093123Y-59390380D01*
X59997885Y-59723714D02*
X59997885Y-60390380D01*
X59759790Y-59342761D02*
X59521695Y-60057047D01*
X60140742Y-60057047D01*
X58521695Y-53548380D02*
X58521695Y-54357904D01*
X58569314Y-54453142D01*
X58616933Y-54500761D01*
X58712171Y-54548380D01*
X58902647Y-54548380D01*
X58997885Y-54500761D01*
X59045504Y-54453142D01*
X59093123Y-54357904D01*
X59093123Y-53548380D01*
X60045504Y-53548380D02*
X59569314Y-53548380D01*
X59521695Y-54024571D01*
X59569314Y-53976952D01*
X59664552Y-53929333D01*
X59902647Y-53929333D01*
X59997885Y-53976952D01*
X60045504Y-54024571D01*
X60093123Y-54119809D01*
X60093123Y-54357904D01*
X60045504Y-54453142D01*
X59997885Y-54500761D01*
X59902647Y-54548380D01*
X59664552Y-54548380D01*
X59569314Y-54500761D01*
X59521695Y-54453142D01*
X38695380Y-46989904D02*
X39504904Y-46989904D01*
X39600142Y-46942285D01*
X39647761Y-46894666D01*
X39695380Y-46799428D01*
X39695380Y-46608952D01*
X39647761Y-46513714D01*
X39600142Y-46466095D01*
X39504904Y-46418476D01*
X38695380Y-46418476D01*
X38695380Y-45513714D02*
X38695380Y-45704190D01*
X38743000Y-45799428D01*
X38790619Y-45847047D01*
X38933476Y-45942285D01*
X39123952Y-45989904D01*
X39504904Y-45989904D01*
X39600142Y-45942285D01*
X39647761Y-45894666D01*
X39695380Y-45799428D01*
X39695380Y-45608952D01*
X39647761Y-45513714D01*
X39600142Y-45466095D01*
X39504904Y-45418476D01*
X39266809Y-45418476D01*
X39171571Y-45466095D01*
X39123952Y-45513714D01*
X39076333Y-45608952D01*
X39076333Y-45799428D01*
X39123952Y-45894666D01*
X39171571Y-45942285D01*
X39266809Y-45989904D01*
X35814095Y-56094380D02*
X35814095Y-56903904D01*
X35861714Y-56999142D01*
X35909333Y-57046761D01*
X36004571Y-57094380D01*
X36195047Y-57094380D01*
X36290285Y-57046761D01*
X36337904Y-56999142D01*
X36385523Y-56903904D01*
X36385523Y-56094380D01*
X36766476Y-56094380D02*
X37433142Y-56094380D01*
X37004571Y-57094380D01*
X58547095Y-58212880D02*
X58547095Y-59022404D01*
X58594714Y-59117642D01*
X58642333Y-59165261D01*
X58737571Y-59212880D01*
X58928047Y-59212880D01*
X59023285Y-59165261D01*
X59070904Y-59117642D01*
X59118523Y-59022404D01*
X59118523Y-58212880D01*
X59737571Y-58641452D02*
X59642333Y-58593833D01*
X59594714Y-58546214D01*
X59547095Y-58450976D01*
X59547095Y-58403357D01*
X59594714Y-58308119D01*
X59642333Y-58260500D01*
X59737571Y-58212880D01*
X59928047Y-58212880D01*
X60023285Y-58260500D01*
X60070904Y-58308119D01*
X60118523Y-58403357D01*
X60118523Y-58450976D01*
X60070904Y-58546214D01*
X60023285Y-58593833D01*
X59928047Y-58641452D01*
X59737571Y-58641452D01*
X59642333Y-58689071D01*
X59594714Y-58736690D01*
X59547095Y-58831928D01*
X59547095Y-59022404D01*
X59594714Y-59117642D01*
X59642333Y-59165261D01*
X59737571Y-59212880D01*
X59928047Y-59212880D01*
X60023285Y-59165261D01*
X60070904Y-59117642D01*
X60118523Y-59022404D01*
X60118523Y-58831928D01*
X60070904Y-58736690D01*
X60023285Y-58689071D01*
X59928047Y-58641452D01*
M02*
